<svg id="svg" version="1.1" xmlns="http://www.w3.org/2000/svg" viewBox="0 0 605 288" style="display: block;"><path d="M0 0 C199.65 0 399.3 0 605 0 C605 95.04 605 190.08 605 288 C405.35 288 205.7 288 0 288 C0 192.96 0 97.92 0 0 Z " transform="translate(0,0)" style="fill: #000000;"/><path d="M0 0 C84 0 84 0 110 15 C115.33432381 18.07285815 115.33432381 18.07285815 120.66918945 21.14477539 C123.78680722 22.94179226 126.9012426 24.74425757 130.015625 26.546875 C133.74346498 28.70384925 137.48130361 30.84039215 141.234375 32.953125 C142.76045033 33.82285761 144.28649455 34.6926448 145.8125 35.5625 C146.81615601 36.11611206 146.81615601 36.11611206 147.84008789 36.6809082 C152.0454319 39.09786739 155.54402936 41.77869671 158 46 C158.68442787 48.87652445 158.66507467 51.64171072 158.61523438 54.58813477 C158.62078339 55.4295401 158.6263324 56.27094543 158.63204956 57.1378479 C158.64381613 59.90628844 158.61960378 62.67308135 158.59375 65.44140625 C158.59203817 67.37141343 158.59210531 69.30142293 158.59387207 71.23143005 C158.59222058 75.27064341 158.57355241 79.30930059 158.54199219 83.34838867 C158.50228863 88.52247431 158.49795113 93.69583276 158.50545502 98.87004185 C158.50852606 102.85323229 158.49639982 106.83625963 158.47932434 110.81941032 C158.47230023 112.72716181 158.46916909 114.63493177 158.47001648 116.542696 C158.46821638 119.2092232 158.4468175 121.87488283 158.41992188 124.54125977 C158.42285248 125.32737137 158.42578308 126.11348297 158.42880249 126.92341614 C158.35837068 131.45492508 157.81273362 134.40136946 155 138 C152.51953125 139.80078125 152.51953125 139.80078125 149.8125 141.3125 C148.91144531 141.82425781 148.01039063 142.33601562 147.08203125 142.86328125 C146.05142578 143.42595703 146.05142578 143.42595703 145 144 C145.68707031 144.45890625 146.37414062 144.9178125 147.08203125 145.390625 C148.43361328 146.31101563 148.43361328 146.31101563 149.8125 147.25 C150.70582031 147.85328125 151.59914062 148.4565625 152.51953125 149.078125 C155.04505671 151.03491008 156.42261869 152.23547673 158 155 C158.29565285 157.8548706 158.42032384 160.49083735 158.40405273 163.34521484 C158.41091599 164.18472183 158.41777924 165.02422882 158.42485046 165.88917542 C158.44314553 168.66326838 158.43927664 171.43679716 158.43359375 174.2109375 C158.43815477 176.14141016 158.4434601 178.07188119 158.44947815 180.00234985 C158.45841496 184.04915968 158.45598023 188.09577224 158.44604492 192.14257812 C158.43456381 197.32340482 158.45475072 202.50354908 158.48396206 207.68428612 C158.50232865 211.67178663 158.50203052 215.65912383 158.49632454 219.64665604 C158.49617133 221.55639222 158.50221526 223.46613949 158.51461601 225.37583542 C158.52953013 228.04965445 158.51884563 230.72221582 158.50170898 233.39599609 C158.51621094 234.57448372 158.51621094 234.57448372 158.53100586 235.77677917 C158.46167781 240.95480004 157.40159092 243.88286974 154 248 C151.35644531 249.92773438 151.35644531 249.92773438 148.328125 251.59375 C147.20067871 252.22458496 146.07323242 252.85541992 144.91162109 253.50537109 C143.69113746 254.17035153 142.47059569 254.83522527 141.25 255.5 C139.98819966 256.2010275 138.72730504 256.90368751 137.46728516 257.60791016 C135.53700565 258.68644681 133.60620727 259.76390041 131.6723938 260.83609009 C124.60889352 264.7538821 117.65307882 268.85151056 110.69628906 272.95507812 C68.04491859 297.98178656 72.44702277 288 0 288 C0 192.96 0 97.92 0 0 Z " transform="translate(0,0)" style="fill: #00234B;"/><path d="M0 0 C2.80925614 1.39066227 5.55144306 2.79953691 8.25683594 4.38354492 C9.27737061 4.97699707 10.29790527 5.57044922 11.34936523 6.18188477 C12.43773682 6.82206543 13.5261084 7.46224609 14.64746094 8.12182617 C16.3857238 9.13512574 18.1239922 10.14841594 19.8625946 11.16113281 C21.6682565 12.21370267 23.47257046 13.26855839 25.27685547 14.32348633 C29.92377546 17.03690802 34.59060172 19.71533255 39.25634766 22.39624023 C49.53476582 28.3036544 59.77166685 34.26861987 69.89746094 40.43432617 C68.61949234 44.26823197 67.42295425 44.54069432 63.92871094 46.43823242 C62.89157959 47.00864258 61.85444824 47.57905273 60.78588867 48.16674805 C59.10861694 49.07263672 59.10861694 49.07263672 57.39746094 49.99682617 C55.08550321 51.26758019 52.77430593 52.53971872 50.46386719 53.81323242 C48.76641357 54.74546631 48.76641357 54.74546631 47.03466797 55.6965332 C43.09548419 57.87856512 39.20614016 60.13438456 35.33496094 62.43432617 C34.69123535 62.81395508 34.04750977 63.19358398 33.38427734 63.5847168 C30.23460922 65.44473899 27.09268917 67.31670903 23.95947266 69.2043457 C20.73633077 71.14513581 17.50471051 73.0712514 14.27246094 74.99682617 C12.74190063 75.92785156 12.74190063 75.92785156 11.18041992 76.87768555 C9.72164429 77.74296875 9.72164429 77.74296875 8.23339844 78.62573242 C7.37278809 79.14337158 6.51217773 79.66101074 5.62548828 80.19433594 C2.38887617 81.66549693 -0.58144974 82.0735299 -4.10253906 82.43432617 C-4.51391113 81.71180664 -4.9252832 80.98928711 -5.34912109 80.24487305 C-12.78179452 67.19699722 -20.2297863 54.15882779 -27.79003906 41.18432617 C-28.35287598 40.21688477 -28.91571289 39.24944336 -29.49560547 38.25268555 C-30.29683838 36.88080078 -30.29683838 36.88080078 -31.11425781 35.48120117 C-31.61489746 34.62333008 -32.11553711 33.76545898 -32.63134766 32.8815918 C-34.43162089 29.88691227 -36.35266186 26.98100103 -38.32836914 24.09936523 C-39.10253906 22.43432617 -39.10253906 22.43432617 -38.10253906 19.43432617 C-35.52978516 17.68847656 -35.52978516 17.68847656 -32.12597656 15.78198242 C-31.52250397 15.44057724 -30.91903137 15.09917206 -30.29727173 14.74742126 C-28.36210083 13.65520234 -26.42007605 12.57587973 -24.47753906 11.49682617 C-23.1919064 10.77436601 -21.90674436 10.05106769 -20.62207031 9.3269043 C-18.23477567 7.98252447 -15.84447546 6.64416279 -13.45166016 5.30957031 C-11.7160071 4.33774124 -9.98251346 3.35314944 -8.33477783 2.23873901 C-5.24051006 0.21250433 -3.70637085 -0.67576812 0 0 Z " transform="translate(81.1025390625,200.565673828125)" style="fill: #1CA7FB;"/><path d="M0 0 C0 27.06 0 54.12 0 82 C-4.76943768 80.41018744 -8.39916606 78.73475694 -12.5625 76.125 C-18.62565114 72.4069077 -24.75235627 68.82380319 -30.9375 65.3125 C-38.96036713 60.74732954 -46.95944136 56.14307323 -54.9375 51.5 C-55.94997803 50.91259033 -56.96245605 50.32518066 -58.00561523 49.7199707 C-62.76967818 46.94264046 -67.46121031 44.13337766 -72 41 C-69.19772112 38.82464172 -66.34073669 36.95203093 -63.2734375 35.171875 C-62.33693359 34.62684326 -61.40042969 34.08181152 -60.43554688 33.52026367 C-59.42556641 32.93607666 -58.41558594 32.35188965 -57.375 31.75 C-56.32119141 31.13809814 -55.26738281 30.52619629 -54.18164062 29.89575195 C-50.78945769 27.92755624 -47.39491429 25.96348013 -44 24 C-42.87368164 23.34757324 -41.74736328 22.69514648 -40.58691406 22.02294922 C-33.06639554 17.66719828 -25.53719975 13.32681742 -18 9 C-17.12085938 8.49436523 -16.24171875 7.98873047 -15.3359375 7.46777344 C-13.06011625 6.16098242 -10.78097491 4.86026863 -8.5 3.5625 C-7.85353516 3.19084717 -7.20707031 2.81919434 -6.54101562 2.4362793 C-2.2316411 0 -2.2316411 0 0 0 Z " transform="translate(153,158)" style="fill: #18BDF7;"/><path d="M0 0 C4.04152743 0.80830549 5.89417897 1.28182472 9.23828125 3.23046875 C10.04595947 3.69646484 10.8536377 4.16246094 11.68579102 4.64257812 C12.98601196 5.40731445 12.98601196 5.40731445 14.3125 6.1875 C15.68716431 6.98510742 15.68716431 6.98510742 17.08959961 7.79882812 C19.0518135 8.93872264 21.01212631 10.08189483 22.97070312 11.22802734 C25.98131314 12.98906921 28.9976601 14.73987881 32.015625 16.48828125 C37.03181786 19.39748683 42.03604009 22.3265534 47.03564453 25.26416016 C50.00583759 27.00341832 52.98487766 28.72677178 55.96484375 30.44921875 C57.81025553 31.52803078 59.65532423 32.60742994 61.5 33.6875 C62.79176147 34.42709961 62.79176147 34.42709961 64.10961914 35.18164062 C64.88813232 35.64119141 65.66664551 36.10074219 66.46875 36.57421875 C67.15388672 36.97213623 67.83902344 37.37005371 68.54492188 37.7800293 C69.02509766 38.18261963 69.50527344 38.58520996 70 39 C70 39.99 70 40.98 70 42 C68.42480469 43.2800293 68.42480469 43.2800293 66.171875 44.57421875 C65.32343018 45.06873535 64.47498535 45.56325195 63.60083008 46.07275391 C62.18966919 46.87205322 62.18966919 46.87205322 60.75 47.6875 C59.77506592 48.25130371 58.80013184 48.81510742 57.7956543 49.39599609 C54.53712574 51.27590658 51.26911648 53.13856967 48 55 C46.24952723 56.00182895 44.49980358 57.00495725 42.75013733 58.00819397 C37.99397628 60.73522187 33.234098 63.45560008 28.46934509 66.16758728 C21.0923766 70.36671153 13.74228167 74.61042278 6.41918945 78.90283203 C1.10743177 82 1.10743177 82 0 82 C0 54.94 0 27.88 0 0 Z " transform="translate(80,6)" style="fill: #0768DD;"/><path d="M0 0 C0 27.06 0 54.12 0 82 C-15.85557773 73.35150306 -31.58940589 64.56962863 -47.16015625 55.41796875 C-50.85976469 53.24419783 -54.5729215 51.09944108 -58.30859375 48.98828125 C-59.1070874 48.53259766 -59.90558105 48.07691406 -60.72827148 47.60742188 C-62.20582169 46.76519444 -63.6882061 45.93137296 -65.17602539 45.10742188 C-67.125 43.98828125 -67.125 43.98828125 -70 42 C-70 41.01 -70 40.02 -70 39 C-67.96484375 37.4140625 -67.96484375 37.4140625 -64.9375 35.625 C-64.36878174 35.2861377 -63.80006348 34.94727539 -63.21411133 34.59814453 C-56.61798531 30.70280124 -49.92237648 26.97306075 -43.24389648 23.22143555 C-33.80933226 17.91750286 -24.46337779 12.46709481 -15.125 6.99609375 C-14.24070313 6.48030762 -13.35640625 5.96452148 -12.4453125 5.43310547 C-10.91362611 4.53544182 -9.38673609 3.62948639 -7.8671875 2.71142578 C-3.32159689 0 -3.32159689 0 0 0 Z " transform="translate(78,6)" style="fill: #0169EF;"/><path d="M0 0 C2.94161674 1.64438203 5.6300579 3.53531911 8.390625 5.46875 C11.08629723 7.03060184 13.83569919 8.49094424 16.578125 9.96875 C27.24618909 15.85993067 37.74142149 22.05265076 48.24609375 28.22875977 C52.35206887 30.60287721 55.68006116 31.22719757 60.390625 30.46875 C64.10040862 28.94145602 67.46100159 26.91475011 70.890625 24.84375 C72.37284546 23.97762085 72.37284546 23.97762085 73.88500977 23.09399414 C75.98127728 21.86684234 78.07306772 20.63201518 80.16064453 19.39013672 C84.48733267 16.81636229 88.83477649 14.27882932 93.18359375 11.74267578 C95.23188019 10.54646378 97.27759477 9.34583353 99.3203125 8.14013672 C101.16615577 7.05421623 103.0178309 5.97812472 104.8762207 4.91381836 C106.47668889 3.9940037 108.06328272 3.04928326 109.62963867 2.07250977 C111.6796875 0.875 111.6796875 0.875 115.390625 -0.53125 C118.76171875 0.50390625 118.76171875 0.50390625 121.828125 2.53125 C123.37306641 3.50771484 123.37306641 3.50771484 124.94921875 4.50390625 C127.390625 6.46875 127.390625 6.46875 128.390625 9.46875 C127.7829126 9.81019043 127.1752002 10.15163086 126.54907227 10.50341797 C111.81110395 18.77930476 111.81110395 18.77930476 97.203125 27.28125 C90.01936395 31.53594763 82.79402262 35.71738312 75.55184937 39.87167358 C74.28752801 40.59741629 73.02386489 41.32430702 71.76089478 42.05239868 C69.97786385 43.07986341 68.19239838 44.10296657 66.40625 45.125 C65.36758789 45.72119141 64.32892578 46.31738281 63.25878906 46.93164062 C56.21316913 50.70753636 56.21316913 50.70753636 53.4597168 49.90820312 C52.84265869 49.52599609 52.22560059 49.14378906 51.58984375 48.75 C50.87320557 48.31985596 50.15656738 47.88971191 49.41821289 47.4465332 C48.64598389 46.95886475 47.87375488 46.47119629 47.078125 45.96875 C45.36227758 44.93049625 43.64611719 43.89275961 41.9296875 42.85546875 C41.02508789 42.30036621 40.12048828 41.74526367 39.18847656 41.17333984 C34.48371754 38.30696747 29.71603635 35.54951205 24.953125 32.78125 C23.97303467 32.20874512 22.99294434 31.63624023 21.9831543 31.04638672 C9.50485015 23.76247685 -3.05338025 16.6176025 -15.609375 9.46875 C-13.99289803 4.6193191 -10.24312315 2.965087 -5.90625 0.5625 C-2.609375 -0.53125 -2.609375 -0.53125 0 0 Z " transform="translate(22.609375,147.53125)" style="fill: #1EBCE9;"/><path d="M0 0 C0.82564453 0.48339844 0.82564453 0.48339844 1.66796875 0.9765625 C1.99796875 0.6465625 2.32796875 0.3165625 2.66796875 -0.0234375 C4.35405841 -0.09549261 6.04297534 -0.10729818 7.73046875 -0.0859375 C8.64957031 -0.07691406 9.56867188 -0.06789062 10.515625 -0.05859375 C11.22589844 -0.04699219 11.93617188 -0.03539062 12.66796875 -0.0234375 C12.76716039 6.11461724 12.8395904 12.25220103 12.88769531 18.39086914 C12.90775788 20.47721489 12.93501465 22.56350477 12.96972656 24.6496582 C13.01848034 27.65590228 13.04099142 30.66140019 13.05859375 33.66796875 C13.07923889 34.59428604 13.09988403 35.52060333 13.12115479 36.47499084 C13.12349297 43.28843572 11.77840688 47.58473999 7.0703125 52.71875 C1.10610316 57.33107189 -3.97435756 57.70026811 -11.33203125 56.9765625 C-16.67411485 55.34917279 -20.31326439 52.73692562 -23.33203125 47.9765625 C-24.75346917 44.99154286 -25.33203125 43.29925634 -25.33203125 39.9765625 C-21.93385781 39.62636905 -18.71538587 39.43415168 -15.33203125 39.9765625 C-13.20703125 42.9140625 -13.20703125 42.9140625 -11.33203125 45.9765625 C-8.60872343 47.1611143 -6.26310864 47.41767514 -3.33203125 46.9765625 C-0.18544459 45.08006699 -0.18544459 45.08006699 1.66796875 41.9765625 C2.08687093 38.76594462 2.08687093 38.76594462 1.66796875 35.9765625 C0.67796875 36.6365625 -0.31203125 37.2965625 -1.33203125 37.9765625 C-7.63501488 39.38930021 -12.57093992 39.075412 -18.33203125 35.9765625 C-22.57899126 32.54458416 -25.14640993 28.51983042 -26.14453125 23.14453125 C-26.74319713 16.22245706 -25.91963687 10.40845789 -21.83203125 4.671875 C-16.36288685 -1.50939758 -7.69079211 -3.3751885 0 0 Z " transform="translate(419.33203125,134.0234375)" style="fill: #FFFFFF;"/><path d="M0 0 C24.84615385 0 24.84615385 0 30.5625 5.4375 C32.65906427 10.63333318 32.80401464 15.47239938 32 21 C30 24.25 30 24.25 28 26 C28.804375 26.928125 29.60875 27.85625 30.4375 28.8125 C34.32772553 33.30122177 34.28301214 37.53214419 34.21484375 43.2734375 C33.82090947 48.27282164 32.10072211 51.00666541 28.4375 54.3125 C18.96732885 60.86877233 18.36828301 57 0 57 C0 38.19 0 19.38 0 0 Z " transform="translate(204,40)" style="fill: #FFFFFF;"/><path d="M0 0 C24.75 0 49.5 0 75 0 C71.91327444 2.31504417 69.08668237 4.15445595 65.73828125 6.00390625 C64.71081787 6.57431641 63.68335449 7.14472656 62.62475586 7.73242188 C61.53171143 8.33634766 60.43866699 8.94027344 59.3125 9.5625 C51.31896292 14.00873756 43.35007876 18.47988415 35.49047852 23.15917969 C31.28286253 25.6634088 27.05213532 28.12134423 22.80078125 30.55078125 C21.71804932 31.17275391 20.63531738 31.79472656 19.51977539 32.43554688 C17.38580031 33.66051517 15.24840471 34.87954937 13.10717773 36.09179688 C11.63873413 36.93774414 11.63873413 36.93774414 10.140625 37.80078125 C9.26954102 38.29747314 8.39845703 38.79416504 7.50097656 39.3059082 C4.38026392 41.30493743 4.38026392 41.30493743 0 46 C0 30.82 0 15.64 0 0 Z " transform="translate(0,0)" style="fill: #000000;"/><path d="M0 0 C1.32 1.65 2.64 3.3 4 5 C6.61952711 6.86482217 6.61952711 6.86482217 9.6015625 8.4609375 C10.71885742 9.08991943 11.83615234 9.71890137 12.98730469 10.36694336 C14.19982484 11.036377 15.4123911 11.70572714 16.625 12.375 C17.87987731 13.07770587 19.13410023 13.7815815 20.38769531 14.48657227 C22.32384574 15.575033 24.26046985 16.66256151 26.19934082 17.74617004 C32.75508788 21.41022629 39.25322141 25.17000347 45.75 28.9375 C55.12863578 34.36058314 64.5370979 39.72536121 74 45 C74 45.33 74 45.66 74 46 C49.58 46 25.16 46 0 46 C0 30.82 0 15.64 0 0 Z " transform="translate(0,242)" style="fill: #000000;"/><path d="M0 0 C3.3 0 6.6 0 10 0 C10 7.26 10 14.52 10 22 C12.64 20.68 15.28 19.36 18 18 C22.83677074 17.451924 26.94234219 18.5011048 31.3125 20.5625 C35.92100217 24.7423043 38.64744525 28.08643435 39.4140625 34.421875 C39.58122403 41.6250173 39.39340869 47.32123649 34.28125 52.86328125 C33.6934375 53.34152344 33.105625 53.81976563 32.5 54.3125 C31.61828125 55.04919922 31.61828125 55.04919922 30.71875 55.80078125 C26.58576341 58.68447871 21.83299278 58.49316253 17 58 C13.4375 56.5 13.4375 56.5 11 55 C10.67 55.66 10.34 56.32 10 57 C6.7 57 3.4 57 0 57 C0 38.19 0 19.38 0 0 Z " transform="translate(277,189)" style="fill: #FFFFFF;"/><path d="M0 0 C3.80962064 1.424206 7.24403968 3.17908883 10.76953125 5.203125 C11.89407715 5.84701172 13.01862305 6.49089844 14.17724609 7.15429688 C15.38906664 7.85274445 16.60081629 8.55131506 17.8125 9.25 C19.06580805 9.96959252 20.31922744 10.68899115 21.57275391 11.40820312 C30.68869354 16.64429392 39.77486036 21.93136072 48.84887695 27.23974609 C56.2047139 31.54293894 63.58634069 35.7971861 71 40 C67.88994989 43.42010694 64.64031658 45.55136001 60.625 47.8203125 C60.01865723 48.16504608 59.41231445 48.50977966 58.78759766 48.86495972 C56.86179282 49.95776721 54.93097441 51.04135877 53 52.125 C51.70279903 52.86010215 50.40592065 53.59577387 49.109375 54.33203125 C39.00737366 60.0537359 39.00737366 60.0537359 35 62 C26.13666372 47.09111183 17.40746155 32.10881891 8.77441406 17.06542969 C7.52846192 14.9129565 6.26875683 12.76841377 4.99902344 10.62988281 C4.03657715 9.00711426 4.03657715 9.00711426 3.0546875 7.3515625 C2.46929199 6.37268066 1.88389648 5.39379883 1.28076172 4.38525391 C0 2 0 2 0 0 Z " transform="translate(6,158)" style="fill: #25ABEC;"/><path d="M0 0 C-1.65413336 4.53126957 -3.89709951 8.61856462 -6.25 12.8125 C-6.68038574 13.58368164 -7.11077148 14.35486328 -7.55419922 15.14941406 C-12.49213427 23.95068967 -17.6024221 32.65183703 -22.703125 41.359375 C-26.51961027 47.87756461 -30.27498032 54.42915784 -34 61 C-37.50286718 60.4349105 -40.1344392 59.57559943 -43.1875 57.77734375 C-43.96311279 57.32464111 -44.73872559 56.87193848 -45.5378418 56.40551758 C-46.350354 55.92107178 -47.16286621 55.43662598 -48 54.9375 C-48.83635986 54.44596436 -49.67271973 53.95442871 -50.53442383 53.44799805 C-57.41289334 49.39078867 -64.232816 45.24012067 -71 41 C-67.59166354 38.1544796 -64.16533016 35.81788398 -60.30078125 33.63671875 C-59.18622559 33.00427246 -58.07166992 32.37182617 -56.92333984 31.72021484 C-56.33494324 31.38898621 -55.74654663 31.05775757 -55.14031982 30.7164917 C-52.64704988 29.31287738 -50.15929787 27.89960807 -47.67108154 26.48706055 C-46.38169746 25.75526896 -45.09202171 25.02399105 -43.80206299 24.29321289 C-37.14127244 20.51902243 -30.50585537 16.70147673 -23.875 12.875 C-22.82868408 12.27260498 -21.78236816 11.67020996 -20.7043457 11.04956055 C-15.07379401 7.80139258 -9.48951577 4.49733447 -3.96533203 1.07080078 C-2 0 -2 0 0 0 Z " transform="translate(152,49)" style="fill: #0488F5;"/><path d="M0 0 C3.54434427 1.34455698 6.80799193 2.91228344 10.11328125 4.765625 C11.10199219 5.31895508 12.09070313 5.87228516 13.109375 6.44238281 C14.16640625 7.03889648 15.2234375 7.63541016 16.3125 8.25 C17.41464844 8.8697168 18.51679688 9.48943359 19.65234375 10.12792969 C31.17443046 16.62714773 42.59764497 23.29344486 54 30 C55.76038535 31.03390748 57.5208007 32.06776391 59.28125 33.1015625 C63.18941332 35.39780464 67.09546351 37.69759669 71 40 C68.8487401 42.32081941 66.71870188 43.89042169 63.97265625 45.453125 C63.18568359 45.90453857 62.39871094 46.35595215 61.58789062 46.82104492 C60.75451172 47.2926001 59.92113281 47.76415527 59.0625 48.25 C57.34484186 49.23010042 55.62739392 50.21056931 53.91015625 51.19140625 C53.07242676 51.66852051 52.23469727 52.14563477 51.37158203 52.63720703 C49.29562289 53.83012487 47.23543414 55.04356828 45.18359375 56.27734375 C44.13300781 56.90769531 43.08242188 57.53804687 42 58.1875 C41.0925 58.73792969 40.185 59.28835937 39.25 59.85546875 C37 61 37 61 34 61 C33.4738208 60.05253906 33.4738208 60.05253906 32.93701172 59.0859375 C18.94606324 33.92235051 18.94606324 33.92235051 4.26171875 9.15966797 C3.71128906 8.26006348 3.16085938 7.36045898 2.59375 6.43359375 C2.09552734 5.62849365 1.59730469 4.82339355 1.08398438 3.99389648 C0 2 0 2 0 0 Z " transform="translate(6,49)" style="fill: #0185F8;"/><path d="M0 0 C6.93 3.96 6.93 3.96 14 8 C16.93326172 9.65128906 16.93326172 9.65128906 19.92578125 11.3359375 C20.82361328 11.84253906 21.72144531 12.34914063 22.64648438 12.87109375 C24.47238485 13.90108889 26.30063301 14.92693015 28.13085938 15.94921875 C29.01193359 16.44808594 29.89300781 16.94695312 30.80078125 17.4609375 C31.58622314 17.90228027 32.37166504 18.34362305 33.1809082 18.79833984 C35 20 35 20 36 22 C34.98706055 24.25219727 34.98706055 24.25219727 33.38671875 27.06640625 C32.80317627 28.10071777 32.21963379 29.1350293 31.6184082 30.20068359 C30.9812085 31.31008301 30.34400879 32.41948242 29.6875 33.5625 C29.04321045 34.69768066 28.3989209 35.83286133 27.73510742 37.00244141 C23.38055454 44.6536645 18.96012242 52.26505081 14.4609375 59.83203125 C12.6047279 62.95952327 10.78450915 66.10608191 8.9765625 69.26171875 C8.47020264 70.14424316 7.96384277 71.02676758 7.44213867 71.93603516 C6.45494227 73.65926393 5.47062927 75.38414841 4.48950195 77.11083984 C3.82760864 78.26447021 3.82760864 78.26447021 3.15234375 79.44140625 C2.76038818 80.12920166 2.36843262 80.81699707 1.96459961 81.52563477 C1.4871228 82.25544556 1.4871228 82.25544556 1 83 C0.67 83 0.34 83 0 83 C0 55.61 0 28.22 0 0 Z " transform="translate(80,91)" style="fill: #05BEF4;"/><path d="M0 0 C0 26.73 0 53.46 0 81 C-3.22265038 77.77734962 -4.87134996 75.81587437 -6.9609375 71.984375 C-7.50830566 70.99171631 -8.05567383 69.99905762 -8.61962891 68.97631836 C-9.4885376 67.37929077 -9.4885376 67.37929077 -10.375 65.75 C-15.89658783 55.73175899 -21.55656834 45.81592214 -27.38037109 35.96972656 C-30.4646789 30.73085225 -33.35596759 25.47508175 -36 20 C-28.93520096 15.08505998 -21.57638863 10.81249581 -14.0625 6.625 C-12.92748047 5.98433594 -11.79246094 5.34367187 -10.62304688 4.68359375 C-9.54216797 4.07902344 -8.46128906 3.47445312 -7.34765625 2.8515625 C-5.87824585 2.02906006 -5.87824585 2.02906006 -4.37915039 1.18994141 C-2 0 -2 0 0 0 Z " transform="translate(78,92)" style="fill: #02C4F6;"/><path d="M0 0 C2.29856352 3.06475137 4.19343912 5.93202679 6.08203125 9.234375 C6.67798096 10.27263428 7.27393066 11.31089355 7.88793945 12.38061523 C8.84059692 14.04846069 8.84059692 14.04846069 9.8125 15.75 C11.15576668 18.09012324 12.49950794 20.4299687 13.84375 22.76953125 C14.18590042 23.36560684 14.52805084 23.96168243 14.88056946 24.57582092 C18.4994136 30.87771005 22.15180681 37.15982317 25.8125 43.4375 C26.40458252 44.45489258 26.99666504 45.47228516 27.60668945 46.52050781 C28.15542725 47.46120117 28.70416504 48.40189453 29.26953125 49.37109375 C29.75010986 50.19536865 30.23068848 51.01964355 30.72583008 51.86889648 C31.76699718 53.61029285 32.87456125 55.31184188 34 57 C33.92797852 58.99633789 33.92797852 58.99633789 33 61 C30.90209961 62.56811523 30.90209961 62.56811523 28.15234375 64.05859375 C27.15396484 64.60966797 26.15558594 65.16074219 25.12695312 65.72851562 C24.07443359 66.29248047 23.02191406 66.85644531 21.9375 67.4375 C19.88321186 68.55954676 17.82980973 69.68321733 15.77734375 70.80859375 C14.79233887 71.34468262 13.80733398 71.88077148 12.79248047 72.43310547 C10.26408594 73.85181819 7.81840544 75.34501767 5.37890625 76.91015625 C2 79 2 79 0 79 C0 52.93 0 26.86 0 0 Z " transform="translate(5,52)" style="fill: #0286F6;"/><path d="M0 0 C0.60920288 1.06806885 0.60920288 1.06806885 1.23071289 2.15771484 C2.81429199 4.93336169 4.39837984 7.70871742 5.98284912 10.4838562 C6.70178066 11.74315487 7.42057168 13.00253377 8.13922119 14.26199341 C12.18138505 21.34513545 16.23559542 28.42073759 20.33203125 35.47265625 C20.67510818 36.06401367 21.01818512 36.65537109 21.37165833 37.26464844 C23.01086036 40.09004255 24.65314426 42.91354307 26.30102539 45.73388672 C26.89004639 46.74854004 27.47906738 47.76319336 28.0859375 48.80859375 C28.6020459 49.69345459 29.1181543 50.57831543 29.64990234 51.48999023 C30.96903825 53.94243802 32.02084683 56.39545256 33 59 C27.8890696 57.20961298 23.35577786 54.45044857 18.6875 51.75 C17.77323242 51.22422363 16.85896484 50.69844727 15.91699219 50.15673828 C6.8348471 44.92506667 -2.22260129 39.65052721 -11.265625 34.3515625 C-14.93260956 32.20326538 -18.60870564 30.07264445 -22.296875 27.9609375 C-23.09706055 27.49961426 -23.89724609 27.03829102 -24.72167969 26.56298828 C-26.2033284 25.70911914 -27.68820563 24.86081956 -29.17675781 24.01904297 C-30.81806001 23.06840403 -32.41523068 22.04215809 -34 21 C-34 20.34 -34 19.68 -34 19 C-33.24380371 18.56655273 -32.48760742 18.13310547 -31.70849609 17.68652344 C-28.87843377 16.06302302 -26.04946379 14.43765031 -23.22119141 12.81103516 C-22.00156583 12.11009721 -20.78152116 11.4098879 -19.56103516 10.71044922 C-17.79736927 9.69954997 -16.03527403 8.68595841 -14.2734375 7.671875 C-13.21560059 7.0644043 -12.15776367 6.45693359 -11.06787109 5.83105469 C-8.9141156 4.54558865 -6.80468652 3.18430708 -4.73291016 1.77050781 C-2 0 -2 0 0 0 Z " transform="translate(41,222)" style="fill: #3991EE;"/><path d="M0 0 C2.28257297 3.04343063 4.16935817 5.88688905 6.046875 9.1640625 C6.63774902 10.19192871 7.22862305 11.21979492 7.83740234 12.27880859 C8.46855957 13.38305176 9.0997168 14.48729492 9.75 15.625 C10.74781319 17.36532604 11.74563339 19.10564812 12.74386597 20.84573364 C13.43504313 22.05068917 14.1258957 23.25583095 14.81643677 24.46115112 C17.2881062 28.77187948 19.78352199 33.06826283 22.2890625 37.359375 C22.98094056 38.54727809 23.6726745 39.73526513 24.36425781 40.92333984 C25.68550438 43.19140493 27.01027059 45.45742401 28.33886719 47.72119141 C28.93602539 48.74905762 29.53318359 49.77692383 30.1484375 50.8359375 C30.67614746 51.73876465 31.20385742 52.6415918 31.74755859 53.57177734 C32.87184003 55.75152454 33.54033458 57.60402014 34 60 C26.34589248 64.79584116 18.61340781 69.44694384 10.8125 74 C9.55602661 74.73923706 9.55602661 74.73923706 8.27416992 75.4934082 C7.48888916 75.9493335 6.7036084 76.40525879 5.89453125 76.875 C5.19175049 77.28492188 4.48896973 77.69484375 3.76489258 78.1171875 C2 79 2 79 0 79 C0 52.93 0 26.86 0 0 Z " transform="translate(5,161)" style="fill: #3B90DB;"/><path d="M0 0 C1.52442111 2.64232992 3.04883879 5.28466182 4.57324219 7.92700195 C5.91107659 10.24588208 7.24895852 12.5647347 8.58691406 14.88354492 C11.78837281 20.43214613 14.98943575 25.98097335 18.18809509 31.53118896 C19.21632599 33.31530421 20.24473316 35.09931772 21.27319336 36.88330078 C22.56993098 39.13277301 23.86632936 41.38244085 25.16235352 43.63232422 C25.75330811 44.65729004 26.3442627 45.68225586 26.953125 46.73828125 C27.47036133 47.63587158 27.98759766 48.53346191 28.52050781 49.45825195 C29.55372165 51.23329969 30.63565387 52.98048281 31.75292969 54.70385742 C32.16446289 55.46158447 32.57599609 56.21931152 33 57 C32.505 57.99 32.505 57.99 32 59 C18.71663745 51.61127971 5.4732669 44.177524 -7.59765625 36.41894531 C-12.73947728 33.38192663 -17.90294471 30.3817532 -23.0625 27.375 C-24.14152588 26.7459375 -25.22055176 26.116875 -26.33227539 25.46875 C-28.88801835 23.97888284 -31.44392412 22.48929589 -34 21 C-32.73448683 17.20346049 -31.599516 16.92746282 -28.15234375 15.0390625 C-27.15396484 14.48476562 -26.15558594 13.93046875 -25.12695312 13.359375 C-24.07443359 12.78703125 -23.02191406 12.2146875 -21.9375 11.625 C-19.88317403 10.49389406 -17.8297712 9.36110973 -15.77734375 8.2265625 C-14.79233887 7.68418945 -13.80733398 7.14181641 -12.79248047 6.58300781 C-10.2688375 5.15239922 -7.82017856 3.65166198 -5.37890625 2.0859375 C-2 0 -2 0 0 0 Z " transform="translate(41,113)" style="fill: #04C5F2;"/><path d="M0 0 C3.80174433 1.42885808 7.2732575 3.1704854 10.81640625 5.15234375 C11.91017578 5.76400391 13.00394531 6.37566406 14.13085938 7.00585938 C15.26330078 7.64330078 16.39574219 8.28074219 17.5625 8.9375 C19.26696289 9.88786133 19.26696289 9.88786133 21.00585938 10.85742188 C30.23121697 16.03341897 30.23121697 16.03341897 34 19 C32.82230852 22.53307444 32.2879348 22.68212063 29.125 24.34765625 C28.31361572 24.78263428 27.50223145 25.2176123 26.66625977 25.66577148 C25.78639404 26.12669189 24.90652832 26.5876123 24 27.0625 C22.153839 28.05262262 20.30880286 29.04484521 18.46484375 30.0390625 C17.53913574 30.53696289 16.61342773 31.03486328 15.65966797 31.54785156 C11.91026611 33.5949823 8.23201784 35.75124364 4.5625 37.9375 C-1.94950051 41.80251098 -8.49229443 45.60967617 -15.0625 49.375 C-16.36562134 50.12511353 -16.36562134 50.12511353 -17.69506836 50.89038086 C-22.72282242 53.76581134 -27.79429804 56.46033962 -33 59 C-31.70891809 55.60997279 -30.24218459 52.47839169 -28.453125 49.32421875 C-27.94450928 48.42509766 -27.43589355 47.52597656 -26.91186523 46.59960938 C-26.36344971 45.63861328 -25.81503418 44.67761719 -25.25 43.6875 C-24.681604 42.68654297 -24.11320801 41.68558594 -23.52758789 40.65429688 C-18.08909261 31.10261025 -12.5529816 21.60816123 -6.99609375 12.125 C-4.63708703 8.09825439 -2.30507717 4.05783757 0 0 Z " transform="translate(117,113)" style="fill: #18E5F7;"/><path d="M0 0 C0 25.74 0 51.48 0 78 C-3.55074326 76.57970269 -6.53120004 75.23097378 -9.80078125 73.35546875 C-10.69603516 72.84306641 -11.59128906 72.33066406 -12.51367188 71.80273438 C-13.43728516 71.26970703 -14.36089844 70.73667969 -15.3125 70.1875 C-16.68051758 69.40536133 -16.68051758 69.40536133 -18.07617188 68.60742188 C-23.45938855 65.51641359 -28.75792154 62.32469454 -34 59 C-32.7423893 54.89102713 -31.22023808 51.34593014 -29.05078125 47.640625 C-28.45668457 46.6189624 -27.86258789 45.5972998 -27.25048828 44.54467773 C-26.61095215 43.45743408 -25.97141602 42.37019043 -25.3125 41.25 C-24.30761665 39.52648102 -23.3027435 37.802956 -22.29846191 36.0790863 C-21.60284477 34.88590797 -20.90646447 33.69317424 -20.20935059 32.50086975 C-17.69014404 28.19206787 -15.19267872 23.87120777 -12.70703125 19.54296875 C-12.36229263 18.94306122 -12.01755402 18.34315369 -11.66236877 17.72506714 C-9.99435896 14.82217344 -8.32737364 11.91869837 -6.66137695 9.01464844 C-6.06413818 7.97727539 -5.46689941 6.93990234 -4.8515625 5.87109375 C-4.32385254 4.95255615 -3.79614258 4.03401855 -3.25244141 3.08764648 C-1.40007017 0 -1.40007017 0 0 0 Z " transform="translate(153,53)" style="fill: #1BD2F6;"/><path d="M0 0 C1.65 0 3.3 0 5 0 C4.34 0.33 3.68 0.66 3 1 C3.33 27.73 3.66 54.46 4 82 C13.24 76.72 22.48 71.44 32 66 C35.63 63.9375 39.26 61.875 43 59.75 C52.51190417 54.31994664 61.90775249 48.70783622 71.27026367 43.0246582 C72.4873578 42.3036781 73.73473151 41.63263424 75 41 C75.33 42.32 75.66 43.64 76 45 C75.32324219 45.07992187 74.64648438 45.15984375 73.94921875 45.2421875 C70.14896482 46.21867659 67.12224542 48.09194472 63.8125 50.125 C62.29250664 51.03915851 60.77161283 51.95182088 59.25 52.86328125 C58.41597656 53.36424316 57.58195313 53.86520508 56.72265625 54.38134766 C51.61907967 57.41548617 46.46140278 60.35618492 41.3125 63.3125 C32.66283739 68.29180086 24.03362544 73.30377655 15.4375 78.375 C14.49753174 78.92841064 13.55756348 79.48182129 12.58911133 80.05200195 C11.73341553 80.55820068 10.87771973 81.06439941 9.99609375 81.5859375 C8.86965454 82.25181885 8.86965454 82.25181885 7.72045898 82.93115234 C6.03848943 83.88568204 6.03848943 83.88568204 5 85 C5.64437012 85.3623877 6.28874023 85.72477539 6.95263672 86.09814453 C9.92757609 87.77231363 12.90129189 89.44864494 15.875 91.125 C17.39480469 91.97964844 17.39480469 91.97964844 18.9453125 92.8515625 C24.67411384 96.08319403 30.34644184 99.37985181 35.94580078 102.83154297 C38.08445425 104.13602963 38.08445425 104.13602963 41 105 C41.27295898 104.28046143 41.54591797 103.56092285 41.82714844 102.81958008 C42.98060771 100.0466198 44.29738687 97.5052063 45.765625 94.88671875 C46.31959961 93.89679932 46.87357422 92.90687988 47.44433594 91.88696289 C48.04020508 90.83114014 48.63607422 89.77531738 49.25 88.6875 C49.86391602 87.59622803 50.47783203 86.50495605 51.11035156 85.38061523 C55.60689704 77.41222001 60.15611587 69.47519412 64.75 61.5625 C65.34586914 60.53278076 65.94173828 59.50306152 66.55566406 58.44213867 C67.10963867 57.49314697 67.66361328 56.54415527 68.234375 55.56640625 C68.96479004 54.31259155 68.96479004 54.31259155 69.70996094 53.03344727 C71 51 71 51 73 49 C73.33 49.66 73.66 50.32 74 51 C72.97460938 53.20117187 72.97460938 53.20117187 71.34375 55.96875 C70.43810303 57.52021729 70.43810303 57.52021729 69.51416016 59.10302734 C68.51715088 60.78452881 68.51715088 60.78452881 67.5 62.5 C66.8212078 63.65914428 66.14332188 64.81881973 65.46630859 65.97900391 C64.04615039 68.41047365 62.62202677 70.83954709 61.19433594 73.26660156 C58.3249496 78.14573941 55.46890142 83.03256339 52.62695312 87.92773438 C51.31030042 90.19494611 49.98881662 92.45936033 48.66210938 94.72070312 C48.06462891 95.74873047 47.46714844 96.77675781 46.8515625 97.8359375 C46.32385254 98.73876465 45.79614258 99.6415918 45.25244141 100.57177734 C44.12815997 102.75152454 43.45966542 104.60402014 43 107 C43.98097656 107.54527344 44.96195312 108.09054688 45.97265625 108.65234375 C55.42478776 113.92671803 64.75039012 119.37846986 74 125 C73.67 125.66 73.34 126.32 73 127 C69.1035218 124.7769872 65.20745813 122.55325011 61.31176758 120.32885742 C59.98798654 119.57312701 58.66409483 118.81759043 57.34008789 118.06225586 C55.43085675 116.97301041 53.5220321 115.88305557 51.61328125 114.79296875 C51.02662186 114.45847214 50.43996246 114.12397552 49.83552551 113.77934265 C46.53261838 111.89203077 43.25443264 109.96971804 40 108 C39.72994141 108.71446289 39.45988281 109.42892578 39.18164062 110.16503906 C37.988065 113.02863414 36.61173477 115.65468893 35.09375 118.359375 C34.51947266 119.38474365 33.94519531 120.4101123 33.35351562 121.46655273 C32.43602539 123.09185913 32.43602539 123.09185913 31.5 124.75 C30.87287109 125.86511963 30.24574219 126.98023926 29.59960938 128.12915039 C24.51045326 137.1527856 19.3132781 146.10680015 14 155 C13.38125 156.04027344 12.7625 157.08054688 12.125 158.15234375 C10.13842847 161.48080614 8.1504879 164.77426815 6 168 C6 163.68900712 6.63273768 162.38777946 8.7109375 158.73828125 C9.29149902 157.71001221 9.87206055 156.68174316 10.47021484 155.62231445 C11.09879395 154.53007568 11.72737305 153.43783691 12.375 152.3125 C13.01260254 151.18996826 13.65020508 150.06743652 14.30712891 148.91088867 C18.71205942 141.17762853 23.19112185 133.48863423 27.734375 125.8359375 C31.23324581 119.93499217 34.61479472 113.96666071 38 108 C35.60950592 105.34696041 33.07159697 103.76518039 29.95703125 102.0390625 C28.96509766 101.48476562 27.97316406 100.93046875 26.95117188 100.359375 C25.91541016 99.78703125 24.87964844 99.2146875 23.8125 98.625 C21.77636089 97.49395507 19.74118627 96.36117189 17.70703125 95.2265625 C16.8044458 94.72721191 15.90186035 94.22786133 14.97192383 93.71337891 C11.2574109 91.57188119 7.63588791 89.27242994 4 87 C3.67 114.06 3.34 141.12 3 169 C2.01 168.67 1.02 168.34 0 168 C0.33 141.27 0.66 114.54 1 87 C-16.67575031 96.70199202 -16.67575031 96.70199202 -34 107 C-30.45995358 114.46863452 -26.54684557 121.60870949 -22.32470703 128.70556641 C-18.50606191 135.12456063 -14.75122389 141.57920685 -11.01828003 148.04827881 C-10.01402727 149.78819705 -9.0081238 151.52716219 -8.00219727 153.26611328 C-7.38272217 154.33974121 -6.76324707 155.41336914 -6.125 156.51953125 C-5.57070312 157.47964111 -5.01640625 158.43975098 -4.4453125 159.42895508 C-3.22860237 161.59334265 -2.08408631 163.76703218 -1 166 C-1.66 166.66 -2.32 167.32 -3 168 C-3.35698975 167.26571777 -3.71397949 166.53143555 -4.08178711 165.77490234 C-7.63851374 158.54859196 -11.46398686 151.55618889 -15.5625 144.625 C-16.45799561 143.09818604 -16.45799561 143.09818604 -17.37158203 141.54052734 C-20.49414622 136.22306382 -23.64077166 130.92028372 -26.80078125 125.625 C-27.70171509 124.11172119 -27.70171509 124.11172119 -28.62084961 122.56787109 C-29.77238522 120.63598379 -30.92801932 118.7065324 -32.08813477 116.77978516 C-32.60303467 115.91659668 -33.11793457 115.0534082 -33.6484375 114.1640625 C-34.10395996 113.40561035 -34.55948242 112.6471582 -35.02880859 111.86572266 C-36 110 -36 110 -36 108 C-36.75619629 108.43868408 -37.51239258 108.87736816 -38.29150391 109.3293457 C-41.11978616 110.96895161 -43.94898692 112.60695 -46.77880859 114.24389648 C-47.99922791 114.95029365 -49.21928663 115.65731422 -50.43896484 116.36499023 C-52.20053276 117.38693008 -53.96342101 118.40655925 -55.7265625 119.42578125 C-56.78439941 120.03848877 -57.84223633 120.65119629 -58.93212891 121.2824707 C-61.91328186 122.95145137 -64.93181152 124.49807549 -68 126 C-66.72552963 122.17658889 -65.51972932 121.87972584 -62.046875 119.96875 C-61.03496094 119.40542969 -60.02304687 118.84210938 -58.98046875 118.26171875 C-57.91441406 117.68035156 -56.84835938 117.09898438 -55.75 116.5 C-53.66124442 115.34413648 -51.57269567 114.18789909 -49.484375 113.03125 C-48.08783691 112.26651367 -48.08783691 112.26651367 -46.66308594 111.48632812 C-44.07529287 110.04202264 -41.53263705 108.53861427 -39 107 C-39.67686029 103.51383846 -41.06987575 100.82250989 -42.80859375 97.73828125 C-43.38593262 96.71001221 -43.96327148 95.68174316 -44.55810547 94.62231445 C-45.48840576 92.9839563 -45.48840576 92.9839563 -46.4375 91.3125 C-47.38713623 89.62870239 -47.38713623 89.62870239 -48.35595703 87.91088867 C-52.7340037 80.1703559 -57.19544007 72.48296307 -61.734375 64.8359375 C-65.23324581 58.93499217 -68.61479472 52.96666071 -72 47 C-71.01 47 -70.02 47 -69 47 C-68.64921387 47.63164063 -68.29842773 48.26328125 -67.93701172 48.9140625 C-60.09582638 63.01651181 -52.12784003 77.0286607 -43.9609375 90.9453125 C-43.19668457 92.25097168 -43.19668457 92.25097168 -42.41699219 93.58300781 C-41.52114555 95.1110715 -40.62126921 96.63678614 -39.71582031 98.15917969 C-37 102.77916849 -37 102.77916849 -37 105 C-28.52344408 100.89862469 -20.35374807 96.41721645 -12.25 91.625 C-11.15945312 90.98433594 -10.06890625 90.34367187 -8.9453125 89.68359375 C-6.2948169 88.12584633 -3.64644061 86.56462294 -1 85 C-4.07546589 82.58206324 -7.26860771 80.62501149 -10.671875 78.69921875 C-11.79980469 78.05847412 -12.92773438 77.41772949 -14.08984375 76.75756836 C-14.68651855 76.42014618 -15.28319336 76.082724 -15.89794922 75.7350769 C-19.05520405 73.94923643 -22.20717687 72.15412148 -25.359375 70.359375 C-25.99991821 69.99488754 -26.64046143 69.63040009 -27.30041504 69.25486755 C-35.42427964 64.62709553 -43.49314574 59.90562292 -51.5625 55.18359375 C-52.44035156 54.6716748 -53.31820312 54.15975586 -54.22265625 53.63232422 C-56.23759925 52.44808469 -58.24439861 51.24995408 -60.24609375 50.04345703 C-61.85677734 49.08028564 -61.85677734 49.08028564 -63.5 48.09765625 C-64.4796875 47.50605713 -65.459375 46.91445801 -66.46875 46.30493164 C-68.96978254 44.7708893 -68.96978254 44.7708893 -72 45 C-71.34 43.68 -70.68 42.36 -70 41 C-69.33871094 41.47566406 -69.33871094 41.47566406 -68.6640625 41.9609375 C-62.70936687 46.09043907 -56.46599335 49.57143349 -50.12353516 53.05541992 C-45.03352776 55.85673262 -40.00069391 58.72941236 -35 61.6875 C-23.38368202 68.54435436 -11.68404718 75.25920355 0 82 C0 54.94 0 27.88 0 0 Z " transform="translate(77,5)" style="fill: #013868;"/><path d="M0 0 C4.38976842 2.63747403 7.05866962 5.58545881 8.625 10.5 C9.50087974 17.47832059 10.10749069 24.99939129 6.5 31.3125 C2.95087532 35.81334526 -1.14322147 37.43970432 -6.6875 38.375 C-12.9353072 38.89126063 -18.01579079 36.98732754 -23.25 33.6875 C-27.66975373 29.13775352 -28.79103169 24.73681634 -28.75 18.5 C-28.75773438 17.324375 -28.76546875 16.14875 -28.7734375 14.9375 C-28.14207655 9.49046437 -26.12211394 5.642937 -21.875 2.1875 C-21.2871875 1.69636719 -20.699375 1.20523438 -20.09375 0.69921875 C-14.59636346 -3.13645777 -5.9455087 -2.57072472 0 0 Z " transform="translate(596.375,134.5)" style="fill: #FFFFFF;"/><path d="M0 0 C4.23498768 3.13389088 6.46600581 6.33551742 8.125 11.3125 C8.125 14.6125 8.125 17.9125 8.125 21.3125 C-5.24 21.8075 -5.24 21.8075 -18.875 22.3125 C-14.61120316 27.58272632 -14.61120316 27.58272632 -10.25 27.8125 C-6.91781845 27.68710896 -6.91781845 27.68710896 -5.51953125 25.79296875 C-3.13213935 23.64374896 -1.33410235 24.01394345 1.8125 24.125 C3.30330078 24.16560547 3.30330078 24.16560547 4.82421875 24.20703125 C5.58347656 24.24183594 6.34273438 24.27664062 7.125 24.3125 C6.36798748 28.75067144 5.3655433 31.0719567 2.125 34.3125 C-3.65008311 37.73040633 -9.24946875 38.16924973 -15.875 37.3125 C-21.19278425 35.66398688 -24.90912144 33.1035346 -27.875 28.3125 C-30.67922177 22.14321211 -30.80800851 15.56728983 -28.8125 9.125 C-26.49019908 3.63692094 -22.25060385 0.52669752 -17.0625 -2.125 C-11.18809696 -3.16165936 -5.36483397 -2.75740929 0 0 Z " transform="translate(370.875,60.6875)" style="fill: #FFFFFF;"/><path d="M0 0 C2.99017253 2.99017253 3.95303889 5.75790382 4.11352539 10.00268555 C4.10828857 11.2019165 4.10305176 12.40114746 4.09765625 13.63671875 C4.09443359 14.93544922 4.09121094 16.23417969 4.08789062 17.57226562 C4.07953531 18.94401108 4.07107037 20.31575587 4.0625 21.6875 C4.05748335 23.07096195 4.05292073 24.45442563 4.04882812 25.83789062 C4.03702529 29.22530395 4.02056019 32.61263033 4 36 C0.7 36 -2.6 36 -6 36 C-6.33 35.34 -6.66 34.68 -7 34 C-7.804375 34.495 -8.60875 34.99 -9.4375 35.5 C-15.05724859 37.86620993 -19.74729619 37.86012327 -25.4375 35.6875 C-28 34 -28 34 -30 31 C-30.67205187 26.38941162 -30.60985388 22.30286964 -28.625 18.0625 C-24.77385365 15.0365993 -20.71033886 14.12485704 -16 13 C-15.19820312 12.79375 -14.39640625 12.5875 -13.5703125 12.375 C-11.71765872 11.90029868 -9.85938053 11.44762865 -8 11 C-8 9.68 -8 8.36 -8 7 C-11.66305234 6.25073929 -14.42355152 5.7619986 -18 7 C-18.33 8.65 -18.66 10.3 -19 12 C-22.3 12 -25.6 12 -29 12 C-29.32494469 7.34245939 -28.90547505 4.70698541 -26 1 C-18.16358778 -4.77419848 -8.50534318 -4.01452198 0 0 Z " transform="translate(265,210)" style="fill: #FFFFFF;"/><path d="M0 0 C4.54656808 3.32675713 8.14962533 7.35194448 9.5625 12.875 C9.5625 15.845 9.5625 18.815 9.5625 21.875 C-3.8025 22.37 -3.8025 22.37 -17.4375 22.875 C-15.88716997 26.88774233 -15.88716997 26.88774233 -13.1875 28.1875 C-9.88631348 29.01279663 -7.71034675 28.74775913 -4.4375 27.875 C-3.7775 27.215 -3.1175 26.555 -2.4375 25.875 C0.1640625 25.6796875 0.1640625 25.6796875 3.1875 25.75 C4.69183594 25.77707031 4.69183594 25.77707031 6.2265625 25.8046875 C6.99742187 25.82789063 7.76828125 25.85109375 8.5625 25.875 C7.90135045 30.80433021 6.38621953 32.57196399 2.58203125 35.578125 C-2.70338926 38.97224417 -8.21768202 39.31911247 -14.33203125 38.4140625 C-19.78318785 37.0184046 -23.39512555 33.43856167 -26.4375 28.875 C-29.00473823 23.22707589 -29.47899533 17.3879356 -27.71484375 11.4375 C-25.4486137 5.85908758 -22.83044275 2.91965545 -17.6484375 -0.203125 C-12.23594377 -2.45992451 -5.45331526 -1.78472136 0 0 Z " transform="translate(467.4375,134.125)" style="fill: #FFFFFF;"/><path d="M0 0 C4.69292271 2.49343194 7.52448021 5.96203313 10.05859375 10.5234375 C10.80859375 13.2734375 10.80859375 13.2734375 10.80859375 22.2734375 C-2.55640625 22.7684375 -2.55640625 22.7684375 -16.19140625 23.2734375 C-14.64107622 27.28617983 -14.64107622 27.28617983 -11.94140625 28.5859375 C-8.64021973 29.41123413 -6.464253 29.14619663 -3.19140625 28.2734375 C-2.53140625 27.6134375 -1.87140625 26.9534375 -1.19140625 26.2734375 C1.41015625 26.078125 1.41015625 26.078125 4.43359375 26.1484375 C5.93792969 26.17550781 5.93792969 26.17550781 7.47265625 26.203125 C8.24351562 26.22632813 9.014375 26.24953125 9.80859375 26.2734375 C8.76615556 30.7559217 7.30020844 33.43469524 3.5703125 36.234375 C-2.25350996 39.66926807 -8.72761125 39.92836089 -15.19140625 38.2734375 C-20.52649879 35.45489805 -23.94214971 32.02180189 -26.44140625 26.5234375 C-28.08385979 19.40613885 -27.7098093 13.8076146 -24.19140625 7.2734375 C-18.70132341 -1.05634336 -9.36102714 -3.10365606 0 0 Z " transform="translate(320.19140625,133.7265625)" style="fill: #FFFFFF;"/><path d="M0 0 C2.79685145 2.83080016 3.92326742 4.42322675 4.45410156 8.41333008 C4.4331543 9.68587646 4.41220703 10.95842285 4.390625 12.26953125 C4.38496521 12.95053391 4.37930542 13.63153656 4.37347412 14.33317566 C4.35120481 16.49368645 4.30103318 18.65249646 4.25 20.8125 C4.22992247 22.28317905 4.21167389 23.75388429 4.1953125 25.22460938 C4.15137326 28.8169525 4.08241456 32.40831006 4 36 C1.03 36 -1.94 36 -5 36 C-5.33 35.34 -5.66 34.68 -6 34 C-6.78375 34.495 -7.5675 34.99 -8.375 35.5 C-13.06155729 37.43926509 -16.99206779 37.73980817 -22 37 C-26.10626237 34.94686882 -28.33646735 33.25988734 -30 29 C-30.21808859 24.87085599 -29.71193637 21.1762427 -27.5625 17.625 C-23.64753298 15.14233799 -19.46730211 14.12682695 -15 13 C-14.19820313 12.79246094 -13.39640625 12.58492187 -12.5703125 12.37109375 C-10.71717035 11.8995647 -8.85907756 11.44755571 -7 11 C-6.67 9.68 -6.34 8.36 -6 7 C-10.70392312 6.04059813 -10.70392312 6.04059813 -15.375 6.6875 C-17.45015231 8.09403686 -17.45015231 8.09403686 -18 12 C-21.63 12 -25.26 12 -29 12 C-28.58781909 6.74469335 -27.93037356 3.62803713 -24 0 C-16.46865869 -4.15810196 -7.47118082 -4.5988571 0 0 Z " transform="translate(273,61)" style="fill: #FFFFFF;"/><path d="M0 0 C3.3 0 6.6 0 10 0 C12.13519748 5.64256392 14.18968953 11.30747337 16.1875 17 C16.46013672 17.77472656 16.73277344 18.54945312 17.01367188 19.34765625 C17.67651082 21.23151429 18.33836086 23.11572024 19 25 C19.3556604 23.91730835 19.3556604 23.91730835 19.71850586 22.81274414 C20.78840239 19.56163243 21.86288718 16.31205569 22.9375 13.0625 C23.31068359 11.92619141 23.68386719 10.78988281 24.06835938 9.61914062 C24.42607422 8.53955078 24.78378906 7.45996094 25.15234375 6.34765625 C25.48226318 5.34742432 25.81218262 4.34719238 26.15209961 3.31665039 C27 1 27 1 28 0 C31.33327842 -0.1424478 34.66453893 -0.04222103 38 0 C35.40563661 8.97409686 32.44187512 17.81621498 29.43920898 26.66015625 C28.85274397 28.39260429 28.27008456 30.12634507 27.69116211 31.86132812 C26.84560596 34.39489405 25.9885509 36.92430966 25.12890625 39.453125 C24.87460342 40.22199036 24.6203006 40.99085571 24.35829163 41.78302002 C22.49825428 47.19372476 20.32705346 52.01516029 15.875 55.8125 C10.83048075 57.89610578 5.21990985 58.73996995 0 57 C0 54.03 0 51.06 0 48 C1.0725 48.04125 2.145 48.0825 3.25 48.125 C6.6861482 48.01046173 8.25767552 47.9297839 11 46 C13.42689684 43.08213646 13.42689684 43.08213646 12.4765625 39.33984375 C10.6084437 31.93783533 7.91128691 24.75637557 5.375 17.5625 C4.60158054 15.3617657 3.82966569 13.16054268 3.06143188 10.95799255 C2.58608323 9.59576165 2.10765796 8.23459955 1.62582397 6.87464905 C0 2.22423489 0 2.22423489 0 0 Z " transform="translate(411,59)" style="fill: #FFFFFF;"/><path d="M0 0 C4.39873985 1.99942721 6.58661679 4.13720523 8.40893555 8.62133789 C9.76710718 14.08712319 9.29757574 19.84621677 9.1875 25.4375 C9.16719727 27.39333008 9.16719727 27.39333008 9.14648438 29.38867188 C9.11127334 32.59287622 9.06202094 35.79622105 9 39 C5.7 39 2.4 39 -1 39 C-1.01458252 38.26362305 -1.02916504 37.52724609 -1.04418945 36.76855469 C-1.11871111 33.42850996 -1.21535873 30.08946019 -1.3125 26.75 C-1.33505859 25.59113281 -1.35761719 24.43226563 -1.38085938 23.23828125 C-1.4340332 21.56572266 -1.4340332 21.56572266 -1.48828125 19.859375 C-1.51446533 18.83295898 -1.54064941 17.80654297 -1.56762695 16.74902344 C-2.05887022 13.62570376 -2.73843375 12.19622561 -5 10 C-8.62563814 9.66619186 -8.62563814 9.66619186 -12 10 C-15.20955284 16.13515061 -15.53139666 21.58233351 -15.6875 28.4375 C-15.72166016 29.45521484 -15.75582031 30.47292969 -15.79101562 31.52148438 C-15.87292766 34.01395045 -15.93815372 36.50695532 -16 39 C-19.3 39 -22.6 39 -26 39 C-26 26.46 -26 13.92 -26 1 C-22.7 1 -19.4 1 -16 1 C-15.67 1.66 -15.34 2.32 -15 3 C-14.38125 2.505 -13.7625 2.01 -13.125 1.5 C-8.69958713 -0.62419818 -4.8276596 -0.68082379 0 0 Z " transform="translate(249,133)" style="fill: #FFFFFF;"/><path d="M0 0 C4.20383623 1.95178111 7.20951101 4.20332769 9.578125 8.27734375 C10.328125 12.08984375 10.328125 12.08984375 10.578125 15.27734375 C7.278125 15.27734375 3.978125 15.27734375 0.578125 15.27734375 C-0.081875 13.62734375 -0.741875 11.97734375 -1.421875 10.27734375 C-2.83620706 10.05371005 -4.25355118 9.84907899 -5.671875 9.65234375 C-6.46078125 9.53632813 -7.2496875 9.4203125 -8.0625 9.30078125 C-10.7794283 9.2737919 -12.14501258 9.83433226 -14.421875 11.27734375 C-16.96782264 14.71437306 -16.78586964 18.12780487 -16.421875 22.27734375 C-14.67458722 26.0053784 -14.67458722 26.0053784 -11.421875 28.27734375 C-6.3660353 28.78735496 -6.3660353 28.78735496 -2.046875 26.46484375 C-0.25120628 24.28512546 -0.25120628 24.28512546 0.578125 21.27734375 C3.878125 21.27734375 7.178125 21.27734375 10.578125 21.27734375 C11.08469787 26.59635892 9.90422543 29.14219187 6.578125 33.27734375 C2.20857346 38.04412725 -3.19886822 38.83972021 -9.421875 39.27734375 C-15.00043484 38.98628845 -18.93059203 36.7779116 -22.9453125 32.96484375 C-27.36854908 27.90971623 -27.96869365 22.45729737 -27.7734375 15.99609375 C-27.06119913 10.48811702 -24.91508554 6.69589376 -20.921875 2.90234375 C-14.37157002 -1.35535449 -7.64438532 -2.28098594 0 0 Z " transform="translate(552.421875,133.72265625)" style="fill: #FFFFFF;"/><path d="M0 0 C3.25900019 1.45614902 5.71264424 3.25517308 8 6 C9.15927528 9.47782583 9.11313066 12.18803257 9.09765625 15.85546875 C9.0962413 16.51710526 9.09482635 17.17874176 9.09336853 17.86042786 C9.08777996 19.96949828 9.07522965 22.07846177 9.0625 24.1875 C9.05748352 25.61913909 9.05292087 27.05077985 9.04882812 28.48242188 C9.0378143 31.98831588 9.02055755 35.4941475 9 39 C6.03 39 3.06 39 0 39 C-0.01981934 38.36497559 -0.03963867 37.72995117 -0.06005859 37.07568359 C-0.15581122 34.17506674 -0.26528546 31.27512095 -0.375 28.375 C-0.4059375 27.37597656 -0.436875 26.37695312 -0.46875 25.34765625 C-0.7534173 17.98135416 -0.7534173 17.98135416 -3 11 C-5.82883747 9.58558126 -7.87376745 9.68099668 -11 10 C-14.09396369 13.08258381 -14.40279893 15.5897179 -14.51171875 19.859375 C-14.54716797 20.97441406 -14.58261719 22.08945313 -14.61914062 23.23828125 C-14.65297852 24.97658203 -14.65297852 24.97658203 -14.6875 26.75 C-14.72166016 27.92433594 -14.75582031 29.09867188 -14.79101562 30.30859375 C-14.87345173 33.20563389 -14.94261811 36.10237298 -15 39 C-18.3 39 -21.6 39 -25 39 C-25 26.46 -25 13.92 -25 1 C-21.7 1 -18.4 1 -15 1 C-14.67 1.66 -14.34 2.32 -14 3 C-13.44183594 2.51273438 -12.88367188 2.02546875 -12.30859375 1.5234375 C-8.45089346 -1.02225305 -4.46839493 -0.54404159 0 0 Z " transform="translate(509,133)" style="fill: #FFFFFF;"/><path d="M0 0 C4.23874857 0.52811394 7.26608915 1.43628115 10.921875 3.6328125 C11.85185303 4.18420898 12.78183105 4.73560547 13.73999023 5.30371094 C14.73329346 5.90473633 15.72659668 6.50576172 16.75 7.125 C18.90185315 8.40447129 21.05421498 9.68308739 23.20703125 10.9609375 C24.32158691 11.62577148 25.43614258 12.29060547 26.58447266 12.97558594 C33.25921267 16.93176494 39.99660466 20.78016587 46.73022461 24.63500977 C51.6114394 27.43682483 56.46537938 30.26130948 61.2421875 33.23828125 C62.02408447 33.72006836 62.80598145 34.20185547 63.61157227 34.69824219 C65.03066992 35.57787809 66.44088541 36.47208952 67.83959961 37.38378906 C69.88426182 38.70179285 69.88426182 38.70179285 73 40 C76.46466509 38.92443282 79.52858409 37.2382279 82.67578125 35.453125 C84.0230127 34.69104736 84.0230127 34.69104736 85.39746094 33.91357422 C86.84040527 33.09010498 86.84040527 33.09010498 88.3125 32.25 C89.3221582 31.67652832 90.33181641 31.10305664 91.37207031 30.51220703 C98.69079415 26.34444349 105.9765726 22.12121386 113.25 17.875 C114.73608765 17.00911255 114.73608765 17.00911255 116.25219727 16.12573242 C121.05089471 13.32534039 125.83474011 10.50408962 130.59375 7.63671875 C131.46612305 7.11674316 132.33849609 6.59676758 133.23730469 6.06103516 C134.86909553 5.08785869 136.4951507 4.10497562 138.11425781 3.11083984 C138.83452148 2.68367676 139.55478516 2.25651367 140.296875 1.81640625 C140.91916992 1.43943604 141.54146484 1.06246582 142.18261719 0.67407227 C144.47784492 -0.17723399 145.72593487 0.2111091 148 1 C147.42258057 1.31114746 146.84516113 1.62229492 146.25024414 1.94287109 C136.00454949 7.47313116 125.78657827 13.02644842 115.78222656 18.984375 C107.87717152 23.68932037 99.89158485 28.25486262 91.90722656 32.82348633 C86.82929047 35.74034551 81.80569256 38.65032288 77 42 C91.57076621 50.52113666 106.16776395 58.994506 120.79296875 67.421875 C129.20301633 72.26794437 137.60195013 77.13317833 146 82 C145.67 82.66 145.34 83.32 145 84 C135.08868326 78.56879865 125.2545747 73.02086941 115.5 67.3125 C114.01258301 66.44274536 114.01258301 66.44274536 112.49511719 65.55541992 C108.74613775 63.36255882 104.99733028 61.16940331 101.24926758 58.97497559 C97.66481704 56.87693314 94.07737402 54.78416005 90.48608398 52.69784546 C88.78096598 51.70552121 87.07892816 50.70791033 85.37695312 49.71020508 C84.33990234 49.10845459 83.30285156 48.5067041 82.234375 47.88671875 C80.86104004 47.08560669 80.86104004 47.08560669 79.45996094 46.26831055 C76.36514243 44.64931302 76.36514243 44.64931302 73 44 C70.52528044 44.94464227 70.52528044 44.94464227 68 46.5 C67.03521729 47.05469971 66.07043457 47.60939941 65.07641602 48.1809082 C64.06119873 48.7812085 63.04598145 49.38150879 62 50 C60.96866943 50.59707764 59.93733887 51.19415527 58.87475586 51.80932617 C55.90993555 53.52858077 52.95438497 55.26289478 50 57 C48.60621953 57.8098872 47.21181023 58.61869452 45.81640625 59.42578125 C43.20461519 60.94018111 40.59863234 62.46317442 38 64 C39.36472823 67.63260345 40.9980116 70.90961407 42.94921875 74.26171875 C43.54331543 75.28652344 44.13741211 76.31132812 44.74951172 77.3671875 C45.38904785 78.46289062 46.02858398 79.55859375 46.6875 80.6875 C47.69228558 82.41885315 48.69706591 84.15020938 49.70153809 85.88174438 C50.7513431 87.69047325 51.80256981 89.49837008 52.85400391 91.30615234 C56.04058486 96.78768211 59.20939301 102.27947025 62.37759399 107.77163696 C63.36381542 109.48061871 64.35121257 111.18892178 65.33862305 112.8972168 C65.93586182 113.93144775 66.53310059 114.96567871 67.1484375 116.03125 C67.94000244 117.40120117 67.94000244 117.40120117 68.74755859 118.79882812 C69.53336511 120.17988691 70.28939248 121.57878495 71 123 C70.34 123.66 69.68 124.32 69 125 C68.68289062 124.41476562 68.36578125 123.82953125 68.0390625 123.2265625 C66.36554129 120.14765331 64.68403805 117.07316406 63 114 C62.65678711 113.37270996 62.31357422 112.74541992 61.95996094 112.09912109 C54.05663184 97.68031292 46.04284073 83.24226059 37.31225586 69.3059082 C36 67 36 67 36 65 C33.47862981 66.47825743 30.95786866 67.95753649 28.4375 69.4375 C27.29559204 70.10724854 27.29559204 70.10724854 26.13061523 70.79052734 C22.27205756 73.05810438 18.42433803 75.34049658 14.6015625 77.66796875 C13.92037354 78.08183838 13.23918457 78.49570801 12.53735352 78.92211914 C11.23868159 79.71313862 9.94221981 80.50780013 8.64819336 81.30639648 C4.22076204 84 4.22076204 84 2 84 C2 83.34 2 82.68 2 82 C2.83249268 81.52578613 3.66498535 81.05157227 4.52270508 80.56298828 C7.61512884 78.80106568 10.70673406 77.03771113 13.7980957 75.27392578 C15.13543824 74.51116563 16.47300159 73.7487925 17.81079102 72.98681641 C19.73512204 71.89066944 21.65865121 70.79312707 23.58203125 69.6953125 C24.17901321 69.3556546 24.77599518 69.0159967 25.3910675 68.66604614 C27.98893265 67.18165182 30.50877862 65.66081425 33 64 C31.7423893 59.89102713 30.22023808 56.34593014 28.05078125 52.640625 C27.456604 51.61888184 26.86242676 50.59713867 26.25024414 49.54443359 C25.61078857 48.45727051 24.97133301 47.37010742 24.3125 46.25 C23.30868668 44.52752381 22.30488274 42.80504209 21.30162048 41.08224487 C20.25282424 39.282724 19.20170476 37.48457425 18.15039062 35.68652344 C14.93281303 30.17764058 11.75145736 24.64784811 8.56747437 19.11950684 C6.96434515 16.33667976 5.35903348 13.55511244 3.75390625 10.7734375 C2.8359375 9.18229167 1.91796875 7.59114583 1 6 C1.99 6 2.98 6 4 6 C4.55945313 7.0209375 5.11890625 8.041875 5.6953125 9.09375 C11.85713173 20.28610673 18.24615864 31.33511218 24.703125 42.359375 C28.51961027 48.87756461 32.27498032 55.42915784 36 62 C47.89833699 55.79970212 59.82655706 49.44896196 71 42 C62.33413 36.59440645 53.57653398 31.40762697 44.6875 26.375 C42.24121652 24.98607854 39.79609431 23.5951269 37.3515625 22.203125 C36.74029007 21.85512848 36.12901764 21.50713196 35.4992218 21.14859009 C28.14129253 16.95168801 20.83938671 12.65860369 13.55151367 8.34130859 C12.62830322 7.79812988 11.70509277 7.25495117 10.75390625 6.6953125 C9.95283447 6.22109863 9.1517627 5.74688477 8.32641602 5.25830078 C5.98277329 3.92507332 5.98277329 3.92507332 3.26538086 2.95654297 C1 2 1 2 0 0 Z " transform="translate(5,157)" style="fill: #063763;"/><path d="M0 0 C3.3 0 6.6 0 10 0 C10 15.84 10 31.68 10 48 C15.61 48 21.22 48 27 48 C27 50.97 27 53.94 27 57 C18.09 57 9.18 57 0 57 C0 38.19 0 19.38 0 0 Z " transform="translate(204,189)" style="fill: #FFFFFF;"/><path d="M0 0 C3.3 0 6.6 0 10 0 C10 3.63 10 7.26 10 11 C13.3 11 16.6 11 20 11 C20 13.97 20 16.94 20 20 C16.7 20 13.4 20 10 20 C10.11358476 22.95918198 10.24033086 25.91676783 10.375 28.875 C10.4059375 29.71675781 10.436875 30.55851562 10.46875 31.42578125 C10.50742187 32.23144531 10.54609375 33.03710938 10.5859375 33.8671875 C10.63306885 34.98262939 10.63306885 34.98262939 10.68115234 36.12060547 C10.85419551 38.24010974 10.85419551 38.24010974 13 40 C16.58343976 40.16677282 16.58343976 40.16677282 20 40 C20.02689216 41.47906892 20.04634621 42.95827483 20.0625 44.4375 C20.07410156 45.26121094 20.08570313 46.08492187 20.09765625 46.93359375 C20 49 20 49 19 50 C13.73019122 50.54762919 9.29586458 50.59109612 4.4375 48.375 C0.44059001 44.48057488 -0.11245085 40.45302906 -0.1953125 35.0390625 C-0.18213884 33.23427089 -0.15846488 31.42952941 -0.125 29.625 C-0.11597656 28.69816406 -0.10695313 27.77132812 -0.09765625 26.81640625 C-0.07422937 24.54399923 -0.04142748 22.2721382 0 20 C-1.98 20 -3.96 20 -6 20 C-6 17.03 -6 14.06 -6 11 C-4.02 11 -2.04 11 0 11 C0 7.37 0 3.74 0 0 Z " transform="translate(317,48)" style="fill: #FFFFFF;"/><path d="M0 0 C3.3 0 6.6 0 10 0 C10 3.63 10 7.26 10 11 C13.3 11 16.6 11 20 11 C20 13.97 20 16.94 20 20 C16.7 20 13.4 20 10 20 C10.33 26.6 10.66 33.2 11 40 C13.97 40 16.94 40 20 40 C20.09765625 46.93359375 20.09765625 46.93359375 20 49 C18.29207001 50.70792999 16.14456519 50.25270346 13.8125 50.3125 C8.73863167 50.25319505 5.75719457 49.66085625 2 46 C-0.46481294 40.61610825 -0.23240787 35.41676262 -0.125 29.625 C-0.11597656 28.69816406 -0.10695313 27.77132812 -0.09765625 26.81640625 C-0.07422937 24.54399923 -0.04142748 22.2721382 0 20 C-1.98 20 -3.96 20 -6 20 C-6 17.03 -6 14.06 -6 11 C-4.02 11 -2.04 11 0 11 C0 7.37 0 3.74 0 0 Z " transform="translate(288,48)" style="fill: #FFFFFF;"/><path d="M0 0 C3.3 0 6.6 0 10 0 C10 3.96 10 7.92 10 12 C13.3 12 16.6 12 20 12 C20 14.64 20 17.28 20 20 C16.7 20 13.4 20 10 20 C10.14046255 22.95867918 10.28712224 25.91682264 10.4375 28.875 C10.47681641 29.71675781 10.51613281 30.55851562 10.55664062 31.42578125 C10.59853516 32.23144531 10.64042969 33.03710938 10.68359375 33.8671875 C10.72025146 34.61081543 10.75690918 35.35444336 10.79467773 36.12060547 C10.89955865 38.08864312 10.89955865 38.08864312 12 40 C13.89533342 40.46523063 13.89533342 40.46523063 16.0625 40.625 C18.0115625 40.810625 18.0115625 40.810625 20 41 C20 43.97 20 46.94 20 50 C14.38227732 50.98556538 10.40841577 51.2881759 5 49 C1.03301183 44.9286174 -0.1315393 41.70398476 -0.09765625 36.11328125 C-0.09443359 35.17548828 -0.09121094 34.23769531 -0.08789062 33.27148438 C-0.07951172 32.29501953 -0.07113281 31.31855469 -0.0625 30.3125 C-0.05798828 29.32443359 -0.05347656 28.33636719 -0.04882812 27.31835938 C-0.03704303 24.87884526 -0.02059011 22.43945311 0 20 C-1.98 20 -3.96 20 -6 20 C-6 17.36 -6 14.72 -6 12 C-4.02 12 -2.04 12 0 12 C0 8.04 0 4.08 0 0 Z " transform="translate(269,122)" style="fill: #FFFFFF;"/><path d="M0 0 C3.3 0 6.6 0 10 0 C10 18.81 10 37.62 10 57 C6.7 57 3.4 57 0 57 C0 38.19 0 19.38 0 0 Z " transform="translate(357,115)" style="fill: #FFFFFF;"/><path d="M0 0 C3.3 0 6.6 0 10 0 C10 18.81 10 37.62 10 57 C6.7 57 3.4 57 0 57 C0 38.19 0 19.38 0 0 Z " transform="translate(338,115)" style="fill: #FFFFFF;"/><path d="M0 0 C3.3 0 6.6 0 10 0 C10 18.81 10 37.62 10 57 C6.7 57 3.4 57 0 57 C0 38.19 0 19.38 0 0 Z " transform="translate(204,115)" style="fill: #FFFFFF;"/><path d="M0 0 C0 3.63 0 7.26 0 11 C-2.21354167 11.13020833 -4.42708333 11.26041667 -6.640625 11.390625 C-9.79381546 12.20502518 -10.94323061 13.49703064 -13 16 C-13.63529648 18.59415665 -13.63529648 18.59415665 -13.609375 21.421875 C-13.64160156 22.44667969 -13.67382812 23.47148438 -13.70703125 24.52734375 C-13.72830078 26.12255859 -13.72830078 26.12255859 -13.75 27.75 C-13.77964844 28.82894531 -13.80929687 29.90789062 -13.83984375 31.01953125 C-13.91045671 33.67928595 -13.95750236 36.33964754 -14 39 C-17.3 39 -20.6 39 -24 39 C-24 26.46 -24 13.92 -24 1 C-20.7 1 -17.4 1 -14 1 C-13.67 1.99 -13.34 2.98 -13 4 C-12.13375 3.2884375 -12.13375 3.2884375 -11.25 2.5625 C-7.34099865 -0.15208427 -4.84618818 0 0 0 Z " transform="translate(410,58)" style="fill: #FFFFFF;"/><path d="M0 0 C3.3 0 6.6 0 10 0 C10 12.54 10 25.08 10 38 C6.7 38 3.4 38 0 38 C0 25.46 0 12.92 0 0 Z " transform="translate(377,134)" style="fill: #FFFFFF;"/><path d="M0 0 C2.92613769 2.25087515 4.76162247 4.26665481 5.2734375 7.98828125 C5.46237163 12.31196605 5.44681057 14.3692086 2.875 18 C-0.32797296 20.22815511 -2.10426834 21 -6 21 C-9.37602748 19.66529146 -10.78264145 18.29448577 -12.9375 15.375 C-14.38455419 10.77847493 -13.74942841 7.4388482 -12 3 C-9.00080664 -0.80666849 -4.52797665 -0.86468548 0 0 Z " transform="translate(301,217)" style="fill: #000000;"/><path d="M0 0 C2.69990662 1.79993774 4.5418865 3.083773 6 6 C6.55512815 10.63213493 6.6364242 13.98172127 4.125 18 C1.39737017 20.56718101 0.4581425 20.94813481 -3.3125 21.375 C-7 21 -7 21 -9.875 18.9375 C-12.43175566 15.40316129 -13 13.35173775 -13 9 C-10.56517196 2.33626011 -7.32140668 -1.04591524 0 0 Z " transform="translate(416,142)" style="fill: #000000;"/><path d="M0 0 C9.18762089 -0.48355899 9.18762089 -0.48355899 12.625 1.5625 C14.51161444 4.90695287 14.4055137 7.21520543 14 11 C12.98263229 13.76142665 12.63829259 14.68085371 10 16 C8.29297265 16.06996014 6.58331997 16.08440154 4.875 16.0625 C3.26625 16.041875 1.6575 16.02125 0 16 C0 10.72 0 5.44 0 0 Z " transform="translate(214,72)" style="fill: #000000;"/><path d="M0 0 C1.60875 -0.04125 3.2175 -0.0825 4.875 -0.125 C5.77992188 -0.14820313 6.68484375 -0.17140625 7.6171875 -0.1953125 C10 0 10 0 12 2 C12.67605634 9.09859155 12.67605634 9.09859155 10.5 12 C6.87920862 13.44831655 3.88716564 13.19435828 0 13 C0 8.71 0 4.42 0 0 Z " transform="translate(214,50)" style="fill: #000000;"/><path d="M0 0 C8.91 0 17.82 0 27 0 C27 1.32 27 2.64 27 4 C23.04 4 19.08 4 15 4 C15 4.66 15 5.32 15 6 C12.27387255 7.85376666 10.86376511 7.99513447 7.5 7.875 C3.7099997 6.92749993 2.29150438 6.11644596 0 3 C0 2.01 0 1.02 0 0 Z " transform="translate(578,156)" style="fill: #000000;"/><path d="M0 0 C1.65 1.65 3.3 3.3 5 5 C6.57074537 6.15121401 8.17355844 7.26064198 9.8125 8.3125 C10.60269531 8.82425781 11.39289062 9.33601562 12.20703125 9.86328125 C12.79871094 10.23839844 13.39039063 10.61351562 14 11 C11.36263997 13.17194355 8.72887889 15.17893993 5.875 17.0625 C2.82220047 18.98658868 2.82220047 18.98658868 0 22 C0 14.74 0 7.48 0 0 Z " transform="translate(0,133)" style="fill: #000000;"/><path d="M0 0 C1.9375 1.625 1.9375 1.625 3 4 C2.77962372 7.67293796 2.63033454 9.36966546 0 12 C-4.05261287 12.34490322 -5.54754176 12.30163882 -9 10 C-9.3984375 8.125 -9.3984375 8.125 -9.375 6 C-9.38273437 5.29875 -9.39046875 4.5975 -9.3984375 3.875 C-8.40521845 -0.79897199 -3.83502738 -0.47937842 0 0 Z " transform="translate(385,115)" style="fill: #FFFFFF;"/><path d="M0 0 C3 2.375 3 2.375 5 5 C5 5.66 5 6.32 5 7 C-0.94 7 -6.88 7 -13 7 C-10.3169832 0.29245801 -7.04812049 -1.38494196 0 0 Z " transform="translate(316,142)" style="fill: #000000;"/><path d="M0 0 C3.59826806 0.07209645 4.16348191 0.41848568 7.1875 2.8125 C9.1875 5.4375 9.1875 5.4375 9.1875 7.4375 C3.2475 7.4375 -2.6925 7.4375 -8.8125 7.4375 C-4.67165493 0.53609155 -4.67165493 0.53609155 0 0 Z " transform="translate(457.8125,141.5625)" style="fill: #000000;"/><path d="M0 0 C2.9375 1.8125 2.9375 1.8125 5 4 C5 4.99 5 5.98 5 7 C-0.61 7 -6.22 7 -12 7 C-9.26996468 0.17491171 -7.09413829 -0.73387638 0 0 Z " transform="translate(590,142)" style="fill: #000000;"/><path d="M0 0 C4 4.1025641 4 4.1025641 4 6 C-1.61 6 -7.22 6 -13 6 C-12 2 -12 2 -9.875 0.1875 C-6.05808885 -1.38905026 -3.9466722 -1.14812282 0 0 Z " transform="translate(365,68)" style="fill: #000000;"/><path d="M0 0 C-0.5625 2.3125 -0.5625 2.3125 -2 5 C-5.63359799 7.12531203 -7.70684936 8.30923168 -11.875 7.3125 C-14 6 -14 6 -15 4 C-12.63613154 0.74968087 -9.74303696 0.17741981 -6.03515625 -0.765625 C-3.76732882 -1.02679515 -2.16439531 -0.67788667 0 0 Z " transform="translate(268,82)" style="fill: #000000;"/><path d="M0 0 C-0.32477716 3.00418869 -0.57970965 4.57970965 -2.75 6.75 C-5.27497519 8.152764 -7.11689085 8.78376681 -10 9 C-12.3125 8.0625 -12.3125 8.0625 -14 7 C-13.8125 5.125 -13.8125 5.125 -13 3 C-8.89427786 0.83309109 -4.61534648 0 0 0 Z " transform="translate(259,230)" style="fill: #000000;"/><path d="M0 0 C2.64 0.66 5.28 1.32 8 2 C8 2.99 8 3.98 8 5 C6.68 5 5.36 5 4 5 C1.75 2.5 1.75 2.5 0 0 Z " transform="translate(73,86)" style="fill: #00254F;"/></svg>