<svg xmlns="http://www.w3.org/2000/svg" width="605" height="288" viewBox="0 0 605 288" version="1.1"><path d="M 204 68.500 L 204 97 215.750 96.996 C 225.632 96.993, 228.008 96.683, 230.696 95.044 C 235.274 92.253, 237.108 88.895, 237.716 82.198 C 238.306 75.685, 236.278 69.754, 232.829 67.908 C 230.993 66.926, 231.017 66.768, 233.459 63.866 C 235.556 61.374, 236 59.809, 236 54.909 C 236 49.592, 235.657 48.596, 232.720 45.391 C 228.880 41.201, 224.701 40.109, 212.250 40.044 L 204 40 204 68.500 M 288 53.500 C 288 58.944, 287.970 59, 285 59 C 282.111 59, 282 59.167, 282 63.500 C 282 67.833, 282.111 68, 285 68 L 288 68 288.006 77.250 C 288.009 82.338, 288.486 88.211, 289.067 90.302 C 290.381 95.036, 294.837 97.991, 300.668 97.996 C 307.152 98.002, 308 97.362, 308 92.456 L 308 88.126 304.674 88.665 C 299.202 89.554, 298 87.441, 298 76.929 L 298 68 303 68 L 308 68 308 63.500 L 308 59 303 59 L 298 59 298 53.500 L 298 48 293 48 L 288 48 288 53.500 M 317 53.500 C 317 58.944, 316.970 59, 314 59 C 311.111 59, 311 59.167, 311 63.500 C 311 67.796, 311.131 68, 313.892 68 L 316.784 68 317.168 79.250 C 317.680 94.280, 320.219 98, 329.965 98 C 336.133 98, 337 97.317, 337 92.456 L 337 88.126 333.674 88.665 C 328.202 89.554, 327 87.441, 327 76.929 L 327 68 332 68 L 337 68 337 63.500 L 337 59 332 59 L 327 59 327 53.500 L 327 48 322 48 L 317 48 317 53.500 M 214 56.500 L 214 63 217.777 63 C 223.271 63, 226 60.724, 226 56.143 C 226 51.212, 224.579 50, 218.800 50 L 214 50 214 56.500 M 255.123 59.002 C 253.265 59.441, 250.565 60.675, 249.123 61.745 C 246.474 63.710, 243.517 70.409, 244.555 72.090 C 244.865 72.590, 247.128 73, 249.584 73 C 253.436 73, 254.181 72.654, 255.007 70.482 C 256.972 65.314, 266.500 64.964, 266.500 70.059 C 266.500 72.703, 265.310 73.255, 255.740 75.060 C 245.413 77.007, 240.684 83.919, 244.378 91.667 C 247.520 98.256, 259.966 100.199, 265.533 94.969 L 268 92.651 268 94.826 C 268 96.736, 268.546 97, 272.500 97 L 277 97 277 81.423 L 277 65.846 274.171 63.017 C 269.798 58.644, 262.846 57.179, 255.123 59.002 M 353.500 59.502 C 346.406 62.011, 341.011 70.001, 341.011 78 C 341.011 85.476, 346.352 93.996, 352.702 96.649 C 356.845 98.380, 364.155 98.380, 368.298 96.649 C 371.895 95.146, 378 88.738, 378 86.465 C 378 84.064, 368.514 84.486, 366 87 C 362.797 90.203, 357.496 89.666, 353.673 85.750 L 350.500 82.500 364.750 82.223 L 379 81.945 379 78.339 C 379 69.242, 373.365 61.306, 365.321 59.072 C 360.391 57.703, 358.381 57.776, 353.500 59.502 M 400.669 60.364 C 396.292 62.580, 396 62.611, 396 60.864 C 396 59.294, 395.212 59, 391 59 L 386 59 386 78 L 386 97 391 97 L 396 97 396 85.455 C 396 74.530, 396.132 73.777, 398.455 71.455 C 400.341 69.568, 401.962 69, 405.455 69 L 410 69 410 63.500 C 410 58.407, 409.828 58, 407.669 58 C 406.388 58, 403.238 59.064, 400.669 60.364 M 411 59.355 C 411 59.551, 414.175 68.880, 418.055 80.087 C 425.676 102.099, 425.773 103.137, 420.550 106.559 C 418.754 107.736, 416.982 108.032, 414.504 107.567 L 411 106.909 411 111.343 C 411 115.616, 411.127 115.801, 414.485 116.431 C 421.705 117.786, 428.533 113.973, 432.273 106.500 C 433.099 104.850, 437.194 93.464, 441.373 81.198 L 448.972 58.896 443.778 59.198 L 438.585 59.500 434.542 72.226 C 432.319 79.225, 430.262 84.963, 429.971 84.976 C 429.680 84.989, 427.512 79.150, 425.152 72 L 420.862 59 415.931 59 C 413.219 59, 411 59.160, 411 59.355 M 353.673 70.250 L 350.500 73.500 359.376 73.791 C 364.258 73.951, 368.451 73.882, 368.695 73.638 C 369.529 72.804, 366.611 69.144, 364.257 68.071 C 360.123 66.188, 357.014 66.828, 353.673 70.250 M 214 80 L 214 88 219 88 C 225.400 88, 228 85.689, 228 80 C 228 74.311, 225.400 72, 219 72 L 214 72 214 80 M 259.637 82.442 C 254.662 83.778, 252.817 85.359, 253.662 87.561 C 254.407 89.503, 257.893 89.985, 261.798 88.686 C 264.344 87.840, 265.744 86.569, 266.686 84.250 C 268.237 80.431, 267.665 80.285, 259.637 82.442 M 204 143.500 L 204 172 209 172 L 214 172 214 143.500 L 214 115 209 115 L 204 115 204 143.500 M 338 143.500 L 338 172 343 172 L 348 172 348 143.500 L 348 115 343 115 L 338 115 338 143.500 M 357 143.500 L 357 172 362 172 L 367 172 367 143.500 L 367 115 362 115 L 357 115 357 143.500 M 377.571 116.571 C 373.994 120.149, 376.622 127, 381.571 127 C 384.513 127, 388 123.745, 388 121 C 388 116.218, 380.928 113.215, 377.571 116.571 M 269.667 122.667 C 269.300 123.033, 269 125.733, 269 128.667 C 269 133.926, 268.958 134, 266 134 C 263.167 134, 263 134.222, 263 138 C 263 141.778, 263.167 142, 266 142 L 269 142 269.006 151.250 C 269.012 161.709, 270.134 166.906, 272.932 169.439 C 275.398 171.671, 281.276 172.992, 285.609 172.289 C 288.862 171.761, 289 171.561, 289 167.369 L 289 163 285.035 163 C 279.816 163, 279 161.319, 279 150.566 L 279 142 284 142 L 289 142 289 138 L 289 134 284 134 L 279 134 279 128 L 279 122 274.667 122 C 272.283 122, 270.033 122.300, 269.667 122.667 M 236.973 134.692 C 235.613 135.623, 234.169 136.860, 233.765 137.442 C 233.356 138.032, 233.024 137.505, 233.015 136.250 C 233.001 134.219, 232.514 134, 228 134 L 223 134 223 153 L 223 172 227.900 172 L 232.799 172 233.150 159.104 C 233.546 144.528, 234.625 141.987, 240.405 142.015 C 246.835 142.047, 248 144.796, 248 159.934 L 248 172 253 172 L 258 172 258 158.520 C 258 142.868, 256.723 138.228, 251.531 135.019 C 247.480 132.515, 240.386 132.356, 236.973 134.692 M 303.240 135.110 C 287.652 142.826, 290.617 168.185, 307.532 171.808 C 313.067 172.993, 319.809 171.991, 323.798 169.390 C 325.971 167.973, 329.988 162.373, 329.996 160.750 C 329.998 160.338, 327.708 160, 324.908 160 C 321.330 160, 319.059 160.595, 317.273 162 C 314.232 164.392, 311.897 164.515, 307.980 162.490 C 305.427 161.169, 303 158.282, 303 156.566 C 303 156.255, 309.300 156, 317 156 L 331 156 331 151.968 C 331 147.531, 328.870 141.619, 326.212 138.680 C 321.062 132.986, 310.765 131.385, 303.240 135.110 M 402.479 135.430 C 390.777 142.445, 390.499 162.008, 401.993 169.614 C 406.756 172.766, 413.858 173.204, 418.750 170.647 L 422 168.949 422 171.927 C 422 178.024, 418.320 182, 412.675 182 C 409.714 182, 406.091 179.370, 404.962 176.399 C 404.165 174.305, 403.409 174, 399.006 174 C 394.017 174, 393.969 174.030, 394.593 176.750 C 397.121 187.761, 409.923 193.984, 420.746 189.462 C 425.496 187.477, 427.767 185.373, 430.106 180.790 C 431.791 177.489, 432 174.703, 432 155.540 L 432 134 427.083 134 C 424.379 134, 422.008 134.477, 421.813 135.060 C 421.585 135.744, 420.403 135.569, 418.480 134.566 C 413.994 132.227, 407.210 132.593, 402.479 135.430 M 449.223 135.119 C 438.053 140.648, 435.823 157.823, 445.075 167.075 C 451.116 173.116, 462.455 174.178, 469.798 169.390 C 471.971 167.973, 475.988 162.373, 475.996 160.750 C 475.998 160.338, 473.708 160, 470.908 160 C 467.330 160, 465.059 160.595, 463.273 162 C 461.874 163.100, 459.778 163.998, 458.615 163.996 C 455.557 163.991, 450.378 160.552, 449.737 158.102 C 449.198 156.040, 449.455 156, 463.094 156 L 477 156 477 151.968 C 477 147.531, 474.870 141.619, 472.212 138.680 C 467.057 132.979, 456.766 131.385, 449.223 135.119 M 499 133.709 C 498.175 134.013, 496.712 134.947, 495.750 135.785 C 494.174 137.158, 494 137.145, 494 135.655 C 494 134.336, 492.986 134, 489 134 L 484 134 484 153 L 484 172 489 172 L 494 172 494 159.934 C 494 144.716, 495.151 142.047, 501.727 142.015 C 507.131 141.990, 508.438 145.234, 508.853 159.705 L 509.206 172 513.603 172 L 518 172 517.996 157.250 C 517.992 140.817, 517.018 137.612, 511.094 134.549 C 508.169 133.036, 501.997 132.608, 499 133.709 M 535.316 134.943 C 524.552 139.831, 521.560 156.382, 529.694 166.048 C 532.778 169.714, 535.291 171.122, 540.500 172.105 C 551.188 174.121, 563 166.480, 563 157.550 C 563 155.157, 562.693 155, 558 155 C 554.157 155, 553 155.358, 553 156.545 C 553 159.605, 548.337 163, 544.134 163 C 540.910 163, 539.679 162.407, 537.481 159.795 C 535.135 157.007, 534.847 155.943, 535.264 151.604 C 535.631 147.787, 536.373 146.076, 538.427 144.309 C 542.743 140.597, 550.016 141.746, 552.173 146.480 C 553.176 148.681, 553.950 149, 558.286 149 L 563.250 149 562.633 145.916 C 560.536 135.431, 546.585 129.827, 535.316 134.943 M 578.500 134.417 C 574.773 136.081, 570.469 140.596, 569.064 144.315 C 568.479 145.863, 568 149.659, 568 152.749 C 568 164.718, 575.436 172.375, 586.956 172.266 C 590.109 172.237, 594.055 171.506, 595.725 170.642 C 599.224 168.833, 604 163.512, 604 161.423 C 604 159.471, 594.699 159.453, 593.081 161.402 C 589.224 166.050, 578 162.823, 578 157.066 C 578 156.364, 582.611 156, 591.500 156 L 605 156 605 151.565 C 605 140.453, 597.417 132.948, 586.282 133.039 C 583.652 133.061, 580.150 133.681, 578.500 134.417 M 377 153 L 377 172 382 172 L 387 172 387 153 L 387 134 382 134 L 377 134 377 153 M 307.229 142.669 C 306.530 142.951, 305.281 144.490, 304.453 146.090 L 302.949 149 311.974 149 C 317.586 149, 321 148.605, 321 147.955 C 321 147.380, 319.895 145.805, 318.545 144.455 C 316.173 142.082, 310.796 141.234, 307.229 142.669 M 407.189 144.494 C 403.481 147.615, 402.391 152.607, 404.380 157.367 C 406.074 161.422, 408.574 163.012, 413.184 162.968 C 418.879 162.914, 422 159.026, 422 151.989 C 422 148.743, 421.367 147.213, 419.077 144.923 C 415.388 141.234, 411.241 141.085, 407.189 144.494 M 453.229 142.669 C 452.530 142.951, 451.281 144.490, 450.453 146.090 L 448.949 149 457.974 149 C 463.586 149, 467 148.605, 467 147.955 C 467 147.380, 465.895 145.805, 464.545 144.455 C 462.173 142.082, 456.796 141.234, 453.229 142.669 M 580.174 144.314 C 576.389 148.344, 577.274 149, 586.500 149 C 595.808 149, 596.908 148.141, 592.686 144.174 C 589.439 141.124, 583.105 141.195, 580.174 144.314 M 204 217.500 L 204 246 217.500 246 L 231 246 231 241.500 L 231 237 222.500 237 L 214 237 214 213 L 214 189 209 189 L 204 189 204 217.500 M 277.667 189.667 C 277.300 190.033, 277 202.858, 277 218.167 L 277 246 282 246 C 285.754 246, 287 245.630, 287 244.516 C 287 243.307, 287.749 243.422, 291.043 245.139 C 299.183 249.382, 309.439 245.765, 314.145 236.991 C 316.715 232.198, 316.657 222.208, 314.028 217.055 C 309.270 207.728, 297.042 204.246, 289.601 210.099 L 287 212.145 287 200.573 L 287 189 282.667 189 C 280.283 189, 278.033 189.300, 277.667 189.667 M 245.771 208.198 C 241.004 209.465, 236 215.015, 236 219.035 C 236 221.908, 236.148 222, 240.781 222 C 245.121 222, 245.661 221.737, 246.640 219.144 C 247.323 217.334, 248.703 216.040, 250.407 215.613 C 253.911 214.733, 258.500 216.924, 258.500 219.476 C 258.500 221.557, 257.259 222.036, 246.563 224.083 C 238.350 225.655, 235 229.031, 235 235.736 C 235 239.847, 235.471 241.077, 237.953 243.455 C 242.042 247.373, 249.294 248.091, 254.957 245.139 C 258.251 243.422, 259 243.307, 259 244.516 C 259 245.633, 260.254 246, 264.070 246 L 269.141 246 268.820 230.563 C 268.500 215.144, 268.497 215.122, 265.653 212.157 C 261.305 207.623, 253.661 206.101, 245.771 208.198 M 291.299 218.503 C 286.355 221.966, 286.257 231.207, 291.118 235.606 C 294.379 238.558, 300.668 238.087, 303.606 234.672 C 307.030 230.692, 306.998 222.908, 303.545 219.455 C 300.672 216.581, 294.705 216.117, 291.299 218.503 M 253.500 230.681 C 247.243 232.086, 245 233.253, 245 235.102 C 245 239.811, 255.296 239.053, 257.920 234.150 C 260.034 230.199, 259.059 229.433, 253.500 230.681" stroke="none" fill="#fcfcfc" fill-rule="evenodd"/><path d="M 73.500 1.162 C 50.831 13.643, 3.506 41.813, 2.008 43.717 C 0.067 46.184, 0 47.725, 0 89.753 L 0 133.235 3.765 136.868 C 5.835 138.865, 9.070 141.315, 10.953 142.312 L 14.377 144.123 8.430 147.883 C 5.160 149.951, 1.925 152.870, 1.242 154.369 C 0.316 156.401, 0 167.783, 0 199.143 C -0 245.572, -0.111 244.713, 6.386 248.585 C 8.098 249.607, 24.125 258.891, 42 269.217 C 71.095 286.024, 74.975 287.992, 79.030 287.996 C 83.105 288, 87.162 285.924, 119.310 267.393 C 146.712 251.598, 155.402 246.123, 156.529 243.943 C 157.757 241.570, 158 233.985, 158 198.121 L 158 155.142 154.734 151.821 C 152.937 149.995, 149.674 147.533, 147.484 146.350 L 143.500 144.200 146.985 142.350 C 148.902 141.333, 152.165 138.865, 154.235 136.868 L 158 133.235 158 89.633 L 158 46.032 155.250 43.061 C 153.062 40.697, 98.970 8.670, 85.300 1.645 C 81.640 -0.236, 76.426 -0.449, 73.500 1.162" stroke="none" fill="#14a0f0" fill-rule="evenodd"/></svg>