<?xml version="1.0" standalone="no"?>
<!DOCTYPE svg PUBLIC "-//W3C//DTD SVG 20010904//EN"
 "http://www.w3.org/TR/2001/REC-SVG-20010904/DTD/svg10.dtd">
<svg version="1.0" xmlns="http://www.w3.org/2000/svg"
 width="605.000000pt" height="288.000000pt" viewBox="0 0 605.000000 288.000000"
 preserveAspectRatio="xMidYMid meet">

<g transform="translate(0.000000,288.000000) scale(0.100000,-0.100000)"
fill="#000000" stroke="none">
<path d="M735 2861 c-91 -43 -672 -385 -700 -412 l-30 -29 -3 -426 c-3 -487
-7 -467 87 -518 28 -15 53 -30 55 -35 3 -4 -18 -21 -47 -37 -28 -16 -62 -45
-74 -63 -23 -34 -23 -34 -23 -450 0 -390 1 -418 19 -447 28 -46 720 -444 771
-444 36 0 49 7 580 313 114 65 172 105 188 128 l23 33 -3 427 -3 427 -25 27
c-13 14 -47 39 -74 54 l-49 29 57 33 c101 56 96 31 96 512 0 452 0 453 -54
487 -127 81 -696 401 -720 405 -19 3 -46 -2 -71 -14z m795 -896 c0 -276 -3
-385 -11 -385 -11 0 -304 164 -323 181 -7 6 320 589 330 589 2 0 4 -173 4
-385z m-750 -412 c0 -237 -4 -403 -9 -397 -5 5 -85 143 -179 306 l-171 297
172 100 c95 54 175 100 180 100 4 1 7 -182 7 -406z m204 306 l176 -101 -19
-31 c-10 -18 -87 -151 -171 -297 -83 -146 -156 -269 -161 -274 -5 -6 -9 147
-9 397 0 224 2 407 4 407 2 0 83 -45 180 -101z m224 -11 c-8 -13 -20 -33 -27
-46 l-12 -22 -39 22 c-22 13 -40 26 -40 31 0 4 18 7 40 7 22 0 45 6 52 15 7 8
19 14 27 15 11 0 11 -4 -1 -22z m-743 -38 c-53 -31 -68 -29 -59 8 6 19 13 22
58 22 l51 0 -50 -30z m273 -645 c-4 -4 -644 367 -658 381 -7 7 46 42 157 106
l167 96 169 -290 c92 -159 167 -291 165 -293z m606 489 c91 -53 166 -99 166
-103 0 -7 -663 -391 -668 -387 -2 3 330 585 334 586 1 0 77 -43 168 -96z
m-1218 -39 c-33 -18 -64 -32 -68 -29 -14 9 -9 34 7 34 8 0 15 7 15 15 0 11 12
15 53 15 l52 -1 -59 -34z m572 -492 c92 -51 111 -47 317 74 283 166 350 203
362 203 16 0 133 -69 133 -78 0 -4 -24 -20 -53 -36 -28 -15 -188 -107 -354
-202 -165 -96 -306 -174 -312 -174 -13 0 -689 386 -709 405 -11 10 0 20 54 52
l67 40 216 -125 c119 -68 244 -140 279 -159z m-256 -42 c175 -101 318 -186
318 -190 0 -3 -78 -50 -173 -104 l-172 -98 -15 22 c-21 31 -340 581 -340 586
0 3 15 -4 33 -14 17 -11 175 -102 349 -202z m1088 -186 c0 -294 -3 -405 -11
-405 -18 0 -699 394 -696 403 3 9 687 406 700 407 4 0 7 -182 7 -405z m-1318
90 c85 -148 160 -279 166 -291 10 -19 5 -24 -62 -62 -72 -41 -75 -42 -170 -42
l-96 0 0 337 c0 185 2 334 4 332 2 -2 74 -125 158 -274z m942 -315 c273 -158
352 -208 343 -217 -10 -10 -312 -185 -605 -352 -51 -29 -97 -51 -103 -49 -21
7 -368 612 -355 620 95 59 353 206 358 205 4 -1 167 -94 362 -207z m-738 -38
c7 -10 76 -130 154 -267 79 -138 150 -260 158 -273 14 -22 11 -21 -39 9 -30
17 -175 101 -324 187 -148 85 -276 159 -283 165 -9 7 31 35 150 103 90 52 165
94 168 94 3 0 10 -8 16 -18z"/>
</g>
</svg>
