<svg xmlns="http://www.w3.org/2000/svg" width="400" height="400" viewBox="0 0 400 400" version="1.1"><path d="M 186.577 65.108 C 172.606 67.145, 157.573 73.595, 145.950 82.538 C 122.727 100.408, 109.317 132.462, 113.020 161.250 C 115.648 181.680, 123.175 196.973, 138.428 212.872 C 144.875 219.593, 158.086 230, 160.169 230 C 160.640 230, 159.848 228.135, 158.409 225.856 C 146.743 207.376, 149.581 182.198, 165.219 165.440 C 175.104 154.847, 186.971 150, 203.022 150 C 236.059 150, 270.579 173.226, 286.996 206.500 C 294.012 220.721, 296.092 228.870, 296.694 244.500 C 297.099 255.011, 296.816 259.319, 295.218 267 C 291.615 284.311, 283.776 300.494, 273.463 311.909 C 269.018 316.829, 269.593 317.051, 275.820 312.818 C 331.944 274.665, 351.566 202.735, 322.577 141.414 C 305.954 106.249, 274.179 79.596, 236.108 68.884 C 220.616 64.525, 200.887 63.021, 186.577 65.108 M 123.852 87.330 C 78.603 118.673, 56.768 171.087, 66.432 225.163 C 76.510 281.560, 123.469 326.420, 181 334.609 C 209.579 338.677, 233.898 332.968, 254.050 317.462 C 277.273 299.592, 290.683 267.538, 286.980 238.750 C 284.352 218.320, 276.825 203.027, 261.572 187.128 C 255.125 180.407, 241.914 170, 239.831 170 C 239.360 170, 240.152 171.865, 241.591 174.144 C 253.257 192.624, 250.419 217.802, 234.781 234.560 C 224.896 245.153, 213.029 250, 196.978 250 C 163.941 250, 129.421 226.774, 113.004 193.500 C 105.988 179.279, 103.908 171.130, 103.306 155.500 C 102.901 144.989, 103.184 140.681, 104.782 133 C 108.385 115.689, 116.224 99.506, 126.537 88.091 C 130.954 83.202, 130.143 82.972, 123.852 87.330" stroke="none" fill="#f9fbfb" fill-rule="evenodd"/><path d="M -0 200.002 L -0 400.005 200.250 399.752 L 400.500 399.500 400.752 199.750 L 401.005 0 200.502 0 L 0 0 -0 200.002 M 0.490 200.500 C 0.490 310.500, 0.607 355.352, 0.750 300.170 C 0.893 244.989, 0.893 154.989, 0.750 100.170 C 0.607 45.352, 0.490 90.500, 0.490 200.500 M 186.577 65.108 C 172.606 67.145, 157.573 73.595, 145.950 82.538 C 122.727 100.408, 109.317 132.462, 113.020 161.250 C 115.648 181.680, 123.175 196.973, 138.428 212.872 C 144.875 219.593, 158.086 230, 160.169 230 C 160.640 230, 159.848 228.135, 158.409 225.856 C 146.743 207.376, 149.581 182.198, 165.219 165.440 C 175.104 154.847, 186.971 150, 203.022 150 C 236.059 150, 270.579 173.226, 286.996 206.500 C 294.012 220.721, 296.092 228.870, 296.694 244.500 C 297.099 255.011, 296.816 259.319, 295.218 267 C 291.615 284.311, 283.776 300.494, 273.463 311.909 C 269.018 316.829, 269.593 317.051, 275.820 312.818 C 331.944 274.665, 351.566 202.735, 322.577 141.414 C 305.954 106.249, 274.179 79.596, 236.108 68.884 C 220.616 64.525, 200.887 63.021, 186.577 65.108 M 123.852 87.330 C 78.603 118.673, 56.768 171.087, 66.432 225.163 C 76.510 281.560, 123.469 326.420, 181 334.609 C 209.579 338.677, 233.898 332.968, 254.050 317.462 C 277.273 299.592, 290.683 267.538, 286.980 238.750 C 284.352 218.320, 276.825 203.027, 261.572 187.128 C 255.125 180.407, 241.914 170, 239.831 170 C 239.360 170, 240.152 171.865, 241.591 174.144 C 253.257 192.624, 250.419 217.802, 234.781 234.560 C 224.896 245.153, 213.029 250, 196.978 250 C 163.941 250, 129.421 226.774, 113.004 193.500 C 105.988 179.279, 103.908 171.130, 103.306 155.500 C 102.901 144.989, 103.184 140.681, 104.782 133 C 108.385 115.689, 116.224 99.506, 126.537 88.091 C 130.954 83.202, 130.143 82.972, 123.852 87.330" stroke="none" fill="#0454d3" fill-rule="evenodd"/></svg>