<svg xmlns="http://www.w3.org/2000/svg" width="490" height="408" viewBox="0 0 490 408" version="1.1"><path d="M 1 120 L 1 216 96 216 L 191 216 191 120 L 191 24 96 24 L 1 24 1 120 M 22.022 70.750 C 22.042 94.478, 22.204 96.853, 24.079 101 C 27.583 108.751, 34.982 115.172, 44.079 118.357 C 48.491 119.901, 48.472 119.905, 35.250 119.952 L 22 120 22 157.500 L 22 195 33.500 195 L 45 195 45 181.500 L 45 168 49.377 168 L 53.755 168 63.891 181.500 L 74.027 195 122.513 195 L 171 195 171 187 L 171 179 158 179 L 145 179 145 157.500 L 145 136 158 136 L 171 136 171 125.483 L 171 114.965 155.311 98.933 L 139.622 82.901 155.311 67.189 C 169.099 53.381, 171 51.085, 171 48.239 L 171 45 159.750 45.032 L 148.500 45.065 134 60.709 L 119.500 76.353 119.225 60.677 L 118.949 45 96.975 45 L 75 45 75 68.099 C 75 94.792, 74.587 96.569, 67.591 99.956 C 62.356 102.490, 57.744 102.521, 52.316 100.057 C 45.323 96.881, 45 95.491, 45 68.550 L 45 45 33.500 45 L 22 45 22.022 70.750 M 119.025 104.750 L 119 120 133.099 120 L 147.198 120 142.099 114.250 C 139.295 111.088, 132.962 104.225, 128.026 99 L 119.050 89.500 119.025 104.750 M 95 102.820 C 95 103.271, 93.387 105.524, 91.416 107.827 C 87.667 112.207, 81.249 116.463, 75.316 118.502 L 71.819 119.704 78.147 120.949 C 85.432 122.382, 89.366 124.167, 93.250 127.801 L 96 130.374 96 116.187 C 96 108.384, 95.775 102, 95.500 102 C 95.225 102, 95 102.369, 95 102.820 M 45 144.100 L 45 152.201 58.087 151.850 C 70.999 151.505, 71.207 151.463, 73.587 148.694 C 77.339 144.332, 76.688 139.924, 71.928 137.463 C 69.905 136.416, 65.669 136, 57.050 136 L 45 136 45 144.100 M 99.500 143.250 C 99.500 148.388, 98.941 151.626, 97.581 154.366 C 95.296 158.968, 89.100 163.713, 83.375 165.245 L 79.243 166.350 87.372 177.210 L 95.500 188.071 95.805 183.535 L 96.110 179 109.055 179 L 122 179 122 157.500 L 122 136 110.750 136 L 99.500 136 99.500 143.250 M 113.571 257.571 C 110.441 260.702, 112.492 266, 116.835 266 C 120.345 266, 122 264.345, 122 260.835 C 122 256.492, 116.702 254.441, 113.571 257.571 M 241.571 257.571 C 238.441 260.702, 240.492 266, 244.835 266 C 248.345 266, 250 264.345, 250 260.835 C 250 256.492, 244.702 254.441, 241.571 257.571 M 22 276.500 L 22 296 35 296 L 48 296 48 292 L 48 288 39 288 L 30 288 30 284 L 30 280 38 280 L 46 280 46 276.500 L 46 273 38 273 L 30 273 30 269 L 30 265 38.500 265 L 47 265 47 261 L 47 257 34.500 257 L 22 257 22 276.500 M 410 263.700 C 410 268.911, 409.733 270.133, 408.800 269.200 C 407.038 267.438, 400.251 267.739, 396.883 269.728 C 393.778 271.562, 390 278.186, 390 281.795 C 390 285.594, 393.136 291.961, 396.018 294.013 C 399.074 296.189, 405.854 296.684, 409.066 294.965 C 410.399 294.251, 411 294.251, 411 294.965 C 411 295.534, 412.575 296, 414.500 296 L 418 296 418 276.500 L 418 257 414 257 L 410 257 410 263.700 M 104.190 267.210 C 103.481 267.919, 100.054 268.436, 95.904 268.460 C 89.415 268.497, 88.628 268.733, 86.414 271.306 C 83.831 274.308, 83.280 278.786, 85.080 282.149 C 85.929 283.736, 85.780 284.586, 84.379 286.133 C 82.850 287.823, 82.769 288.551, 83.806 291.298 C 84.587 293.365, 84.657 294.614, 84.007 294.831 C 83.453 295.016, 83 296.284, 83 297.649 C 83 304.059, 88.291 307.436, 97.311 306.784 C 102.304 306.423, 103.693 305.896, 105.651 303.620 C 108.840 299.912, 108.794 294.704, 105.545 291.455 C 103.536 289.445, 102.096 289, 97.604 289 C 94.587 289, 91.840 288.550, 91.500 288 C 91.125 287.393, 92.574 286.999, 95.191 286.996 C 103.096 286.989, 108.012 282.075, 106.745 275.446 C 106.407 273.678, 106.819 272.632, 108.132 271.929 C 109.878 270.995, 109.895 270.769, 108.385 268.465 C 106.561 265.681, 105.913 265.487, 104.190 267.210 M 306.065 267.422 C 305.201 268.463, 303.477 268.698, 299.627 268.301 C 290.070 267.315, 284.392 272.855, 286.827 280.789 C 287.557 283.168, 287.609 284.791, 286.975 285.425 C 285.684 286.716, 285.727 291.327, 287.042 292.642 C 287.766 293.366, 287.612 294.077, 286.542 294.965 C 284.688 296.503, 284.607 298.043, 286.195 301.528 C 287.857 305.175, 291.938 307, 298.435 307 C 303.116 307, 304.464 306.558, 307.184 304.127 C 311.269 300.477, 311.612 295.345, 308.026 291.527 C 306.019 289.391, 304.759 289, 299.885 289 C 296.713 289, 293.840 288.550, 293.500 288 C 293.119 287.384, 294.818 287, 297.925 287 C 302.073 287, 303.543 286.487, 306.201 284.112 C 308.974 281.634, 309.410 280.613, 309.263 276.938 C 309.143 273.923, 309.593 272.287, 310.783 271.417 C 312.360 270.264, 312.346 270.040, 310.582 268.090 C 308.349 265.623, 307.644 265.519, 306.065 267.422 M 52 282 L 52 296 56.462 296 L 60.925 296 61.212 286.785 C 61.489 277.910, 61.601 277.514, 64.241 276.035 C 66.325 274.868, 67.405 274.765, 68.741 275.606 C 70.185 276.514, 70.551 278.440, 70.786 286.356 L 71.072 296 75.036 296 L 79 296 79 285.950 C 79 271.790, 76.738 268, 68.288 268 C 66.174 268, 63.441 268.703, 62.215 269.562 C 60.193 270.978, 59.929 270.978, 59.385 269.562 C 59.005 268.571, 57.546 268, 55.393 268 L 52 268 52 282 M 113 282 L 113 296 117 296 L 121 296 121 282 L 121 268 117 268 L 113 268 113 282 M 127 282 L 127 296 131 296 L 135 296 135 287.500 C 135 280.249, 135.303 278.697, 137.061 276.939 C 139.688 274.312, 143.089 274.784, 144.710 278 C 145.403 279.375, 145.977 283.988, 145.985 288.250 L 146 296 150 296 L 154 296 154 286.968 C 154 277.028, 152.581 272.221, 148.883 269.631 C 145.976 267.594, 139.137 267.515, 136.324 269.486 C 134.448 270.800, 134.137 270.800, 133.633 269.486 C 133.302 268.624, 131.790 268, 130.031 268 L 127 268 127 282 M 164.304 269.956 C 158.964 273.212, 157.406 276.932, 157.849 285.368 C 157.947 287.237, 159.352 289.587, 161.882 292.118 C 165.433 295.668, 166.226 296, 171.160 296 C 177.813 296, 183.871 292.285, 183.968 288.145 C 184 286.775, 182.916 286.816, 172.736 288.573 C 169.096 289.201, 166 287.962, 166 285.878 C 166 285.395, 170.275 285, 175.500 285 L 185 285 185 281.968 C 185 271.059, 173.471 264.367, 164.304 269.956 M 194.299 269.900 C 185.623 275.351, 185.982 289.836, 194.906 294.451 C 198.670 296.398, 205.240 296.444, 208.901 294.551 C 211.347 293.286, 215 289.084, 215 287.535 C 215 286.554, 207.128 286.984, 206.500 288 C 205.693 289.306, 200.401 289.285, 197.934 287.965 C 193.984 285.851, 196.155 285, 205.500 285 L 215 285 215 280.485 C 215 276.762, 214.415 275.332, 211.665 272.331 C 208.766 269.168, 207.620 268.639, 202.915 268.290 C 198.727 267.980, 196.775 268.344, 194.299 269.900 M 219 282 L 219 296 223 296 L 227 296 227 288.111 C 227 278.804, 228.573 275.935, 233.758 275.788 C 236.836 275.700, 237 275.501, 237 271.848 C 237 268.390, 236.741 268, 234.450 268 C 233.048 268, 230.573 268.687, 228.950 269.526 C 226.306 270.893, 226 270.893, 226 269.526 C 226 268.449, 224.971 268, 222.500 268 L 219 268 219 282 M 241 282 L 241 296 245 296 L 249 296 249 282 L 249 268 245 268 L 241 268 241 282 M 255 282 L 255 296 259 296 L 263 296 263 287.500 C 263 280.249, 263.303 278.697, 265.061 276.939 C 267.688 274.312, 271.089 274.784, 272.710 278 C 273.403 279.375, 273.977 283.988, 273.985 288.250 L 274 296 278 296 L 282 296 282 286.968 C 282 277.028, 280.581 272.221, 276.883 269.631 C 273.976 267.594, 267.137 267.515, 264.324 269.486 C 262.448 270.800, 262.137 270.800, 261.633 269.486 C 261.302 268.624, 259.790 268, 258.031 268 L 255 268 255 282 M 335.110 269.396 C 332.933 270.602, 330.123 274.398, 330.035 276.250 C 329.982 277.381, 337.789 277.151, 338.500 276 C 339.387 274.564, 343.562 274.767, 344.840 276.308 C 345.700 277.344, 344.665 277.876, 339.856 278.869 C 332.643 280.359, 329 283.423, 329 288 C 329 294.595, 337.228 298.603, 344.515 295.558 C 347.132 294.465, 348.680 294.280, 349.377 294.977 C 349.940 295.540, 351.885 296, 353.700 296 C 356.700 296, 357 295.727, 357 293 C 357 291.112, 356.487 290, 355.617 290 C 353.817 290, 353.031 286.880, 353.014 279.673 C 353.002 274.576, 352.634 273.480, 350.077 270.923 C 347.638 268.484, 346.354 268.006, 342.327 268.035 C 339.672 268.055, 336.425 268.667, 335.110 269.396 M 360 282 L 360 296 364 296 L 368 296 368 287.500 C 368 280.249, 368.303 278.697, 370.061 276.939 C 372.688 274.312, 376.089 274.784, 377.710 278 C 378.403 279.375, 378.977 283.988, 378.985 288.250 L 379 296 383 296 L 387 296 386.994 287.750 C 386.988 277.565, 385.706 272.701, 382.331 270.045 C 379.217 267.596, 372.438 267.304, 369.324 269.486 C 367.448 270.800, 367.137 270.800, 366.633 269.486 C 366.302 268.624, 364.790 268, 363.031 268 L 360 268 360 282 M 91.649 276.471 C 91.011 278.136, 93.446 281, 95.500 281 C 97.554 281, 99.989 278.136, 99.351 276.471 C 99.012 275.589, 97.470 275, 95.500 275 C 93.530 275, 91.988 275.589, 91.649 276.471 M 167.441 276.468 C 165.654 277.820, 165.916 277.939, 170.750 277.968 C 175.844 277.999, 177.640 276.843, 174.418 275.607 C 171.840 274.618, 169.507 274.906, 167.441 276.468 M 198 276.500 C 196.920 277.801, 197.451 278, 202 278 C 206.549 278, 207.080 277.801, 206 276.500 C 205.315 275.675, 203.515 275, 202 275 C 200.485 275, 198.685 275.675, 198 276.500 M 294.356 276.514 C 294.003 277.434, 294.429 278.858, 295.326 279.755 C 296.648 281.077, 297.379 281.148, 299.534 280.166 C 303.197 278.498, 302.438 275.592, 298.235 275.186 C 295.942 274.965, 294.801 275.355, 294.356 276.514 M 400.058 277.431 C 397.975 279.940, 398.454 285.139, 400.954 287.164 C 403.863 289.519, 405.519 289.481, 408 287 C 410.392 284.608, 410.613 279.755, 408.429 277.571 C 406.466 275.609, 401.637 275.528, 400.058 277.431 M 342.157 285.059 C 337.911 285.982, 336.175 287.575, 337.727 289.127 C 339.318 290.718, 343.727 289.379, 345.052 286.903 C 346.447 284.295, 346.249 284.169, 342.157 285.059 M 90.675 296.658 C 89.371 297.962, 92.313 300, 95.500 300 C 98.687 300, 101.629 297.962, 100.325 296.658 C 99.963 296.296, 97.792 296, 95.500 296 C 93.208 296, 91.037 296.296, 90.675 296.658 M 293.500 297 C 292.419 298.749, 294.016 300, 297.309 299.985 C 301.115 299.966, 303.521 298.652, 302.569 297.112 C 301.714 295.729, 294.342 295.638, 293.500 297 M 53 332 L 53 352 57 352 L 61 352 61.015 344.250 C 61.032 334.944, 62.415 331.630, 66.474 331.164 C 70.925 330.654, 72 332.993, 72 343.191 L 72 352 76 352 L 80 352 80 342.468 C 80 331.340, 78.524 326.839, 74.128 324.566 C 70.372 322.624, 67.313 322.588, 63.750 324.447 L 61 325.881 61 318.941 L 61 312 57 312 L 53 312 53 332 M 139.046 313.445 C 137.191 315.679, 138.217 319.275, 141.182 320.933 C 143.630 322.303, 144.043 322.271, 145.932 320.562 C 148.231 318.481, 148.637 315.037, 146.800 313.200 C 145.146 311.546, 140.500 311.693, 139.046 313.445 M 212 332 L 212 352 216 352 L 220 352 220 332 L 220 312 216 312 L 212 312 212 332 M 300.046 313.445 C 298.191 315.679, 299.217 319.275, 302.182 320.933 C 304.630 322.303, 305.043 322.271, 306.932 320.562 C 309.231 318.481, 309.637 315.037, 307.800 313.200 C 306.146 311.546, 301.500 311.693, 300.046 313.445 M 22 332.560 L 22 352.121 25.750 351.810 L 29.500 351.500 29.793 344.886 L 30.085 338.271 35.734 337.688 C 42.632 336.976, 46.040 334.621, 47.937 329.254 C 49.120 325.905, 49.155 324.459, 48.132 321.047 C 46.234 314.711, 42.660 313.008, 31.250 313.004 L 22 313 22 332.560 M 244.500 314.161 C 239.177 317.088, 237.329 324.170, 240.651 328.912 C 241.559 330.209, 245.609 332.798, 249.651 334.665 C 255.751 337.484, 257 338.462, 257 340.423 C 257 342.907, 255.342 344, 251.573 344 C 249.222 344, 246 341.208, 246 339.171 C 246 338.465, 244.359 338, 241.869 338 L 237.738 338 238.326 341.624 C 238.650 343.617, 239.721 346.154, 240.707 347.262 C 244.480 351.500, 253.506 353.352, 258.316 350.875 C 263.311 348.303, 265 345.819, 265 341.048 C 265 334.922, 263.002 332.366, 255.625 329.056 C 252.256 327.544, 248.842 325.515, 248.038 324.546 C 246.738 322.980, 246.788 322.629, 248.479 321.392 C 251.033 319.524, 252.265 319.634, 255.273 322 C 256.671 323.100, 259.207 324, 260.908 324 C 263.454 324, 263.996 323.603, 263.978 321.750 C 263.952 319.120, 261.418 315.703, 258.316 314.117 C 255.536 312.695, 247.116 312.722, 244.500 314.161 M 30 325 L 30 330 33.977 330 C 37.052 330, 38.304 329.465, 39.500 327.641 C 42.177 323.555, 38.890 320, 32.435 320 C 30.180 320, 30 320.369, 30 325 M 119.500 323.945 C 114.302 326.073, 111.830 333.258, 115.152 336.581 C 115.969 337.398, 118.855 338.860, 121.564 339.829 C 124.468 340.868, 126.625 342.291, 126.818 343.296 C 127.304 345.816, 122.373 345.565, 121 343 C 120.246 341.591, 118.906 341, 116.465 341 C 113.510 341, 113 341.341, 113 343.313 C 113 347.153, 118.175 351.214, 123.749 351.750 C 127.924 352.151, 129.032 351.844, 131.795 349.519 C 138.127 344.191, 135.220 336.070, 126.388 334.413 C 122.504 333.684, 121.255 332.345, 122.912 330.688 C 123.763 329.837, 124.545 329.859, 126.011 330.775 C 128.422 332.281, 135 332.397, 135 330.934 C 135 325.569, 125.738 321.392, 119.500 323.945 M 161.500 323.733 C 154.835 325.401, 150.542 331.877, 151.245 339.198 C 152.419 351.412, 167.187 356.376, 175.538 347.364 C 179.337 343.266, 178.833 341, 174.122 341 C 171.896 341, 169.715 341.639, 169 342.500 C 167.286 344.565, 162.657 344.383, 160.655 342.171 C 157.253 338.412, 160.046 331, 164.865 331 C 165.891 331, 167.874 331.900, 169.273 333 C 170.763 334.172, 173.330 335, 175.475 335 C 178.806 335, 179.073 334.798, 178.452 332.750 C 176.466 326.201, 168.521 321.975, 161.500 323.733 M 188.329 324.403 C 185.318 325.765, 183 328.606, 183 330.934 C 183 332.356, 190.295 332.305, 191.727 330.873 C 193.225 329.375, 198 330.628, 198 332.519 C 198 333.547, 196.921 334, 194.468 334 C 189.859 334, 184.441 336.307, 183.080 338.850 C 181.879 341.094, 181.672 344.981, 182.621 347.455 C 184.144 351.424, 193.089 353.266, 197.898 350.600 C 199.897 349.492, 200.727 349.497, 202.898 350.630 C 207.415 352.987, 209 352.433, 209 348.500 C 209 346.174, 208.532 345, 207.606 345 C 206.560 345, 206.121 343.003, 205.849 337.016 C 205.530 329.988, 205.172 328.718, 202.861 326.406 C 199.656 323.201, 193.012 322.285, 188.329 324.403 M 278.500 323.733 C 268.246 326.300, 264.576 339.840, 272.045 347.546 C 275.677 351.294, 280.013 352.595, 285.461 351.573 C 289.424 350.830, 295 345.773, 295 342.923 C 295 341.356, 294.282 341, 291.122 341 C 288.896 341, 286.715 341.639, 286 342.500 C 284.286 344.565, 279.657 344.383, 277.655 342.171 C 274.253 338.412, 277.046 331, 281.865 331 C 282.891 331, 284.874 331.900, 286.273 333 C 287.763 334.172, 290.330 335, 292.475 335 C 295.806 335, 296.073 334.798, 295.452 332.750 C 293.466 326.201, 285.521 321.975, 278.500 323.733 M 321.619 324.003 C 312.715 326.766, 309.196 338.894, 315.115 346.419 C 319.413 351.884, 326.212 353.417, 332.633 350.370 C 335.906 348.817, 339 345.564, 339 343.677 C 339 342.817, 333.623 343.213, 327.349 344.534 C 324.832 345.064, 323.725 344.725, 321.849 342.849 L 319.500 340.500 329.877 340.214 L 340.254 339.927 339.717 335.926 C 338.491 326.784, 330.220 321.335, 321.619 324.003 M 356.500 323.684 C 355.400 323.971, 353.722 324.896, 352.771 325.739 C 351.213 327.120, 350.979 327.110, 350.414 325.636 C 350.002 324.562, 348.610 324, 346.365 324 L 342.944 324 343.222 337.750 L 343.500 351.500 347.500 351.500 L 351.500 351.500 352 342.211 C 352.539 332.201, 353.183 331.044, 358.231 331.015 C 361.507 330.997, 361.892 332.194, 362.248 343.500 L 362.500 351.500 366.250 351.810 L 370 352.121 370 341.076 C 370 330.426, 369.902 329.924, 367.250 327.013 C 364.497 323.992, 360.299 322.692, 356.500 323.684 M 381.962 325.250 C 371.752 330.398, 371.357 343.979, 381.241 350.005 C 387.350 353.730, 396.363 351.740, 399.926 345.881 C 401.010 344.099, 401.668 342.272, 401.389 341.821 C 400.685 340.682, 393 340.784, 393 341.933 C 393 343.072, 389.060 344.499, 387 344.106 C 384.277 343.586, 382 340.735, 382 337.845 C 382 334.395, 385.147 331, 388.345 331 C 389.635 331, 391.505 331.900, 392.500 333 C 394.464 335.170, 402 335.887, 402 333.904 C 402 331.273, 398.220 326.801, 394.456 324.979 C 389.237 322.452, 387.433 322.491, 381.962 325.250 M 412.467 324.998 C 407.319 327.546, 404.999 331.480, 405.004 337.654 C 405.010 346.125, 410.846 352, 419.253 352 C 423.019 352, 428.421 348.833, 430.770 345.250 C 432.209 343.053, 432.155 343, 428.443 343 C 426.352 343, 423.186 343.527, 421.405 344.170 C 418.699 345.149, 417.745 345.063, 415.584 343.647 C 411.149 340.741, 412.554 340, 422.500 340 L 432 340 432 336.368 C 432 331.268, 428.756 326.520, 423.961 324.601 C 418.794 322.534, 417.344 322.584, 412.467 324.998 M 442 323.706 C 438.418 325.016, 436 328.379, 436 332.052 C 436 336.360, 437.157 337.537, 443.693 339.875 C 446.499 340.879, 448.626 342.299, 448.818 343.296 C 449.304 345.816, 444.373 345.565, 443 343 C 441.473 340.146, 435 340.134, 435 342.984 C 435 346.227, 440.060 351, 444.196 351.657 C 452.001 352.897, 457 349.546, 457 343.073 C 457 338.499, 453.980 335.462, 448.388 334.413 C 444.504 333.684, 443.255 332.345, 444.912 330.688 C 445.763 329.837, 446.545 329.859, 448.011 330.775 C 450.422 332.281, 457 332.397, 457 330.934 C 457 325.828, 448.025 321.504, 442 323.706 M 81.225 325.250 C 81.466 325.938, 83.647 332.238, 86.072 339.250 C 88.580 346.506, 91.023 352, 91.740 352 C 93.458 352, 93.325 353.485, 91.470 355.025 C 90.265 356.025, 89.383 356.040, 87.311 355.096 C 84.563 353.844, 84.409 353.932, 81.988 358.145 C 80.499 360.735, 83.574 362.500, 89.573 362.500 C 97.549 362.500, 98.951 360.660, 105.111 342.110 C 107.962 333.524, 110.501 325.938, 110.754 325.250 C 111.073 324.382, 109.995 324, 107.224 324 L 103.233 324 99.780 333.631 L 96.327 343.261 92.942 333.631 L 89.557 324 85.171 324 C 82.096 324, 80.917 324.373, 81.225 325.250 M 139 338 L 139 352 143 352 L 147 352 147 338 L 147 324 143 324 L 139 324 139 338 M 300 338 L 300 352 304 352 L 308 352 308 338 L 308 324 304 324 L 300 324 300 338 M 322.861 331.967 L 320.500 333.933 325.750 333.967 C 331.157 334.001, 332.458 332.851, 329.066 331.035 C 326.376 329.595, 325.560 329.718, 322.861 331.967 M 414.861 331.967 L 412.500 333.933 418.500 333.933 L 424.500 333.933 422.139 331.967 C 420.841 330.885, 419.203 330, 418.500 330 C 417.797 330, 416.159 330.885, 414.861 331.967 M 192.250 341.031 C 188.982 342.345, 189.350 345, 192.800 345 C 195.788 345, 198 343.426, 198 341.300 C 198 339.819, 195.552 339.704, 192.250 341.031 M 423.050 368.440 C 421.467 370.347, 422.092 375.043, 424.095 376.296 C 426.667 377.905, 430.886 376.303, 431.603 373.444 C 432.805 368.658, 426.117 364.745, 423.050 368.440 M 22 387.500 L 22 407 26 407 L 30 407 30 400 C 30 394.539, 30.320 393, 31.456 393 C 32.257 393, 34.751 396.150, 37 400 L 41.088 407 45.639 407 L 50.190 407 47.406 402.250 C 41 391.322, 41.308 392.611, 44.265 389.097 C 47.955 384.711, 48.664 380.024, 46.353 375.293 C 43.732 369.927, 39.351 368.003, 29.750 368.002 L 22 368 22 387.500 M 216 387.500 L 216 407 220.500 407 L 225 407 225 398.057 C 225 389.949, 225.208 388.968, 227.223 387.557 C 232.898 383.581, 235 386.520, 235 398.434 L 235 407 239 407 L 243 407 243 396.934 C 243 386.495, 242.244 383.697, 238.633 380.772 C 235.953 378.601, 229.182 378.484, 226.223 380.557 L 224 382.113 224 375.057 L 224 368 220 368 L 216 368 216 387.500 M 270.500 369.417 C 266.773 371.081, 262.469 375.596, 261.064 379.315 C 257.867 387.776, 261.237 400.315, 267.898 404.742 C 271.940 407.428, 280.500 407.827, 284.931 405.536 C 288.258 403.815, 293 398.460, 293 396.423 C 293 394.048, 284.831 394.548, 282.684 397.056 C 281.326 398.642, 279.971 399.042, 276.745 398.806 C 273.270 398.552, 272.181 397.927, 270.283 395.102 C 266.359 389.261, 267.849 380.164, 273.181 377.406 C 276.767 375.552, 281.579 376.354, 283.288 379.090 C 284.159 380.484, 285.631 381, 288.741 381 C 293.579 381, 293.901 380.194, 290.962 375.439 C 287.150 369.270, 277.314 366.376, 270.500 369.417 M 436 387.500 L 436 407 440 407 L 444 407 444 387.500 L 444 368 440 368 L 436 368 436 387.500 M 29 381 C 29 385.913, 29.054 386, 32.066 386 C 36.639 386, 39 384.354, 39 381.165 C 39 377.408, 37.310 376, 32.800 376 L 29 376 29 381 M 58.500 379.954 C 54.202 381.732, 50 388.305, 50 393.249 C 50 396.819, 53.795 403.448, 56.883 405.272 C 58.617 406.296, 61.869 407, 64.869 407 C 69.104 407, 70.507 406.493, 73.465 403.896 C 78.194 399.744, 78.074 398, 73.059 398 C 70.891 398, 68.840 398.450, 68.500 399 C 67.397 400.785, 61.419 400.121, 59.500 398 C 57.701 396.012, 57.753 396, 67.981 396 L 78.272 396 77.654 391.492 C 76.909 386.059, 74.671 382.398, 70.901 380.449 C 67.862 378.877, 61.697 378.631, 58.500 379.954 M 83.923 381.923 C 78.483 387.363, 80.815 393.018, 89.547 395.557 C 94.907 397.115, 96.569 399.184, 93.428 400.389 C 91.655 401.070, 88 399.437, 88 397.965 C 88 397.434, 86.170 397, 83.933 397 C 80.190 397, 79.917 397.180, 80.511 399.250 C 80.866 400.488, 82.478 402.738, 84.094 404.250 C 86.541 406.541, 87.924 407, 92.379 407 C 96.824 407, 98.172 406.555, 100.364 404.364 C 103.660 401.068, 103.906 396.136, 100.911 393.405 C 99.762 392.357, 96.724 390.825, 94.161 390 C 91.597 389.175, 89.599 388.050, 89.719 387.500 C 90.018 386.134, 95 385.600, 95 386.934 C 95 387.520, 96.800 388, 99 388 C 103.943 388, 104.275 386.122, 100.077 381.923 C 97.602 379.449, 96.363 379, 92 379 C 87.637 379, 86.398 379.449, 83.923 381.923 M 112.304 380.956 C 106.964 384.212, 105.406 387.932, 105.849 396.368 C 105.947 398.237, 107.352 400.587, 109.882 403.118 C 113.433 406.668, 114.226 407, 119.160 407 C 125.813 407, 131.871 403.285, 131.968 399.145 C 132 397.775, 130.916 397.816, 120.736 399.573 C 117.096 400.201, 114 398.962, 114 396.878 C 114 396.395, 118.275 396, 123.500 396 L 133 396 133 392.968 C 133 382.059, 121.471 375.367, 112.304 380.956 M 140.077 381.589 C 138.385 383.013, 137 385.038, 137 386.089 C 137 387.652, 137.729 388, 141 388 C 143.200 388, 145 387.521, 145 386.937 C 145 385.577, 151.230 386.145, 151.689 387.547 C 151.877 388.122, 149.401 389.137, 146.186 389.801 C 139.102 391.264, 136 394.108, 136 399.140 C 136 404.309, 139.284 407, 145.592 407 C 148.358 407, 151.491 406.344, 152.670 405.518 C 154.539 404.210, 154.929 404.210, 156.015 405.518 C 156.692 406.333, 158.540 407, 160.122 407 C 162.629 407, 163 406.627, 163 404.107 C 163 402.458, 162.355 400.966, 161.500 400.638 C 160.402 400.217, 160 398.487, 160 394.181 C 160 383.023, 156.721 379, 147.626 379 C 144.273 379, 142.383 379.648, 140.077 381.589 M 166 393 L 166 407 170 407 L 174 407 174 399.111 C 174 389.804, 175.573 386.935, 180.758 386.788 C 183.836 386.700, 184 386.501, 184 382.848 C 184 379.315, 183.775 379.001, 181.250 379.006 C 179.738 379.010, 177.262 379.658, 175.750 380.447 C 173.359 381.694, 173 381.693, 173 380.441 C 173 379.461, 171.880 379, 169.500 379 L 166 379 166 393 M 192.241 380.995 C 185.704 384.980, 183.418 392.278, 186.440 399.510 C 188.432 404.279, 193.243 406.992, 199.715 406.996 C 204.087 406.999, 205.483 406.515, 208.349 403.998 C 210.229 402.348, 212.003 400.098, 212.290 398.998 C 212.753 397.230, 212.319 397, 208.529 397 C 205.941 397, 203.752 397.594, 203 398.500 C 199.908 402.225, 193 398.533, 193 393.155 C 193 387.864, 200.627 384.402, 203.532 388.375 C 204.734 390.018, 213.004 390.782, 212.996 389.250 C 212.994 388.837, 212.114 387.059, 211.040 385.299 C 207.273 379.119, 198.581 377.129, 192.241 380.995 M 302.304 380.956 C 293.273 386.463, 292.783 399.848, 301.420 405.114 C 305.623 407.677, 313.487 407.610, 317.810 404.974 C 323.982 401.212, 325.825 390.736, 321.386 384.652 C 317.329 379.090, 308.249 377.331, 302.304 380.956 M 328 390.077 C 328 400.987, 328.044 401.198, 330.923 404.077 C 333.314 406.468, 334.691 407, 338.489 407 C 341.042 407, 344.093 406.485, 345.268 405.857 C 346.871 404.999, 347.500 404.999, 347.786 405.857 C 347.995 406.485, 349.479 407, 351.083 407 L 354 407 354 392.940 L 354 378.879 350.250 379.190 L 346.500 379.500 346 388.789 C 345.473 398.581, 344.772 399.954, 340.285 399.985 C 337.004 400.007, 336 397.098, 336 387.566 L 336 379 332 379 L 328 379 328 390.077 M 360 393 L 360 407 364 407 L 368 407 368 399.565 C 368 390.376, 369.093 387.266, 372.633 386.377 C 377.242 385.220, 379 388.598, 379 398.611 L 379 407 383 407 L 387 407 387 397.968 C 387 388.028, 385.581 383.221, 381.883 380.631 C 378.948 378.575, 372.653 378.526, 369.586 380.536 C 367.478 381.917, 367.182 381.917, 366.652 380.536 C 366.301 379.622, 364.835 379, 363.031 379 L 360 379 360 393 M 397.314 380.891 C 389.123 386.038, 388.244 397.495, 395.549 403.909 C 398.483 406.485, 399.905 407, 404.084 407 C 410.187 407, 414.461 404.943, 416.483 401.033 C 417.317 399.419, 418 397.852, 418 397.550 C 418 396.296, 409.748 397.110, 408.357 398.500 C 406.022 400.835, 402.389 400.309, 400.016 397.293 C 397.745 394.405, 397.929 390.729, 400.477 388.125 C 402.301 386.260, 406.669 386.390, 408.862 388.375 C 411.214 390.503, 418 390.585, 418 388.485 C 418 387.652, 416.499 385.333, 414.665 383.331 C 411.766 380.168, 410.620 379.639, 405.915 379.290 C 401.733 378.980, 399.774 379.345, 397.314 380.891 M 423 393 L 423 407 427 407 L 431 407 431 393 L 431 379 427 379 L 423 379 423 393 M 60 387.500 C 58.920 388.801, 59.451 389, 64 389 C 68.549 389, 69.080 388.801, 68 387.500 C 67.315 386.675, 65.515 386, 64 386 C 62.485 386, 60.685 386.675, 60 387.500 M 115.441 387.468 C 113.654 388.820, 113.916 388.939, 118.750 388.968 C 123.844 388.999, 125.640 387.843, 122.418 386.607 C 119.840 385.618, 117.507 385.906, 115.441 387.468 M 305.733 387.750 C 302.943 390.846, 302.681 394.325, 305.016 397.293 C 309.998 403.627, 318.722 397.032, 314.917 389.809 C 312.696 385.594, 308.520 384.657, 305.733 387.750 M 144.601 397.303 C 142.934 398.521, 142.928 398.695, 144.505 400.004 C 145.951 401.205, 146.556 401.197, 148.765 399.952 C 150.181 399.153, 151.526 397.938, 151.753 397.250 C 152.312 395.561, 146.928 395.601, 144.601 397.303" stroke="none" fill="#2e2d62" fill-rule="evenodd"/><path d="M 22.188 71.250 C 22.475 94.497, 22.668 96.857, 24.614 101 C 28.357 108.965, 36.323 115.371, 46.500 118.598 C 50.149 119.755, 49.249 119.872, 36.250 119.933 L 22 120 22 157.500 L 22 195 33 195 L 44 195 44 181 L 44 167 48.893 167 L 53.785 167 64.143 180.962 L 74.500 194.924 122.750 194.962 L 171 195 171 187.500 L 171 180 158 180 L 145 180 145 157.500 L 145 135 158 135 L 171 135 171 125.261 L 171 115.522 154.819 99.318 L 138.637 83.114 154.819 66.745 C 165.806 55.629, 171 49.673, 171 48.187 C 171 46.067, 170.656 46, 159.706 46 L 148.412 46 133.956 61.584 L 119.500 77.169 119.225 61.584 L 118.949 46 97.555 46 L 76.161 46 75.831 69.297 C 75.465 95.047, 75.247 95.990, 68.696 100.101 C 63.969 103.067, 53.175 102.434, 49.420 98.970 C 44.440 94.376, 44 91.866, 44 68.032 L 44 46 32.938 46 L 21.875 46 22.188 71.250 M 119 104.336 L 119 120 133.645 120 L 148.290 120 143.395 114.748 C 140.703 111.859, 134.113 104.811, 128.750 99.084 L 119 88.672 119 104.336 M 95.183 101.498 C 91.989 108.508, 77.946 118.996, 71.750 118.999 C 70.787 119, 70 119.386, 70 119.858 C 70 120.329, 72.697 120.997, 75.994 121.342 C 83.189 122.094, 88.211 124.058, 93.250 128.092 L 97 131.094 97 115.047 C 97 106.221, 96.847 99, 96.661 99 C 96.474 99, 95.809 100.124, 95.183 101.498 M 44.750 135.564 C 44.337 135.987, 44 139.858, 44 144.167 L 44 152 57.365 152 C 69.455 152, 70.987 151.798, 73.417 149.887 C 75.668 148.116, 76.055 147.119, 75.802 143.737 C 75.299 137.019, 72.448 135.670, 57.737 135.192 C 51.007 134.974, 45.163 135.141, 44.750 135.564 M 98.924 135.718 C 98.882 136.148, 98.911 139.499, 98.988 143.164 C 99.219 154.131, 94.344 161.064, 83.980 164.507 C 81.185 165.435, 79.034 166.544, 79.199 166.971 C 79.861 168.680, 95.551 188.905, 96.250 188.951 C 96.662 188.978, 97 186.975, 97 184.500 L 97 180 110.019 180 L 123.038 180 122.769 157.750 L 122.500 135.500 110.750 135.218 C 104.287 135.063, 98.966 135.288, 98.924 135.718" stroke="none" fill="#ffffff" fill-rule="evenodd"/><path d="M 1 120 L 1 216 96 216 L 191 216 191 120 L 191 24 96 24 L 1 24 1 120 M 22.022 70.750 C 22.042 94.478, 22.204 96.853, 24.079 101 C 27.583 108.751, 34.982 115.172, 44.079 118.357 C 48.491 119.901, 48.472 119.905, 35.250 119.952 L 22 120 22 157.500 L 22 195 33.500 195 L 45 195 45 181.500 L 45 168 49.377 168 L 53.755 168 63.891 181.500 L 74.027 195 122.513 195 L 171 195 171 187 L 171 179 158 179 L 145 179 145 157.500 L 145 136 158 136 L 171 136 171 125.483 L 171 114.965 155.311 98.933 L 139.622 82.901 155.311 67.189 C 169.099 53.381, 171 51.085, 171 48.239 L 171 45 159.750 45.032 L 148.500 45.065 134 60.709 L 119.500 76.353 119.225 60.677 L 118.949 45 96.975 45 L 75 45 75 68.099 C 75 94.792, 74.587 96.569, 67.591 99.956 C 62.356 102.490, 57.744 102.521, 52.316 100.057 C 45.323 96.881, 45 95.491, 45 68.550 L 45 45 33.500 45 L 22 45 22.022 70.750 M 119.025 104.750 L 119 120 133.099 120 L 147.198 120 142.099 114.250 C 139.295 111.088, 132.962 104.225, 128.026 99 L 119.050 89.500 119.025 104.750 M 95 102.820 C 95 103.271, 93.387 105.524, 91.416 107.827 C 87.667 112.207, 81.249 116.463, 75.316 118.502 L 71.819 119.704 78.147 120.949 C 85.432 122.382, 89.366 124.167, 93.250 127.801 L 96 130.374 96 116.187 C 96 108.384, 95.775 102, 95.500 102 C 95.225 102, 95 102.369, 95 102.820 M 45 144.100 L 45 152.201 58.087 151.850 C 70.999 151.505, 71.207 151.463, 73.587 148.694 C 77.339 144.332, 76.688 139.924, 71.928 137.463 C 69.905 136.416, 65.669 136, 57.050 136 L 45 136 45 144.100 M 99.500 143.250 C 99.500 148.388, 98.941 151.626, 97.581 154.366 C 95.296 158.968, 89.100 163.713, 83.375 165.245 L 79.243 166.350 87.372 177.210 L 95.500 188.071 95.805 183.535 L 96.110 179 109.055 179 L 122 179 122 157.500 L 122 136 110.750 136 L 99.500 136 99.500 143.250 M 113.571 257.571 C 110.441 260.702, 112.492 266, 116.835 266 C 120.345 266, 122 264.345, 122 260.835 C 122 256.492, 116.702 254.441, 113.571 257.571 M 241.571 257.571 C 238.441 260.702, 240.492 266, 244.835 266 C 248.345 266, 250 264.345, 250 260.835 C 250 256.492, 244.702 254.441, 241.571 257.571 M 22 276.500 L 22 296 35 296 L 48 296 48 292 L 48 288 39 288 L 30 288 30 284 L 30 280 38 280 L 46 280 46 276.500 L 46 273 38 273 L 30 273 30 269 L 30 265 38.500 265 L 47 265 47 261 L 47 257 34.500 257 L 22 257 22 276.500 M 410 263.700 C 410 268.911, 409.733 270.133, 408.800 269.200 C 407.038 267.438, 400.251 267.739, 396.883 269.728 C 393.778 271.562, 390 278.186, 390 281.795 C 390 285.594, 393.136 291.961, 396.018 294.013 C 399.074 296.189, 405.854 296.684, 409.066 294.965 C 410.399 294.251, 411 294.251, 411 294.965 C 411 295.534, 412.575 296, 414.500 296 L 418 296 418 276.500 L 418 257 414 257 L 410 257 410 263.700 M 104.190 267.210 C 103.481 267.919, 100.054 268.436, 95.904 268.460 C 89.415 268.497, 88.628 268.733, 86.414 271.306 C 83.831 274.308, 83.280 278.786, 85.080 282.149 C 85.929 283.736, 85.780 284.586, 84.379 286.133 C 82.850 287.823, 82.769 288.551, 83.806 291.298 C 84.587 293.365, 84.657 294.614, 84.007 294.831 C 83.453 295.016, 83 296.284, 83 297.649 C 83 304.059, 88.291 307.436, 97.311 306.784 C 102.304 306.423, 103.693 305.896, 105.651 303.620 C 108.840 299.912, 108.794 294.704, 105.545 291.455 C 103.536 289.445, 102.096 289, 97.604 289 C 94.587 289, 91.840 288.550, 91.500 288 C 91.125 287.393, 92.574 286.999, 95.191 286.996 C 103.096 286.989, 108.012 282.075, 106.745 275.446 C 106.407 273.678, 106.819 272.632, 108.132 271.929 C 109.878 270.995, 109.895 270.769, 108.385 268.465 C 106.561 265.681, 105.913 265.487, 104.190 267.210 M 306.065 267.422 C 305.201 268.463, 303.477 268.698, 299.627 268.301 C 290.070 267.315, 284.392 272.855, 286.827 280.789 C 287.557 283.168, 287.609 284.791, 286.975 285.425 C 285.684 286.716, 285.727 291.327, 287.042 292.642 C 287.766 293.366, 287.612 294.077, 286.542 294.965 C 284.688 296.503, 284.607 298.043, 286.195 301.528 C 287.857 305.175, 291.938 307, 298.435 307 C 303.116 307, 304.464 306.558, 307.184 304.127 C 311.269 300.477, 311.612 295.345, 308.026 291.527 C 306.019 289.391, 304.759 289, 299.885 289 C 296.713 289, 293.840 288.550, 293.500 288 C 293.119 287.384, 294.818 287, 297.925 287 C 302.073 287, 303.543 286.487, 306.201 284.112 C 308.974 281.634, 309.410 280.613, 309.263 276.938 C 309.143 273.923, 309.593 272.287, 310.783 271.417 C 312.360 270.264, 312.346 270.040, 310.582 268.090 C 308.349 265.623, 307.644 265.519, 306.065 267.422 M 52 282 L 52 296 56.462 296 L 60.925 296 61.212 286.785 C 61.489 277.910, 61.601 277.514, 64.241 276.035 C 66.325 274.868, 67.405 274.765, 68.741 275.606 C 70.185 276.514, 70.551 278.440, 70.786 286.356 L 71.072 296 75.036 296 L 79 296 79 285.950 C 79 271.790, 76.738 268, 68.288 268 C 66.174 268, 63.441 268.703, 62.215 269.562 C 60.193 270.978, 59.929 270.978, 59.385 269.562 C 59.005 268.571, 57.546 268, 55.393 268 L 52 268 52 282 M 113 282 L 113 296 117 296 L 121 296 121 282 L 121 268 117 268 L 113 268 113 282 M 127 282 L 127 296 131 296 L 135 296 135 287.500 C 135 280.249, 135.303 278.697, 137.061 276.939 C 139.688 274.312, 143.089 274.784, 144.710 278 C 145.403 279.375, 145.977 283.988, 145.985 288.250 L 146 296 150 296 L 154 296 154 286.968 C 154 277.028, 152.581 272.221, 148.883 269.631 C 145.976 267.594, 139.137 267.515, 136.324 269.486 C 134.448 270.800, 134.137 270.800, 133.633 269.486 C 133.302 268.624, 131.790 268, 130.031 268 L 127 268 127 282 M 164.304 269.956 C 158.964 273.212, 157.406 276.932, 157.849 285.368 C 157.947 287.237, 159.352 289.587, 161.882 292.118 C 165.433 295.668, 166.226 296, 171.160 296 C 177.813 296, 183.871 292.285, 183.968 288.145 C 184 286.775, 182.916 286.816, 172.736 288.573 C 169.096 289.201, 166 287.962, 166 285.878 C 166 285.395, 170.275 285, 175.500 285 L 185 285 185 281.968 C 185 271.059, 173.471 264.367, 164.304 269.956 M 194.299 269.900 C 185.623 275.351, 185.982 289.836, 194.906 294.451 C 198.670 296.398, 205.240 296.444, 208.901 294.551 C 211.347 293.286, 215 289.084, 215 287.535 C 215 286.554, 207.128 286.984, 206.500 288 C 205.693 289.306, 200.401 289.285, 197.934 287.965 C 193.984 285.851, 196.155 285, 205.500 285 L 215 285 215 280.485 C 215 276.762, 214.415 275.332, 211.665 272.331 C 208.766 269.168, 207.620 268.639, 202.915 268.290 C 198.727 267.980, 196.775 268.344, 194.299 269.900 M 219 282 L 219 296 223 296 L 227 296 227 288.111 C 227 278.804, 228.573 275.935, 233.758 275.788 C 236.836 275.700, 237 275.501, 237 271.848 C 237 268.390, 236.741 268, 234.450 268 C 233.048 268, 230.573 268.687, 228.950 269.526 C 226.306 270.893, 226 270.893, 226 269.526 C 226 268.449, 224.971 268, 222.500 268 L 219 268 219 282 M 241 282 L 241 296 245 296 L 249 296 249 282 L 249 268 245 268 L 241 268 241 282 M 255 282 L 255 296 259 296 L 263 296 263 287.500 C 263 280.249, 263.303 278.697, 265.061 276.939 C 267.688 274.312, 271.089 274.784, 272.710 278 C 273.403 279.375, 273.977 283.988, 273.985 288.250 L 274 296 278 296 L 282 296 282 286.968 C 282 277.028, 280.581 272.221, 276.883 269.631 C 273.976 267.594, 267.137 267.515, 264.324 269.486 C 262.448 270.800, 262.137 270.800, 261.633 269.486 C 261.302 268.624, 259.790 268, 258.031 268 L 255 268 255 282 M 335.110 269.396 C 332.933 270.602, 330.123 274.398, 330.035 276.250 C 329.982 277.381, 337.789 277.151, 338.500 276 C 339.387 274.564, 343.562 274.767, 344.840 276.308 C 345.700 277.344, 344.665 277.876, 339.856 278.869 C 332.643 280.359, 329 283.423, 329 288 C 329 294.595, 337.228 298.603, 344.515 295.558 C 347.132 294.465, 348.680 294.280, 349.377 294.977 C 349.940 295.540, 351.885 296, 353.700 296 C 356.700 296, 357 295.727, 357 293 C 357 291.112, 356.487 290, 355.617 290 C 353.817 290, 353.031 286.880, 353.014 279.673 C 353.002 274.576, 352.634 273.480, 350.077 270.923 C 347.638 268.484, 346.354 268.006, 342.327 268.035 C 339.672 268.055, 336.425 268.667, 335.110 269.396 M 360 282 L 360 296 364 296 L 368 296 368 287.500 C 368 280.249, 368.303 278.697, 370.061 276.939 C 372.688 274.312, 376.089 274.784, 377.710 278 C 378.403 279.375, 378.977 283.988, 378.985 288.250 L 379 296 383 296 L 387 296 386.994 287.750 C 386.988 277.565, 385.706 272.701, 382.331 270.045 C 379.217 267.596, 372.438 267.304, 369.324 269.486 C 367.448 270.800, 367.137 270.800, 366.633 269.486 C 366.302 268.624, 364.790 268, 363.031 268 L 360 268 360 282 M 91.649 276.471 C 91.011 278.136, 93.446 281, 95.500 281 C 97.554 281, 99.989 278.136, 99.351 276.471 C 99.012 275.589, 97.470 275, 95.500 275 C 93.530 275, 91.988 275.589, 91.649 276.471 M 167.441 276.468 C 165.654 277.820, 165.916 277.939, 170.750 277.968 C 175.844 277.999, 177.640 276.843, 174.418 275.607 C 171.840 274.618, 169.507 274.906, 167.441 276.468 M 198 276.500 C 196.920 277.801, 197.451 278, 202 278 C 206.549 278, 207.080 277.801, 206 276.500 C 205.315 275.675, 203.515 275, 202 275 C 200.485 275, 198.685 275.675, 198 276.500 M 294.356 276.514 C 294.003 277.434, 294.429 278.858, 295.326 279.755 C 296.648 281.077, 297.379 281.148, 299.534 280.166 C 303.197 278.498, 302.438 275.592, 298.235 275.186 C 295.942 274.965, 294.801 275.355, 294.356 276.514 M 400.058 277.431 C 397.975 279.940, 398.454 285.139, 400.954 287.164 C 403.863 289.519, 405.519 289.481, 408 287 C 410.392 284.608, 410.613 279.755, 408.429 277.571 C 406.466 275.609, 401.637 275.528, 400.058 277.431 M 342.157 285.059 C 337.911 285.982, 336.175 287.575, 337.727 289.127 C 339.318 290.718, 343.727 289.379, 345.052 286.903 C 346.447 284.295, 346.249 284.169, 342.157 285.059 M 90.675 296.658 C 89.371 297.962, 92.313 300, 95.500 300 C 98.687 300, 101.629 297.962, 100.325 296.658 C 99.963 296.296, 97.792 296, 95.500 296 C 93.208 296, 91.037 296.296, 90.675 296.658 M 293.500 297 C 292.419 298.749, 294.016 300, 297.309 299.985 C 301.115 299.966, 303.521 298.652, 302.569 297.112 C 301.714 295.729, 294.342 295.638, 293.500 297 M 53 332 L 53 352 57 352 L 61 352 61.015 344.250 C 61.032 334.944, 62.415 331.630, 66.474 331.164 C 70.925 330.654, 72 332.993, 72 343.191 L 72 352 76 352 L 80 352 80 342.468 C 80 331.340, 78.524 326.839, 74.128 324.566 C 70.372 322.624, 67.313 322.588, 63.750 324.447 L 61 325.881 61 318.941 L 61 312 57 312 L 53 312 53 332 M 139.046 313.445 C 137.191 315.679, 138.217 319.275, 141.182 320.933 C 143.630 322.303, 144.043 322.271, 145.932 320.562 C 148.231 318.481, 148.637 315.037, 146.800 313.200 C 145.146 311.546, 140.500 311.693, 139.046 313.445 M 212 332 L 212 352 216 352 L 220 352 220 332 L 220 312 216 312 L 212 312 212 332 M 300.046 313.445 C 298.191 315.679, 299.217 319.275, 302.182 320.933 C 304.630 322.303, 305.043 322.271, 306.932 320.562 C 309.231 318.481, 309.637 315.037, 307.800 313.200 C 306.146 311.546, 301.500 311.693, 300.046 313.445 M 22 332.560 L 22 352.121 25.750 351.810 L 29.500 351.500 29.793 344.886 L 30.085 338.271 35.734 337.688 C 42.632 336.976, 46.040 334.621, 47.937 329.254 C 49.120 325.905, 49.155 324.459, 48.132 321.047 C 46.234 314.711, 42.660 313.008, 31.250 313.004 L 22 313 22 332.560 M 244.500 314.161 C 239.177 317.088, 237.329 324.170, 240.651 328.912 C 241.559 330.209, 245.609 332.798, 249.651 334.665 C 255.751 337.484, 257 338.462, 257 340.423 C 257 342.907, 255.342 344, 251.573 344 C 249.222 344, 246 341.208, 246 339.171 C 246 338.465, 244.359 338, 241.869 338 L 237.738 338 238.326 341.624 C 238.650 343.617, 239.721 346.154, 240.707 347.262 C 244.480 351.500, 253.506 353.352, 258.316 350.875 C 263.311 348.303, 265 345.819, 265 341.048 C 265 334.922, 263.002 332.366, 255.625 329.056 C 252.256 327.544, 248.842 325.515, 248.038 324.546 C 246.738 322.980, 246.788 322.629, 248.479 321.392 C 251.033 319.524, 252.265 319.634, 255.273 322 C 256.671 323.100, 259.207 324, 260.908 324 C 263.454 324, 263.996 323.603, 263.978 321.750 C 263.952 319.120, 261.418 315.703, 258.316 314.117 C 255.536 312.695, 247.116 312.722, 244.500 314.161 M 30 325 L 30 330 33.977 330 C 37.052 330, 38.304 329.465, 39.500 327.641 C 42.177 323.555, 38.890 320, 32.435 320 C 30.180 320, 30 320.369, 30 325 M 119.500 323.945 C 114.302 326.073, 111.830 333.258, 115.152 336.581 C 115.969 337.398, 118.855 338.860, 121.564 339.829 C 124.468 340.868, 126.625 342.291, 126.818 343.296 C 127.304 345.816, 122.373 345.565, 121 343 C 120.246 341.591, 118.906 341, 116.465 341 C 113.510 341, 113 341.341, 113 343.313 C 113 347.153, 118.175 351.214, 123.749 351.750 C 127.924 352.151, 129.032 351.844, 131.795 349.519 C 138.127 344.191, 135.220 336.070, 126.388 334.413 C 122.504 333.684, 121.255 332.345, 122.912 330.688 C 123.763 329.837, 124.545 329.859, 126.011 330.775 C 128.422 332.281, 135 332.397, 135 330.934 C 135 325.569, 125.738 321.392, 119.500 323.945 M 161.500 323.733 C 154.835 325.401, 150.542 331.877, 151.245 339.198 C 152.419 351.412, 167.187 356.376, 175.538 347.364 C 179.337 343.266, 178.833 341, 174.122 341 C 171.896 341, 169.715 341.639, 169 342.500 C 167.286 344.565, 162.657 344.383, 160.655 342.171 C 157.253 338.412, 160.046 331, 164.865 331 C 165.891 331, 167.874 331.900, 169.273 333 C 170.763 334.172, 173.330 335, 175.475 335 C 178.806 335, 179.073 334.798, 178.452 332.750 C 176.466 326.201, 168.521 321.975, 161.500 323.733 M 188.329 324.403 C 185.318 325.765, 183 328.606, 183 330.934 C 183 332.356, 190.295 332.305, 191.727 330.873 C 193.225 329.375, 198 330.628, 198 332.519 C 198 333.547, 196.921 334, 194.468 334 C 189.859 334, 184.441 336.307, 183.080 338.850 C 181.879 341.094, 181.672 344.981, 182.621 347.455 C 184.144 351.424, 193.089 353.266, 197.898 350.600 C 199.897 349.492, 200.727 349.497, 202.898 350.630 C 207.415 352.987, 209 352.433, 209 348.500 C 209 346.174, 208.532 345, 207.606 345 C 206.560 345, 206.121 343.003, 205.849 337.016 C 205.530 329.988, 205.172 328.718, 202.861 326.406 C 199.656 323.201, 193.012 322.285, 188.329 324.403 M 278.500 323.733 C 268.246 326.300, 264.576 339.840, 272.045 347.546 C 275.677 351.294, 280.013 352.595, 285.461 351.573 C 289.424 350.830, 295 345.773, 295 342.923 C 295 341.356, 294.282 341, 291.122 341 C 288.896 341, 286.715 341.639, 286 342.500 C 284.286 344.565, 279.657 344.383, 277.655 342.171 C 274.253 338.412, 277.046 331, 281.865 331 C 282.891 331, 284.874 331.900, 286.273 333 C 287.763 334.172, 290.330 335, 292.475 335 C 295.806 335, 296.073 334.798, 295.452 332.750 C 293.466 326.201, 285.521 321.975, 278.500 323.733 M 321.619 324.003 C 312.715 326.766, 309.196 338.894, 315.115 346.419 C 319.413 351.884, 326.212 353.417, 332.633 350.370 C 335.906 348.817, 339 345.564, 339 343.677 C 339 342.817, 333.623 343.213, 327.349 344.534 C 324.832 345.064, 323.725 344.725, 321.849 342.849 L 319.500 340.500 329.877 340.214 L 340.254 339.927 339.717 335.926 C 338.491 326.784, 330.220 321.335, 321.619 324.003 M 356.500 323.684 C 355.400 323.971, 353.722 324.896, 352.771 325.739 C 351.213 327.120, 350.979 327.110, 350.414 325.636 C 350.002 324.562, 348.610 324, 346.365 324 L 342.944 324 343.222 337.750 L 343.500 351.500 347.500 351.500 L 351.500 351.500 352 342.211 C 352.539 332.201, 353.183 331.044, 358.231 331.015 C 361.507 330.997, 361.892 332.194, 362.248 343.500 L 362.500 351.500 366.250 351.810 L 370 352.121 370 341.076 C 370 330.426, 369.902 329.924, 367.250 327.013 C 364.497 323.992, 360.299 322.692, 356.500 323.684 M 381.962 325.250 C 371.752 330.398, 371.357 343.979, 381.241 350.005 C 387.350 353.730, 396.363 351.740, 399.926 345.881 C 401.010 344.099, 401.668 342.272, 401.389 341.821 C 400.685 340.682, 393 340.784, 393 341.933 C 393 343.072, 389.060 344.499, 387 344.106 C 384.277 343.586, 382 340.735, 382 337.845 C 382 334.395, 385.147 331, 388.345 331 C 389.635 331, 391.505 331.900, 392.500 333 C 394.464 335.170, 402 335.887, 402 333.904 C 402 331.273, 398.220 326.801, 394.456 324.979 C 389.237 322.452, 387.433 322.491, 381.962 325.250 M 412.467 324.998 C 407.319 327.546, 404.999 331.480, 405.004 337.654 C 405.010 346.125, 410.846 352, 419.253 352 C 423.019 352, 428.421 348.833, 430.770 345.250 C 432.209 343.053, 432.155 343, 428.443 343 C 426.352 343, 423.186 343.527, 421.405 344.170 C 418.699 345.149, 417.745 345.063, 415.584 343.647 C 411.149 340.741, 412.554 340, 422.500 340 L 432 340 432 336.368 C 432 331.268, 428.756 326.520, 423.961 324.601 C 418.794 322.534, 417.344 322.584, 412.467 324.998 M 442 323.706 C 438.418 325.016, 436 328.379, 436 332.052 C 436 336.360, 437.157 337.537, 443.693 339.875 C 446.499 340.879, 448.626 342.299, 448.818 343.296 C 449.304 345.816, 444.373 345.565, 443 343 C 441.473 340.146, 435 340.134, 435 342.984 C 435 346.227, 440.060 351, 444.196 351.657 C 452.001 352.897, 457 349.546, 457 343.073 C 457 338.499, 453.980 335.462, 448.388 334.413 C 444.504 333.684, 443.255 332.345, 444.912 330.688 C 445.763 329.837, 446.545 329.859, 448.011 330.775 C 450.422 332.281, 457 332.397, 457 330.934 C 457 325.828, 448.025 321.504, 442 323.706 M 81.225 325.250 C 81.466 325.938, 83.647 332.238, 86.072 339.250 C 88.580 346.506, 91.023 352, 91.740 352 C 93.458 352, 93.325 353.485, 91.470 355.025 C 90.265 356.025, 89.383 356.040, 87.311 355.096 C 84.563 353.844, 84.409 353.932, 81.988 358.145 C 80.499 360.735, 83.574 362.500, 89.573 362.500 C 97.549 362.500, 98.951 360.660, 105.111 342.110 C 107.962 333.524, 110.501 325.938, 110.754 325.250 C 111.073 324.382, 109.995 324, 107.224 324 L 103.233 324 99.780 333.631 L 96.327 343.261 92.942 333.631 L 89.557 324 85.171 324 C 82.096 324, 80.917 324.373, 81.225 325.250 M 139 338 L 139 352 143 352 L 147 352 147 338 L 147 324 143 324 L 139 324 139 338 M 300 338 L 300 352 304 352 L 308 352 308 338 L 308 324 304 324 L 300 324 300 338 M 322.861 331.967 L 320.500 333.933 325.750 333.967 C 331.157 334.001, 332.458 332.851, 329.066 331.035 C 326.376 329.595, 325.560 329.718, 322.861 331.967 M 414.861 331.967 L 412.500 333.933 418.500 333.933 L 424.500 333.933 422.139 331.967 C 420.841 330.885, 419.203 330, 418.500 330 C 417.797 330, 416.159 330.885, 414.861 331.967 M 192.250 341.031 C 188.982 342.345, 189.350 345, 192.800 345 C 195.788 345, 198 343.426, 198 341.300 C 198 339.819, 195.552 339.704, 192.250 341.031 M 423.050 368.440 C 421.467 370.347, 422.092 375.043, 424.095 376.296 C 426.667 377.905, 430.886 376.303, 431.603 373.444 C 432.805 368.658, 426.117 364.745, 423.050 368.440 M 22 387.500 L 22 407 26 407 L 30 407 30 400 C 30 394.539, 30.320 393, 31.456 393 C 32.257 393, 34.751 396.150, 37 400 L 41.088 407 45.639 407 L 50.190 407 47.406 402.250 C 41 391.322, 41.308 392.611, 44.265 389.097 C 47.955 384.711, 48.664 380.024, 46.353 375.293 C 43.732 369.927, 39.351 368.003, 29.750 368.002 L 22 368 22 387.500 M 216 387.500 L 216 407 220.500 407 L 225 407 225 398.057 C 225 389.949, 225.208 388.968, 227.223 387.557 C 232.898 383.581, 235 386.520, 235 398.434 L 235 407 239 407 L 243 407 243 396.934 C 243 386.495, 242.244 383.697, 238.633 380.772 C 235.953 378.601, 229.182 378.484, 226.223 380.557 L 224 382.113 224 375.057 L 224 368 220 368 L 216 368 216 387.500 M 270.500 369.417 C 266.773 371.081, 262.469 375.596, 261.064 379.315 C 257.867 387.776, 261.237 400.315, 267.898 404.742 C 271.940 407.428, 280.500 407.827, 284.931 405.536 C 288.258 403.815, 293 398.460, 293 396.423 C 293 394.048, 284.831 394.548, 282.684 397.056 C 281.326 398.642, 279.971 399.042, 276.745 398.806 C 273.270 398.552, 272.181 397.927, 270.283 395.102 C 266.359 389.261, 267.849 380.164, 273.181 377.406 C 276.767 375.552, 281.579 376.354, 283.288 379.090 C 284.159 380.484, 285.631 381, 288.741 381 C 293.579 381, 293.901 380.194, 290.962 375.439 C 287.150 369.270, 277.314 366.376, 270.500 369.417 M 436 387.500 L 436 407 440 407 L 444 407 444 387.500 L 444 368 440 368 L 436 368 436 387.500 M 29 381 C 29 385.913, 29.054 386, 32.066 386 C 36.639 386, 39 384.354, 39 381.165 C 39 377.408, 37.310 376, 32.800 376 L 29 376 29 381 M 58.500 379.954 C 54.202 381.732, 50 388.305, 50 393.249 C 50 396.819, 53.795 403.448, 56.883 405.272 C 58.617 406.296, 61.869 407, 64.869 407 C 69.104 407, 70.507 406.493, 73.465 403.896 C 78.194 399.744, 78.074 398, 73.059 398 C 70.891 398, 68.840 398.450, 68.500 399 C 67.397 400.785, 61.419 400.121, 59.500 398 C 57.701 396.012, 57.753 396, 67.981 396 L 78.272 396 77.654 391.492 C 76.909 386.059, 74.671 382.398, 70.901 380.449 C 67.862 378.877, 61.697 378.631, 58.500 379.954 M 83.923 381.923 C 78.483 387.363, 80.815 393.018, 89.547 395.557 C 94.907 397.115, 96.569 399.184, 93.428 400.389 C 91.655 401.070, 88 399.437, 88 397.965 C 88 397.434, 86.170 397, 83.933 397 C 80.190 397, 79.917 397.180, 80.511 399.250 C 80.866 400.488, 82.478 402.738, 84.094 404.250 C 86.541 406.541, 87.924 407, 92.379 407 C 96.824 407, 98.172 406.555, 100.364 404.364 C 103.660 401.068, 103.906 396.136, 100.911 393.405 C 99.762 392.357, 96.724 390.825, 94.161 390 C 91.597 389.175, 89.599 388.050, 89.719 387.500 C 90.018 386.134, 95 385.600, 95 386.934 C 95 387.520, 96.800 388, 99 388 C 103.943 388, 104.275 386.122, 100.077 381.923 C 97.602 379.449, 96.363 379, 92 379 C 87.637 379, 86.398 379.449, 83.923 381.923 M 112.304 380.956 C 106.964 384.212, 105.406 387.932, 105.849 396.368 C 105.947 398.237, 107.352 400.587, 109.882 403.118 C 113.433 406.668, 114.226 407, 119.160 407 C 125.813 407, 131.871 403.285, 131.968 399.145 C 132 397.775, 130.916 397.816, 120.736 399.573 C 117.096 400.201, 114 398.962, 114 396.878 C 114 396.395, 118.275 396, 123.500 396 L 133 396 133 392.968 C 133 382.059, 121.471 375.367, 112.304 380.956 M 140.077 381.589 C 138.385 383.013, 137 385.038, 137 386.089 C 137 387.652, 137.729 388, 141 388 C 143.200 388, 145 387.521, 145 386.937 C 145 385.577, 151.230 386.145, 151.689 387.547 C 151.877 388.122, 149.401 389.137, 146.186 389.801 C 139.102 391.264, 136 394.108, 136 399.140 C 136 404.309, 139.284 407, 145.592 407 C 148.358 407, 151.491 406.344, 152.670 405.518 C 154.539 404.210, 154.929 404.210, 156.015 405.518 C 156.692 406.333, 158.540 407, 160.122 407 C 162.629 407, 163 406.627, 163 404.107 C 163 402.458, 162.355 400.966, 161.500 400.638 C 160.402 400.217, 160 398.487, 160 394.181 C 160 383.023, 156.721 379, 147.626 379 C 144.273 379, 142.383 379.648, 140.077 381.589 M 166 393 L 166 407 170 407 L 174 407 174 399.111 C 174 389.804, 175.573 386.935, 180.758 386.788 C 183.836 386.700, 184 386.501, 184 382.848 C 184 379.315, 183.775 379.001, 181.250 379.006 C 179.738 379.010, 177.262 379.658, 175.750 380.447 C 173.359 381.694, 173 381.693, 173 380.441 C 173 379.461, 171.880 379, 169.500 379 L 166 379 166 393 M 192.241 380.995 C 185.704 384.980, 183.418 392.278, 186.440 399.510 C 188.432 404.279, 193.243 406.992, 199.715 406.996 C 204.087 406.999, 205.483 406.515, 208.349 403.998 C 210.229 402.348, 212.003 400.098, 212.290 398.998 C 212.753 397.230, 212.319 397, 208.529 397 C 205.941 397, 203.752 397.594, 203 398.500 C 199.908 402.225, 193 398.533, 193 393.155 C 193 387.864, 200.627 384.402, 203.532 388.375 C 204.734 390.018, 213.004 390.782, 212.996 389.250 C 212.994 388.837, 212.114 387.059, 211.040 385.299 C 207.273 379.119, 198.581 377.129, 192.241 380.995 M 302.304 380.956 C 293.273 386.463, 292.783 399.848, 301.420 405.114 C 305.623 407.677, 313.487 407.610, 317.810 404.974 C 323.982 401.212, 325.825 390.736, 321.386 384.652 C 317.329 379.090, 308.249 377.331, 302.304 380.956 M 328 390.077 C 328 400.987, 328.044 401.198, 330.923 404.077 C 333.314 406.468, 334.691 407, 338.489 407 C 341.042 407, 344.093 406.485, 345.268 405.857 C 346.871 404.999, 347.500 404.999, 347.786 405.857 C 347.995 406.485, 349.479 407, 351.083 407 L 354 407 354 392.940 L 354 378.879 350.250 379.190 L 346.500 379.500 346 388.789 C 345.473 398.581, 344.772 399.954, 340.285 399.985 C 337.004 400.007, 336 397.098, 336 387.566 L 336 379 332 379 L 328 379 328 390.077 M 360 393 L 360 407 364 407 L 368 407 368 399.565 C 368 390.376, 369.093 387.266, 372.633 386.377 C 377.242 385.220, 379 388.598, 379 398.611 L 379 407 383 407 L 387 407 387 397.968 C 387 388.028, 385.581 383.221, 381.883 380.631 C 378.948 378.575, 372.653 378.526, 369.586 380.536 C 367.478 381.917, 367.182 381.917, 366.652 380.536 C 366.301 379.622, 364.835 379, 363.031 379 L 360 379 360 393 M 397.314 380.891 C 389.123 386.038, 388.244 397.495, 395.549 403.909 C 398.483 406.485, 399.905 407, 404.084 407 C 410.187 407, 414.461 404.943, 416.483 401.033 C 417.317 399.419, 418 397.852, 418 397.550 C 418 396.296, 409.748 397.110, 408.357 398.500 C 406.022 400.835, 402.389 400.309, 400.016 397.293 C 397.745 394.405, 397.929 390.729, 400.477 388.125 C 402.301 386.260, 406.669 386.390, 408.862 388.375 C 411.214 390.503, 418 390.585, 418 388.485 C 418 387.652, 416.499 385.333, 414.665 383.331 C 411.766 380.168, 410.620 379.639, 405.915 379.290 C 401.733 378.980, 399.774 379.345, 397.314 380.891 M 423 393 L 423 407 427 407 L 431 407 431 393 L 431 379 427 379 L 423 379 423 393 M 60 387.500 C 58.920 388.801, 59.451 389, 64 389 C 68.549 389, 69.080 388.801, 68 387.500 C 67.315 386.675, 65.515 386, 64 386 C 62.485 386, 60.685 386.675, 60 387.500 M 115.441 387.468 C 113.654 388.820, 113.916 388.939, 118.750 388.968 C 123.844 388.999, 125.640 387.843, 122.418 386.607 C 119.840 385.618, 117.507 385.906, 115.441 387.468 M 305.733 387.750 C 302.943 390.846, 302.681 394.325, 305.016 397.293 C 309.998 403.627, 318.722 397.032, 314.917 389.809 C 312.696 385.594, 308.520 384.657, 305.733 387.750 M 144.601 397.303 C 142.934 398.521, 142.928 398.695, 144.505 400.004 C 145.951 401.205, 146.556 401.197, 148.765 399.952 C 150.181 399.153, 151.526 397.938, 151.753 397.250 C 152.312 395.561, 146.928 395.601, 144.601 397.303" stroke="none" fill="#2e2d62" fill-rule="evenodd"/><path d="M 191.340 18.250 C 191.699 27.738, 191.995 76.112, 191.997 125.750 L 192 216 288 216 L 384 216 384 191.500 L 384 167 330.390 167 L 276.779 167 277.141 84 L 277.503 1 234.094 1 L 190.685 1 191.340 18.250 M 146.469 75.250 L 140.500 81.500 146.750 75.531 C 150.188 72.249, 153 69.436, 153 69.281 C 153 68.542, 152.013 69.444, 146.469 75.250 M 142.500 87 C 144.648 89.200, 146.631 91, 146.906 91 C 147.181 91, 145.648 89.200, 143.500 87 C 141.352 84.800, 139.369 83, 139.094 83 C 138.819 83, 140.352 84.800, 142.500 87" stroke="none" fill="#34d5ae" fill-rule="evenodd"/><path d="M 278 94.991 L 278 166 331.007 166 L 384.013 166 383.757 95.250 L 383.500 24.500 330.750 24.241 L 278 23.982 278 94.991 M 44.428 68 C 44.428 80.375, 44.571 85.438, 44.747 79.250 C 44.922 73.063, 44.922 62.938, 44.747 56.750 C 44.571 50.563, 44.428 55.625, 44.428 68 M 75.426 67.500 C 75.427 79.600, 75.571 84.413, 75.747 78.195 C 75.923 71.977, 75.922 62.077, 75.746 56.195 C 75.569 50.313, 75.425 55.400, 75.426 67.500 M 158.469 63.250 L 152.500 69.500 158.750 63.531 C 162.188 60.249, 165 57.436, 165 57.281 C 165 56.542, 164.013 57.444, 158.469 63.250 M 151.500 96 C 154.209 98.750, 156.650 101, 156.925 101 C 157.200 101, 155.209 98.750, 152.500 96 C 149.791 93.250, 147.350 91, 147.075 91 C 146.800 91, 148.791 93.250, 151.500 96 M 96.405 115.500 C 96.406 124.300, 96.559 127.766, 96.745 123.203 C 96.930 118.639, 96.929 111.439, 96.742 107.203 C 96.555 102.966, 96.404 106.700, 96.405 115.500 M 44.422 136.344 C 44.138 137.083, 44.063 141.020, 44.254 145.094 L 44.603 152.500 44.801 144.284 L 45 136.068 55.750 135.746 L 66.500 135.425 55.719 135.212 C 47.464 135.050, 44.816 135.315, 44.422 136.344 M 110.479 135.732 L 121.961 136.063 122.260 157.282 L 122.559 178.500 122.529 157 L 122.500 135.500 110.748 135.450 L 98.997 135.400 110.479 135.732 M 151.250 135.742 C 154.963 135.934, 161.037 135.934, 164.750 135.742 C 168.463 135.549, 165.425 135.392, 158 135.392 C 150.575 135.392, 147.537 135.549, 151.250 135.742 M 99.232 144 C 99.232 145.925, 99.438 146.713, 99.689 145.750 C 99.941 144.787, 99.941 143.213, 99.689 142.250 C 99.438 141.287, 99.232 142.075, 99.232 144 M 44.395 181.500 C 44.396 189.200, 44.553 192.218, 44.743 188.206 C 44.934 184.195, 44.932 177.895, 44.741 174.206 C 44.549 170.518, 44.393 173.800, 44.395 181.500 M 96.286 184.500 C 96.294 187.250, 96.488 188.256, 96.718 186.736 C 96.947 185.216, 96.941 182.966, 96.704 181.736 C 96.467 180.506, 96.279 181.750, 96.286 184.500" stroke="none" fill="#16978a" fill-rule="evenodd"/><path d="M 277.243 95.250 L 277 167 330.750 166.759 L 384.500 166.518 331.257 166.250 L 278.013 165.982 277.750 94.741 L 277.486 23.500 277.243 95.250" stroke="none" fill="#33d3ab" fill-rule="evenodd"/><path d="M 191.480 120.500 C 191.480 173.300, 191.602 194.753, 191.750 168.174 C 191.898 141.595, 191.898 98.395, 191.750 72.174 C 191.601 45.953, 191.480 67.700, 191.480 120.500 M 27.789 45.741 C 31.248 45.937, 36.648 45.936, 39.789 45.738 C 42.930 45.540, 40.100 45.380, 33.500 45.382 C 26.900 45.384, 24.330 45.546, 27.789 45.741 M 85.750 45.747 C 91.938 45.922, 102.063 45.922, 108.250 45.747 C 114.438 45.571, 109.375 45.428, 97 45.428 C 84.625 45.428, 79.563 45.571, 85.750 45.747 M 146.405 47.250 C 144.508 49.490, 144.509 49.493, 146.540 47.785 C 148.149 46.433, 151.007 46.001, 160.040 45.748 L 171.500 45.428 159.905 45.214 C 148.978 45.012, 148.200 45.130, 146.405 47.250 M 167.437 54.250 L 164.500 57.500 167.750 54.563 C 170.779 51.825, 171.460 51, 170.687 51 C 170.515 51, 169.052 52.462, 167.437 54.250 M 161.500 106 C 164.209 108.750, 166.650 111, 166.925 111 C 167.200 111, 165.209 108.750, 162.500 106 C 159.791 103.250, 157.350 101, 157.075 101 C 156.800 101, 158.791 103.250, 161.500 106 M 46 167.558 C 49.716 168.367, 54.814 168.509, 54.371 167.791 C 54.102 167.356, 51.771 167.052, 49.191 167.116 C 46.611 167.180, 45.175 167.379, 46 167.558 M 102.250 179.742 C 105.963 179.934, 112.037 179.934, 115.750 179.742 C 119.463 179.549, 116.425 179.392, 109 179.392 C 101.575 179.392, 98.537 179.549, 102.250 179.742 M 151.250 179.742 C 154.963 179.934, 161.037 179.934, 164.750 179.742 C 168.463 179.549, 165.425 179.392, 158 179.392 C 150.575 179.392, 147.537 179.549, 151.250 179.742" stroke="none" fill="#26486f" fill-rule="evenodd"/></svg>