<?xml version="1.0" standalone="no"?>
<!DOCTYPE svg PUBLIC "-//W3C//DTD SVG 20010904//EN"
 "http://www.w3.org/TR/2001/REC-SVG-20010904/DTD/svg10.dtd">
<svg version="1.0" xmlns="http://www.w3.org/2000/svg"
 width="2529.000000pt" height="2505.000000pt" viewBox="0 0 2529.000000 2505.000000"
 preserveAspectRatio="xMidYMid meet">

<g transform="translate(0.000000,2505.000000) scale(0.100000,-0.100000)"
fill="#000000" stroke="none">
<path d="M10800 25039 c-47 -5 -143 -20 -213 -34 -921 -185 -1614 -935 -1739
-1880 -19 -147 -19 -3673 0 -3820 107 -813 627 -1479 1388 -1778 109 -43 288
-92 439 -120 108 -20 146 -21 1900 -24 1251 -3 1829 -1 1920 7 411 35 798 182
1130 429 131 98 342 310 439 440 233 314 376 673 421 1056 23 195 23 3605 0
3800 -88 751 -564 1410 -1251 1731 -205 96 -481 170 -718 193 -133 13 -3586
13 -3716 0z m3750 -339 c402 -49 810 -254 1095 -551 305 -319 481 -711 515
-1154 13 -158 13 -3402 0 -3560 -19 -241 -75 -456 -175 -663 -271 -564 -795
-949 -1410 -1037 -98 -14 -320 -15 -1960 -13 l-1850 4 -121 26 c-333 75 -601
211 -863 439 -254 221 -471 578 -554 914 -55 218 -52 112 -52 2110 0 2011 -3
1895 55 2120 166 649 700 1172 1355 1329 189 45 153 44 2065 45 1180 1 1845
-3 1900 -9z"/>
<path d="M12192 22614 c-142 -71 -176 -249 -70 -369 51 -57 107 -79 192 -73
86 5 139 41 179 118 25 48 28 64 25 126 -4 97 -41 158 -117 197 -72 36 -138
36 -209 1z"/>
<path d="M13053 22616 c-117 -55 -166 -204 -104 -323 41 -80 112 -123 206
-123 67 0 110 17 153 60 45 45 63 84 69 149 7 76 -11 134 -55 183 -72 79 -171
99 -269 54z"/>
<path d="M12473 21809 c-103 -13 -269 -57 -360 -95 -104 -43 -173 -82 -173
-97 0 -11 80 -258 85 -265 2 -2 21 8 42 21 111 70 277 121 453 139 307 31 512
-85 574 -324 7 -29 17 -95 21 -145 l7 -93 -121 0 c-217 0 -474 -40 -647 -101
-370 -130 -563 -357 -581 -684 -17 -317 172 -580 477 -662 93 -25 329 -25 423
1 166 44 313 130 415 242 33 36 62 61 65 57 2 -4 10 -68 17 -140 l13 -133 189
0 188 0 -5 23 c-21 90 -28 279 -35 887 -8 730 -8 725 -60 881 -91 269 -289
432 -587 484 -91 16 -294 18 -400 4z m657 -1326 c0 -104 -5 -217 -10 -253 -31
-198 -204 -380 -410 -431 -88 -22 -233 -17 -305 11 -161 62 -251 246 -215 440
49 271 331 412 838 419 l102 1 0 -187z"/>
<path d="M2085 25023 c-470 -42 -893 -216 -1245 -511 -361 -302 -621 -731
-724 -1195 -53 -237 -51 -162 -51 -2127 0 -2047 -4 -1906 70 -2195 196 -763
801 -1367 1568 -1564 267 -69 130 -65 2117 -69 1223 -2 1833 1 1915 8 319 28
644 132 918 293 302 178 596 472 774 774 158 269 261 586 293 902 14 142 14
3570 0 3712 -58 572 -336 1099 -772 1465 -304 255 -642 410 -1063 487 l-120
21 -1820 2 c-1001 0 -1838 -1 -1860 -3z m3831 -365 c625 -140 1114 -550 1349
-1133 46 -113 99 -319 117 -450 19 -147 19 -3613 0 -3759 -113 -833 -744
-1477 -1570 -1601 -82 -13 -372 -15 -1907 -15 -1189 0 -1840 4 -1895 10 -430
53 -862 283 -1151 613 -212 243 -357 534 -427 856 l-27 126 0 1885 0 1885 23
114 c45 220 125 429 236 611 295 483 791 807 1346 879 36 5 902 8 1925 7
l1860 -2 121 -26z"/>
<path d="M3172 22863 c-30 -6 -37 -26 -51 -163 -7 -63 -15 -125 -18 -136 -4
-20 0 -22 80 -26 70 -4 97 -10 149 -36 147 -72 263 -239 394 -564 62 -154 75
-206 63 -258 -7 -29 -678 -1758 -826 -2127 -4 -10 42 -13 210 -13 l215 0 20
58 c11 31 121 343 245 692 232 657 282 803 315 930 11 41 24 76 30 78 6 2 17
-23 26 -55 40 -146 173 -537 370 -1093 l214 -605 216 -3 c119 -1 216 0 216 3
0 9 -895 2384 -942 2500 -202 500 -406 750 -659 810 -59 14 -213 18 -267 8z"/>
<path d="M19700 25023 c-447 -26 -852 -171 -1205 -432 -132 -97 -361 -329
-457 -461 -226 -313 -356 -646 -410 -1045 -10 -80 -13 -453 -13 -1900 0 -1990
-3 -1886 64 -2160 41 -167 81 -277 161 -440 324 -665 950 -1112 1693 -1210
177 -23 3655 -23 3834 0 660 86 1231 453 1588 1020 133 212 241 490 292 757
l28 143 0 1890 c0 1792 -1 1895 -18 1995 -81 459 -272 845 -578 1164 -350 367
-781 585 -1314 667 -61 10 -507 13 -1845 14 -971 1 -1790 0 -1820 -2z m3634
-348 c858 -113 1522 -799 1605 -1659 15 -150 15 -3504 1 -3647 -61 -594 -386
-1109 -895 -1414 -189 -114 -397 -192 -630 -237 -109 -22 -119 -22 -1880 -25
-1839 -4 -1909 -3 -2110 38 -377 76 -759 298 -1010 587 -208 238 -366 551
-425 840 -40 200 -41 235 -37 2102 4 1982 -1 1828 62 2069 53 198 157 413 291
603 80 112 297 328 414 410 194 137 403 235 617 289 233 59 162 57 2100 58
1536 1 1798 -1 1897 -14z"/>
<path d="M20710 21200 l0 -1560 870 0 870 0 0 170 0 170 -665 0 -665 0 -2
1388 -3 1387 -202 3 -203 2 0 -1560z"/>
<path d="M10795 16353 c-22 -2 -96 -13 -164 -24 -845 -140 -1544 -786 -1751
-1618 -68 -273 -64 -140 -68 -2101 -2 -1236 0 -1814 8 -1905 88 -1040 871
-1855 1920 -1997 139 -19 3672 -19 3810 0 662 90 1208 429 1569 972 172 260
287 558 338 881 17 107 18 229 18 1969 0 1748 -1 1861 -18 1965 -66 399 -217
743 -457 1045 -77 97 -276 294 -365 362 -255 194 -575 344 -865 407 -246 52
-192 51 -2133 49 -991 -1 -1820 -3 -1842 -5z m3655 -333 c542 -48 1036 -330
1353 -771 137 -191 261 -479 307 -714 38 -193 41 -388 37 -2145 -4 -1827 -1
-1741 -57 -1961 -167 -654 -682 -1173 -1327 -1340 -238 -61 -174 -59 -2121
-59 -1869 0 -1864 0 -2057 44 -185 43 -423 142 -577 241 -464 300 -768 773
-843 1310 -13 96 -15 343 -13 1950 l3 1840 23 110 c98 460 346 858 703 1126
273 206 614 339 943 368 137 12 3488 13 3626 1z"/>
<path d="M13350 14463 c-61 -64 -120 -129 -131 -144 l-19 -28 92 -68 c51 -38
142 -108 201 -156 59 -48 114 -87 121 -87 14 0 180 168 234 237 l33 42 -98 86
c-119 105 -289 235 -307 235 -8 0 -64 -53 -126 -117z"/>
<path d="M13918 13933 c-50 -46 -228 -242 -228 -252 0 -4 27 -26 59 -49 32
-23 125 -94 206 -158 l148 -118 101 105 c56 57 115 121 130 142 l29 38 -29 30
c-66 70 -348 299 -367 299 -4 0 -26 -17 -49 -37z"/>
<path d="M13192 13842 c-48 -48 -109 -114 -136 -145 l-49 -58 24 -17 c49 -34
197 -148 292 -224 l98 -79 52 45 c47 39 166 172 203 224 12 18 5 27 -90 110
-106 94 -284 232 -299 232 -4 0 -47 -40 -95 -88z"/>
<path d="M14604 13060 c-43 -37 -112 -101 -152 -142 l-74 -75 31 -104 c41
-138 68 -267 76 -359 6 -68 5 -78 -17 -109 -35 -51 -87 -74 -168 -73 -175 1
-314 95 -356 240 -13 45 -16 81 -11 177 3 66 11 146 18 178 7 34 8 62 3 67 -5
5 -52 -14 -114 -48 l-105 -57 -46 -165 c-25 -91 -56 -185 -68 -209 -57 -110
-199 -201 -348 -223 -67 -9 -86 -9 -136 6 -83 24 -124 71 -178 199 -110 263
-143 336 -190 419 -28 49 -58 92 -65 95 -8 3 -23 -5 -34 -18 -39 -46 -167
-224 -190 -265 l-24 -41 83 -132 c176 -279 238 -425 271 -636 11 -69 11 -69
-26 -144 -86 -174 -319 -346 -602 -445 -183 -63 -359 -86 -533 -67 -139 15
-233 41 -349 98 -127 63 -247 179 -303 295 -114 236 -97 506 53 825 l39 84
-45 20 c-85 36 -89 35 -124 -13 -46 -63 -125 -229 -160 -338 -53 -163 -73
-309 -67 -500 5 -199 23 -278 98 -430 47 -94 63 -116 153 -205 82 -81 118
-109 191 -147 188 -97 368 -133 620 -125 390 13 748 157 986 396 148 150 228
324 261 573 l12 88 60 0 c232 1 427 80 570 230 l59 62 36 -40 c112 -123 282
-202 432 -202 142 1 248 49 364 165 96 96 149 186 201 340 32 95 38 126 42
227 2 64 -1 161 -7 215 -17 151 -61 371 -76 376 -6 3 -48 -25 -91 -63z"/>
<path d="M2040 16333 c-782 -59 -1467 -524 -1811 -1228 -108 -223 -170 -430
-204 -688 -13 -103 -15 -353 -15 -1908 0 -1204 4 -1822 11 -1887 42 -384 189
-758 422 -1072 82 -110 269 -305 377 -393 297 -240 655 -397 1055 -464 104
-17 217 -18 1965 -18 2055 0 1928 -4 2195 65 833 215 1464 902 1610 1755 34
196 36 362 33 2115 -5 1930 0 1801 -73 2087 -160 624 -586 1143 -1170 1424
-226 109 -501 185 -755 208 -105 10 -3516 13 -3640 4z m3707 -348 c787 -112
1407 -705 1565 -1496 l23 -114 3 -1820 c2 -1574 0 -1835 -13 -1935 -95 -734
-616 -1340 -1330 -1545 -128 -37 -239 -55 -405 -65 -191 -12 -3313 -12 -3500
0 -277 18 -488 75 -730 197 -175 88 -299 175 -437 307 -335 319 -529 720 -573
1181 -14 151 -14 3469 0 3620 71 744 571 1372 1275 1598 100 32 276 71 365 80
19 2 850 4 1845 5 1532 1 1826 -1 1912 -13z"/>
<path d="M3770 14244 l0 -284 -880 0 -880 0 0 -525 0 -525 155 0 155 0 0 375
0 375 1620 0 1620 0 0 -375 0 -375 160 0 160 0 0 525 0 525 -890 0 -890 0 0
234 0 234 35 12 c30 10 64 45 53 55 -2 2 -82 8 -178 14 -96 6 -190 13 -207 16
l-33 4 0 -285z"/>
<path d="M2590 12980 l0 -150 590 0 590 0 0 -390 0 -390 -945 0 -945 0 0 -150
0 -150 945 0 945 0 0 -579 c0 -540 -1 -580 -18 -601 -28 -35 -141 -43 -525
-35 l-338 6 44 -88 c25 -48 55 -119 67 -157 l24 -69 325 6 c329 6 414 14 534
52 116 37 186 121 207 251 6 33 10 309 10 637 l0 577 960 0 960 0 0 150 0 150
-960 0 -960 0 0 390 0 390 595 0 596 0 -3 148 -3 147 -1347 3 -1348 2 0 -150z"/>
<path d="M19570 16329 c-974 -111 -1746 -833 -1920 -1794 -11 -60 -25 -189
-31 -285 -15 -258 -7 -3547 10 -3655 62 -409 200 -748 427 -1052 78 -104 278
-309 384 -393 349 -277 759 -436 1213 -471 96 -7 710 -9 1902 -6 1942 4 1799
-1 2075 68 867 216 1519 951 1635 1842 13 102 15 361 15 1922 0 1996 2 1914
-65 2180 -225 895 -975 1544 -1897 1644 -119 13 -3635 13 -3748 0z m3666 -329
c330 -27 623 -129 894 -311 419 -282 693 -702 792 -1214 22 -109 22 -119 26
-1880 3 -1845 2 -1915 -39 -2114 -137 -669 -651 -1218 -1315 -1406 -224 -63
-81 -59 -2084 -63 -1317 -2 -1851 0 -1920 8 -552 66 -1033 364 -1340 830 -159
243 -261 531 -290 825 -8 77 -10 646 -8 1905 4 1795 4 1795 26 1907 81 417
310 815 620 1074 325 271 677 413 1102 442 129 9 3421 6 3536 -3z"/>
<path d="M20214 13797 c-2 -7 -3 -85 -2 -172 l3 -160 473 -3 472 -2 0 -1385 0
-1385 205 0 205 0 0 1385 0 1385 478 2 477 3 0 170 0 170 -1153 3 c-936 2
-1154 0 -1158 -11z"/>
<path d="M10899 7690 c-516 -34 -998 -247 -1368 -604 -366 -354 -581 -773
-658 -1281 -17 -113 -18 -233 -18 -1935 0 -1443 3 -1835 13 -1915 133 -1009
896 -1775 1902 -1911 164 -21 3667 -21 3837 1 940 122 1689 820 1872 1745 42
211 42 251 39 2145 -3 1689 -5 1827 -21 1915 -62 332 -168 601 -335 855 -354
536 -886 873 -1537 972 -99 15 -279 17 -1860 19 -962 1 -1802 -2 -1866 -6z
m3636 -340 c546 -63 1033 -358 1337 -810 181 -270 281 -563 309 -899 7 -82 9
-735 7 -1871 -3 -1608 -5 -1752 -21 -1840 -75 -410 -245 -745 -517 -1018 -274
-276 -601 -448 -995 -524 -109 -22 -120 -22 -1880 -26 -1251 -2 -1807 0 -1895
8 -879 78 -1571 750 -1680 1630 -6 56 -10 682 -10 1862 0 1923 -1 1883 54
2099 171 674 712 1202 1387 1353 63 14 150 29 194 34 115 13 3597 15 3710 2z"/>
<path d="M12064 5253 c32 -271 168 -439 406 -499 100 -25 320 -15 418 19 91
32 156 73 219 140 85 90 133 199 149 336 l7 61 -152 0 -151 0 0 -30 c0 -43
-37 -149 -68 -195 -99 -144 -310 -166 -431 -44 -51 50 -101 170 -101 241 l0
28 -151 0 -152 0 7 -57z"/>
<path d="M11710 3280 l0 -1120 235 0 235 0 23 37 c13 21 106 178 207 348 100
171 251 425 335 565 183 307 233 396 387 689 l119 226 -5 -115 c-3 -63 -8
-483 -12 -932 l-6 -818 196 0 196 0 0 1120 0 1120 -242 -2 -241 -3 -358 -594
c-361 -599 -472 -795 -615 -1083 -73 -147 -102 -190 -89 -135 12 53 25 710 25
1242 l0 575 -195 0 -195 0 0 -1120z"/>
<path d="M19528 7675 c-309 -42 -607 -146 -858 -299 -579 -353 -957 -944
-1042 -1626 -10 -83 -13 -483 -13 -1905 0 -1689 1 -1807 18 -1920 58 -384 186
-702 405 -1005 96 -132 325 -364 457 -461 311 -230 653 -366 1055 -421 139
-19 3661 -19 3800 0 827 113 1488 627 1786 1388 49 126 93 287 121 444 17 100
18 203 18 1995 l0 1890 -28 143 c-86 447 -291 836 -607 1152 -292 292 -645
489 -1045 583 -247 59 -183 57 -2158 56 -1445 -1 -1832 -4 -1909 -14z m3732
-326 c893 -82 1589 -773 1680 -1668 14 -143 14 -3497 -1 -3647 -69 -709 -539
-1318 -1209 -1564 -113 -42 -260 -77 -398 -95 -172 -23 -3594 -22 -3769 0
-390 51 -749 222 -1035 494 -321 305 -520 705 -567 1143 -15 132 -15 3567 -1
3693 35 302 137 579 305 830 308 460 809 761 1353 814 133 13 3503 13 3642 0z"/>
<path d="M20710 3700 l0 -1560 870 0 870 0 0 170 0 170 -665 0 -665 0 -2 1388
-3 1387 -202 3 -203 2 0 -1560z"/>
<path d="M1995 7658 c-381 -43 -747 -188 -1065 -422 -110 -80 -305 -267 -393
-376 -268 -332 -435 -741 -477 -1170 -8 -82 -10 -641 -8 -1925 l3 -1810 24
-125 c100 -535 355 -980 751 -1312 312 -261 670 -423 1100 -495 97 -16 241
-17 1855 -21 1185 -2 1796 0 1893 8 543 40 1031 264 1409 647 327 331 538 757
610 1229 17 111 18 236 18 1954 0 1724 -1 1842 -18 1950 -78 494 -279 892
-621 1236 -257 258 -524 422 -866 534 -152 50 -304 83 -455 100 -114 13 -3648
11 -3760 -2z m3690 -329 c234 -20 435 -74 643 -174 577 -277 966 -820 1042
-1455 8 -69 10 -601 7 -1925 -4 -2005 1 -1850 -62 -2082 -171 -628 -694 -1139
-1326 -1297 -227 -57 -172 -56 -2099 -56 -1148 0 -1807 4 -1865 10 -749 86
-1382 630 -1575 1355 -67 249 -63 125 -67 2025 -3 1155 -1 1773 6 1870 21 277
80 493 202 730 184 357 465 634 827 815 193 97 432 165 648 184 146 12 3471
13 3619 0z"/>
<path d="M2252 4388 c3 -7 155 -511 338 -1120 l334 -1108 187 0 187 0 75 223
c41 122 134 398 207 612 135 400 206 638 255 850 16 66 30 116 31 110 2 -5 24
-91 48 -190 53 -216 124 -448 334 -1105 l159 -495 188 0 189 0 358 1110 c196
611 358 1113 358 1118 0 4 -91 6 -202 5 l-201 -3 -164 -575 c-174 -610 -280
-1012 -308 -1173 -10 -54 -21 -95 -25 -90 -4 4 -22 69 -39 143 -47 193 -135
495 -334 1135 l-174 560 -174 3 -174 2 -149 -467 c-221 -691 -318 -1008 -366
-1193 -52 -204 -50 -194 -55 -188 -3 2 -16 58 -29 124 -38 185 -120 510 -427
1687 l-10 37 -210 0 c-165 0 -210 -3 -207 -12z"/>
</g>
</svg>
