<svg id="Layer_6" data-name="Layer 6" xmlns="http://www.w3.org/2000/svg" viewBox="0 0 606.57 601.07"><defs><style>.cls-1{fill:none;stroke:#94b9ab;stroke-miterlimit:10;stroke-width:8px;}.cls-2,.cls-4{font-size:111px;}.cls-2,.cls-3,.cls-4{fill:#94b9ab;}.cls-2{font-family:MyriadPro-Regular, Myriad Pro;}.cls-3{font-size:150.67px;font-family:AdobeArabic-Regular, Adobe Arabic;}.cls-4{font-family:KozGoPr6N-Regular-83pv-RKSJ-H, Kozuka Gothic Pr6N;}.cls-5{fill:#003c71;}</style></defs><rect class="cls-1" x="215.3" y="212.5" width="176" height="176" rx="48.48"/><rect class="cls-1" x="215.8" y="4" width="176" height="176" rx="48.48"/><rect class="cls-1" x="5.3" y="4.5" width="176" height="176" rx="48.48"/><rect class="cls-1" x="216.3" y="420.5" width="176" height="176" rx="48.48"/><rect class="cls-1" x="426.57" y="4.57" width="176" height="176" rx="48.48"/><rect class="cls-1" x="426.57" y="213" width="176" height="176" rx="48.48"/><rect class="cls-1" x="426.57" y="420.57" width="176" height="176" rx="48.48"/><rect class="cls-1" x="4" y="213.07" width="176" height="176" rx="48.48"/><rect class="cls-1" x="5" y="421.07" width="176" height="176" rx="48.48"/><text class="cls-2" transform="translate(70.16 132.09)">λ</text><text class="cls-2" transform="translate(278.47 132.4)">ä</text><text class="cls-3" transform="translate(248.61 320.79) scale(1.15 1)">ش</text><text class="cls-4" transform="translate(38.91 346.4)">宇</text><text class="cls-2" transform="translate(51.91 549.4)">w</text><text class="cls-2" transform="translate(272.82 549.4)">й</text><path class="cls-5" d="M948.33,693.57H958v66.65h32v8.16h-41.7Z" transform="translate(-451.55 -218.63)"/><path class="cls-5" d="M959.39,496.69H936.6v-8.16H992v8.16H969.1v66.65h-9.71Z" transform="translate(-451.55 -218.63)"/><path class="cls-5" d="M948.33,273.65H958v66.66h32v8.15h-41.7Z" transform="translate(-451.55 -218.63)"/></svg>