<svg xmlns="http://www.w3.org/2000/svg" width="225" height="225" viewBox="0 0 225 225" version="1.1"><path d="M 56.776 14.733 C 59.128 14.945, 62.728 14.942, 64.776 14.727 C 66.824 14.512, 64.900 14.339, 60.500 14.343 C 56.100 14.346, 54.424 14.522, 56.776 14.733 M 123 17.031 C 123 17.564, 123.675 18, 124.500 18 C 125.325 18, 126 17.823, 126 17.607 C 126 17.391, 125.325 16.955, 124.500 16.638 C 123.675 16.322, 123 16.499, 123 17.031 M 57.762 18.707 C 59.006 18.946, 60.806 18.937, 61.762 18.687 C 62.718 18.437, 61.700 18.241, 59.500 18.252 C 57.300 18.263, 56.518 18.468, 57.762 18.707 M 130 18.378 C 130 18.585, 130.787 19.373, 131.750 20.128 C 133.336 21.371, 133.371 21.336, 132.128 19.750 C 131.373 18.788, 130.585 18, 130.378 18 C 130.170 18, 130 18.170, 130 18.378 M 143.446 21.279 C 143.176 21.983, 143.088 31.321, 143.251 42.029 L 143.546 61.500 143.773 41.333 C 143.942 26.311, 144.319 21.038, 145.250 20.662 C 146.229 20.267, 146.222 20.141, 145.219 20.079 C 144.514 20.036, 143.716 20.576, 143.446 21.279 M 133.252 26.500 C 133.263 28.700, 133.468 29.482, 133.707 28.238 C 133.946 26.994, 133.937 25.194, 133.687 24.238 C 133.437 23.282, 133.241 24.300, 133.252 26.500 M 165.500 25 C 166.495 26.100, 167.535 27, 167.810 27 C 168.085 27, 167.495 26.100, 166.500 25 C 165.505 23.900, 164.465 23, 164.190 23 C 163.915 23, 164.505 23.900, 165.500 25 M 34.405 28.250 L 32.500 30.500 34.750 28.595 C 35.987 27.547, 37 26.535, 37 26.345 C 37 26.155, 36.845 26, 36.655 26 C 36.465 26, 35.453 27.012, 34.405 28.250 M 82 27.378 C 82 27.585, 82.787 28.373, 83.750 29.128 C 85.336 30.371, 85.371 30.336, 84.128 28.750 C 83.373 27.788, 82.585 27, 82.378 27 C 82.170 27, 82 27.170, 82 27.378 M 23.872 30.750 C 22.629 32.336, 22.664 32.371, 24.250 31.128 C 25.212 30.373, 26 29.585, 26 29.378 C 26 29.170, 25.830 29, 25.622 29 C 25.415 29, 24.627 29.788, 23.872 30.750 M 182.079 34.583 C 182.127 35.748, 182.364 35.985, 182.683 35.188 C 182.972 34.466, 182.936 33.603, 182.604 33.271 C 182.272 32.939, 182.036 33.529, 182.079 34.583 M 172.300 43 C 172.300 46.025, 172.487 47.263, 172.716 45.750 C 172.945 44.237, 172.945 41.763, 172.716 40.250 C 172.487 38.737, 172.300 39.975, 172.300 43 M 182.158 41 C 182.158 42.375, 182.385 42.938, 182.662 42.250 C 182.940 41.563, 182.940 40.438, 182.662 39.750 C 182.385 39.063, 182.158 39.625, 182.158 41 M 25.079 49.583 C 25.127 50.748, 25.364 50.985, 25.683 50.188 C 25.972 49.466, 25.936 48.603, 25.604 48.271 C 25.272 47.939, 25.036 48.529, 25.079 49.583 M 106.158 51 C 106.158 52.375, 106.385 52.938, 106.662 52.250 C 106.940 51.563, 106.940 50.438, 106.662 49.750 C 106.385 49.063, 106.158 49.625, 106.158 51 M 13.286 60.500 C 13.294 63.250, 13.488 64.256, 13.718 62.736 C 13.947 61.216, 13.941 58.966, 13.704 57.736 C 13.467 56.506, 13.279 57.750, 13.286 60.500 M 95.310 62.500 C 95.315 65.800, 95.502 67.029, 95.725 65.232 C 95.947 63.435, 95.943 60.735, 95.715 59.232 C 95.486 57.729, 95.304 59.200, 95.310 62.500 M 166.405 60.250 L 164.500 62.500 166.750 60.595 C 167.988 59.547, 169 58.535, 169 58.345 C 169 58.155, 168.845 58, 168.655 58 C 168.465 58, 167.453 59.013, 166.405 60.250 M 170.946 61.750 L 167.500 65.500 171.250 62.054 C 173.313 60.158, 175 58.471, 175 58.304 C 175 58.137, 174.863 58, 174.696 58 C 174.529 58, 172.842 59.688, 170.946 61.750 M 25.158 65 C 25.158 66.375, 25.385 66.938, 25.662 66.250 C 25.940 65.563, 25.940 64.438, 25.662 63.750 C 25.385 63.063, 25.158 63.625, 25.158 65 M 149.750 63.662 C 150.438 63.940, 151.563 63.940, 152.250 63.662 C 152.938 63.385, 152.375 63.158, 151 63.158 C 149.625 63.158, 149.063 63.385, 149.750 63.662 M 159.813 63.683 C 160.534 63.972, 161.397 63.936, 161.729 63.604 C 162.061 63.272, 161.471 63.036, 160.417 63.079 C 159.252 63.127, 159.015 63.364, 159.813 63.683 M 106.079 66.583 C 106.127 67.748, 106.364 67.985, 106.683 67.188 C 106.972 66.466, 106.936 65.603, 106.604 65.271 C 106.272 64.939, 106.036 65.529, 106.079 66.583 M 143.435 68.308 C 143.159 69.028, 143.076 74.990, 143.252 81.558 L 143.570 93.500 143.785 80.792 L 144 68.084 151.750 67.743 L 159.500 67.402 151.719 67.201 C 146.082 67.055, 143.799 67.361, 143.435 68.308 M 177 76.378 C 177 76.585, 177.787 77.373, 178.750 78.128 C 180.336 79.371, 180.371 79.336, 179.128 77.750 C 178.373 76.787, 177.585 76, 177.378 76 C 177.170 76, 177 76.170, 177 76.378 M 181 81.378 C 181 81.585, 181.787 82.373, 182.750 83.128 C 184.336 84.371, 184.371 84.336, 183.128 82.750 C 182.373 81.787, 181.585 81, 181.378 81 C 181.170 81, 181 81.170, 181 81.378 M 133.300 90 C 133.300 93.025, 133.487 94.263, 133.716 92.750 C 133.945 91.237, 133.945 88.763, 133.716 87.250 C 133.487 85.737, 133.300 86.975, 133.300 90 M 185 86.378 C 185 86.585, 185.787 87.373, 186.750 88.128 C 188.336 89.371, 188.371 89.336, 187.128 87.750 C 186.373 86.787, 185.585 86, 185.378 86 C 185.170 86, 185 86.170, 185 86.378 M 92.437 94.250 L 89.500 97.500 92.750 94.563 C 94.537 92.948, 96 91.485, 96 91.313 C 96 91.141, 95.859 91, 95.687 91 C 95.515 91, 94.052 92.463, 92.437 94.250 M 26.500 95 C 27.495 96.100, 28.535 97, 28.810 97 C 29.085 97, 28.495 96.100, 27.500 95 C 26.505 93.900, 25.465 93, 25.190 93 C 24.915 93, 25.505 93.900, 26.500 95 M 193 95.500 C 194.292 96.875, 195.574 98, 195.849 98 C 196.124 98, 195.292 96.875, 194 95.500 C 192.708 94.125, 191.426 93, 191.151 93 C 190.876 93, 191.708 94.125, 193 95.500 M 179 94.378 C 179 94.585, 179.787 95.373, 180.750 96.128 C 182.336 97.371, 182.371 97.336, 181.128 95.750 C 180.373 94.787, 179.585 94, 179.378 94 C 179.170 94, 179 94.170, 179 94.378 M 60.750 102.706 C 61.987 102.944, 64.013 102.944, 65.250 102.706 C 66.487 102.467, 65.475 102.272, 63 102.272 C 60.525 102.272, 59.513 102.467, 60.750 102.706 M 148.813 103.683 C 149.534 103.972, 150.397 103.936, 150.729 103.604 C 151.061 103.272, 150.471 103.036, 149.417 103.079 C 148.252 103.127, 148.015 103.364, 148.813 103.683 M 206.813 103.683 C 207.534 103.972, 208.397 103.936, 208.729 103.604 C 209.061 103.272, 208.471 103.036, 207.417 103.079 C 206.252 103.127, 206.015 103.364, 206.813 103.683 M 134.250 105.735 C 136.863 105.941, 141.137 105.941, 143.750 105.735 C 146.363 105.529, 144.225 105.360, 139 105.360 C 133.775 105.360, 131.637 105.529, 134.250 105.735 M 195.269 105.693 C 196.242 105.947, 197.592 105.930, 198.269 105.656 C 198.946 105.382, 198.150 105.175, 196.500 105.195 C 194.850 105.215, 194.296 105.439, 195.269 105.693 M 49.813 106.683 C 50.534 106.972, 51.397 106.936, 51.729 106.604 C 52.061 106.272, 51.471 106.036, 50.417 106.079 C 49.252 106.127, 49.015 106.364, 49.813 106.683 M 67.813 106.683 C 68.534 106.972, 69.397 106.936, 69.729 106.604 C 70.061 106.272, 69.471 106.036, 68.417 106.079 C 67.252 106.127, 67.015 106.364, 67.813 106.683 M 45 123 C 45 123.550, 46.039 124, 47.309 124 C 48.579 124, 50.491 124.639, 51.559 125.420 C 53.423 126.784, 53.500 128.392, 53.500 166.170 C 53.500 196.374, 53.202 206.022, 52.215 207.750 C 51.428 209.127, 49.973 210, 48.465 210 C 47.109 210, 46 210.450, 46 211 C 46 211.621, 51.500 212, 60.500 212 C 69.500 212, 75 211.621, 75 211 C 75 210.450, 73.537 209.993, 71.750 209.985 C 69.963 209.976, 67.905 209.592, 67.178 209.131 C 66.450 208.670, 65.449 206.539, 64.952 204.396 C 64.454 202.253, 64.037 184.667, 64.024 165.315 C 64.010 144.609, 64.405 129.066, 64.983 127.543 C 65.641 125.814, 66.967 124.757, 68.983 124.353 C 70.643 124.021, 72 123.356, 72 122.875 C 72 122.394, 65.925 122, 58.500 122 C 50.167 122, 45 122.383, 45 123 M 172 122.378 C 172 122.585, 172.787 123.373, 173.750 124.128 C 175.336 125.371, 175.371 125.336, 174.128 123.750 C 173.373 122.787, 172.585 122, 172.378 122 C 172.170 122, 172 122.170, 172 122.378 M 163 131.378 C 163 131.585, 163.787 132.373, 164.750 133.128 C 166.336 134.371, 166.371 134.336, 165.128 132.750 C 164.373 131.787, 163.585 131, 163.378 131 C 163.170 131, 163 131.170, 163 131.378 M 167.453 171 C 167.453 191.625, 167.586 200.063, 167.749 189.750 C 167.911 179.438, 167.911 162.563, 167.749 152.250 C 167.586 141.938, 167.453 150.375, 167.453 171 M 103.750 203.662 C 104.438 203.940, 105.563 203.940, 106.250 203.662 C 106.938 203.385, 106.375 203.158, 105 203.158 C 103.625 203.158, 103.063 203.385, 103.750 203.662 M 108 204.378 C 108 204.585, 108.787 205.373, 109.750 206.128 C 111.336 207.371, 111.371 207.336, 110.128 205.750 C 109.373 204.787, 108.585 204, 108.378 204 C 108.170 204, 108 204.170, 108 204.378 M 98.079 209.583 C 98.127 210.748, 98.364 210.985, 98.683 210.188 C 98.972 209.466, 98.936 208.603, 98.604 208.271 C 98.272 207.939, 98.036 208.529, 98.079 209.583 M 125.750 211.748 C 134.137 211.915, 147.863 211.915, 156.250 211.748 C 164.637 211.581, 157.775 211.444, 141 211.444 C 124.225 211.444, 117.362 211.581, 125.750 211.748" stroke="none" fill="#898eb1" fill-rule="evenodd"/><path d="M 44.597 16.993 C 41.350 18.030, 36.282 20.540, 33.333 22.571 C 30.384 24.601, 25.984 28.907, 23.555 32.138 C 21.126 35.370, 18.139 40.598, 16.918 43.757 C 15.434 47.594, 14.544 52.522, 14.236 58.606 C 13.895 65.334, 14.218 69.250, 15.476 73.606 C 16.412 76.847, 18.547 82.082, 20.221 85.237 C 21.895 88.392, 25.470 93.036, 28.164 95.557 C 30.859 98.078, 35.445 101.230, 38.355 102.562 C 41.265 103.895, 46.037 105.438, 48.960 105.992 C 51.882 106.547, 56.664 107, 59.587 107 C 62.510 107, 67.286 106.504, 70.201 105.898 C 73.115 105.292, 78.294 103.439, 81.710 101.781 C 85.610 99.887, 90.001 96.583, 93.515 92.899 C 96.898 89.353, 100.281 84.451, 102.070 80.505 C 103.698 76.915, 105.554 70.608, 106.194 66.489 C 107.082 60.777, 107.080 57.208, 106.185 51.450 C 105.539 47.297, 103.799 41.334, 102.317 38.200 C 100.835 35.065, 97.345 30.248, 94.561 27.496 C 91.778 24.744, 86.973 21.273, 83.885 19.782 C 80.797 18.291, 76.297 16.616, 73.885 16.060 C 71.473 15.504, 65.225 15.062, 60 15.078 C 53.517 15.098, 48.626 15.706, 44.597 16.993 M 124.283 16.616 C 124.621 16.955, 126.379 17.535, 128.189 17.905 C 130.259 18.328, 131.942 19.491, 132.725 21.039 C 133.650 22.867, 133.963 32.504, 133.942 58.500 C 133.926 77.750, 133.533 95.467, 133.068 97.872 C 132.604 100.276, 131.611 102.632, 130.862 103.106 C 130.113 103.581, 128.413 103.976, 127.083 103.985 C 125.754 103.993, 124.946 104.280, 125.288 104.622 C 125.630 104.964, 132.271 105.305, 140.045 105.380 C 147.820 105.456, 154.391 105.176, 154.649 104.759 C 154.907 104.341, 153.516 104, 151.559 104 C 149.392 104, 147.255 103.255, 146.094 102.094 C 144.732 100.732, 143.999 98.093, 143.526 92.844 C 143.162 88.805, 143.007 81.450, 143.182 76.500 L 143.500 67.500 151 67.244 C 155.125 67.102, 158.961 67.327, 159.525 67.744 C 160.089 68.160, 163.005 71.875, 166.004 76 C 169.003 80.125, 174.450 87.325, 178.109 92 C 182.037 97.019, 186.417 101.430, 188.806 102.772 C 191.866 104.491, 195.145 105.194, 202.279 105.663 C 208.868 106.096, 211.920 105.939, 212.413 105.141 C 212.886 104.375, 212.030 103.993, 209.809 103.978 C 207.989 103.966, 204.606 103.096, 202.291 102.045 C 199.976 100.994, 196.061 98.113, 193.591 95.643 C 191.121 93.173, 184.372 85.181, 178.594 77.883 L 168.088 64.613 172.614 59.775 C 175.103 57.113, 178.281 52.444, 179.675 49.398 C 181.405 45.620, 182.226 42.055, 182.259 38.180 C 182.293 34.266, 181.641 31.197, 180.163 28.308 C 178.984 26.002, 176.552 23.008, 174.759 21.654 C 172.967 20.300, 169.056 18.474, 166.068 17.596 C 161.957 16.388, 156.144 16, 142.152 16 C 131.985 16, 123.944 16.277, 124.283 16.616 M 51 19.381 C 47.975 20.048, 44.375 21.205, 43 21.953 C 41.625 22.700, 39.062 24.401, 37.305 25.733 C 35.548 27.064, 32.758 30.261, 31.105 32.837 C 29.452 35.412, 27.402 40.197, 26.550 43.470 C 25.697 46.743, 25 53.056, 25 57.500 C 25 61.944, 25.689 68.262, 26.532 71.540 C 27.374 74.818, 29.255 79.876, 30.711 82.781 C 32.167 85.685, 35.542 90.104, 38.211 92.601 C 40.880 95.097, 45.637 98.319, 48.782 99.761 C 53.415 101.884, 56.018 102.385, 62.500 102.402 C 68.551 102.418, 71.639 101.906, 75.176 100.300 C 77.747 99.133, 81.849 96.337, 84.290 94.087 C 86.882 91.697, 89.808 87.592, 91.321 84.219 C 92.747 81.043, 94.428 75.126, 95.057 71.071 C 95.721 66.793, 95.904 60.929, 95.494 57.099 C 95.106 53.470, 93.960 47.839, 92.948 44.587 C 91.936 41.336, 89.477 36.306, 87.482 33.410 C 85.488 30.514, 81.448 26.486, 78.504 24.459 C 75.466 22.366, 70.635 20.181, 67.327 19.402 C 64.122 18.648, 60.375 18.062, 59 18.099 C 57.625 18.137, 54.025 18.713, 51 19.381 M 143.667 20.667 C 143.300 21.033, 143 30.203, 143 41.044 C 143 57.658, 143.244 60.958, 144.556 62.046 C 145.413 62.758, 149.564 63.514, 153.806 63.731 C 160.244 64.060, 162.024 63.794, 164.710 62.101 C 166.475 60.989, 168.844 58.266, 169.974 56.052 C 171.104 53.837, 172.297 49.432, 172.625 46.262 C 172.968 42.958, 172.717 38.581, 172.037 36 C 171.385 33.525, 169.759 29.821, 168.424 27.770 C 167.090 25.718, 164.216 23.131, 162.039 22.020 C 159.203 20.573, 156.129 20, 151.207 20 C 147.426 20, 144.033 20.300, 143.667 20.667 M 165 124 C 163.900 125.100, 163 127.092, 163 128.427 C 163 129.826, 164.060 131.689, 165.500 132.821 L 168 134.788 168 171.394 L 168 208 139.655 208 C 112.580 208, 111.229 207.910, 109.500 206 C 108.505 204.900, 106.442 204, 104.916 204 C 103.391 204, 101.436 204.707, 100.571 205.571 C 99.707 206.436, 99 208.391, 99 209.916 C 99 211.442, 99.823 213.435, 100.829 214.345 C 101.835 215.255, 103.655 216, 104.874 216 C 106.093 216, 108.216 214.875, 109.591 213.500 L 112.091 211 141.545 211 L 171 211 171 172.910 C 171 135.280, 171.026 134.800, 173.125 133.100 C 174.350 132.108, 175.250 130.226, 175.250 128.656 C 175.250 127.159, 174.449 125.049, 173.470 123.967 C 172.491 122.885, 170.635 122, 169.345 122 C 168.055 122, 166.100 122.900, 165 124" stroke="none" fill="#e2e3ea" fill-rule="evenodd"/><path d="M -0 112.504 L -0 225.009 112.750 224.754 L 225.500 224.500 225.754 112.250 L 226.009 0 113.004 0 L 0 0 -0 112.504 M 0.483 113 C 0.483 174.875, 0.603 200.188, 0.750 169.250 C 0.897 138.313, 0.897 87.688, 0.750 56.750 C 0.603 25.813, 0.483 51.125, 0.483 113 M 48 15.604 C 44.975 16.414, 40.627 17.980, 38.338 19.085 C 36.048 20.190, 32.099 22.921, 29.561 25.155 C 27.023 27.389, 23.591 31.188, 21.933 33.598 C 20.275 36.008, 17.858 40.796, 16.562 44.240 C 15.266 47.683, 13.902 52.975, 13.531 56 C 13.160 59.025, 13.362 64.650, 13.979 68.500 C 14.597 72.350, 16.201 77.911, 17.545 80.858 C 18.889 83.805, 21.562 88.360, 23.486 90.980 C 25.409 93.601, 29.389 97.402, 32.329 99.427 C 35.269 101.452, 40.488 103.984, 43.927 105.054 C 48.335 106.426, 53.027 106.994, 59.839 106.979 C 67.411 106.962, 70.953 106.445, 76.220 104.586 C 79.916 103.281, 85.267 100.506, 88.111 98.418 C 90.955 96.331, 95.215 91.996, 97.579 88.786 C 99.942 85.576, 102.864 80.373, 104.074 77.225 C 105.646 73.129, 106.406 68.512, 106.743 61 C 107.145 52.042, 106.895 49.558, 105.040 44.083 C 103.844 40.554, 101.558 35.765, 99.960 33.441 C 98.361 31.118, 95.001 27.410, 92.493 25.203 C 89.985 22.995, 85.911 20.238, 83.439 19.076 C 80.967 17.915, 76.145 16.304, 72.723 15.497 C 69.300 14.690, 63.575 14.053, 60 14.081 C 56.425 14.109, 51.025 14.794, 48 15.604 M 123 17 C 123 17.550, 124.505 18, 126.345 18 C 128.477 18, 130.381 18.764, 131.595 20.106 C 133.400 22.102, 133.497 24.194, 133.437 59.856 C 133.395 85.416, 133.013 98.353, 132.247 100.157 C 131.510 101.895, 130.060 103.047, 128.060 103.487 C 126.377 103.856, 125 104.573, 125 105.079 C 125 105.599, 131.530 106, 140 106 C 148.681 106, 155 105.605, 155 105.061 C 155 104.545, 152.943 103.814, 150.428 103.437 C 146.831 102.897, 145.658 102.231, 144.928 100.311 C 144.418 98.968, 144 91.149, 144 82.935 L 144 68 151.847 68 L 159.695 68 169.084 80.750 C 174.247 87.763, 180.279 95.480, 182.486 97.901 C 184.694 100.321, 188.300 103.124, 190.500 104.129 C 193.438 105.471, 196.955 105.962, 203.750 105.978 C 208.838 105.990, 213 105.590, 213 105.088 C 213 104.586, 211.088 103.857, 208.750 103.468 C 206.412 103.079, 202.925 101.951, 201 100.961 C 199.075 99.971, 195.425 96.988, 192.889 94.331 C 190.352 91.674, 183.896 83.993, 178.542 77.263 L 168.807 65.026 173.043 60.263 C 175.373 57.643, 178.417 53.046, 179.806 50.047 C 181.196 47.048, 182.541 42.427, 182.795 39.779 C 183.095 36.657, 182.663 33.407, 181.567 30.536 C 180.637 28.100, 178.216 24.493, 176.188 22.521 C 174.009 20.402, 170.482 18.334, 167.568 17.467 C 163.958 16.393, 157.330 16, 142.818 16 C 130.273 16, 123 16.367, 123 17 M 45.600 21.473 C 42.355 22.807, 38.154 25.384, 36.265 27.199 C 34.375 29.015, 31.729 32.363, 30.384 34.641 C 29.039 36.918, 27.234 42.093, 26.374 46.141 C 25.297 51.213, 25.002 55.896, 25.425 61.209 C 25.763 65.450, 26.920 71.750, 27.995 75.209 C 29.070 78.669, 31.571 83.896, 33.552 86.825 C 35.533 89.754, 39.166 93.579, 41.624 95.325 C 44.083 97.071, 48.211 99.269, 50.797 100.208 C 53.413 101.159, 58.490 101.935, 62.239 101.958 C 66.521 101.985, 70.795 101.310, 73.960 100.107 C 76.700 99.066, 80.745 96.786, 82.949 95.040 C 85.605 92.937, 88.205 89.341, 90.656 84.382 C 94.071 77.471, 94.388 76.077, 94.796 66.180 C 95.053 59.956, 94.742 53.073, 94.054 49.762 C 93.403 46.626, 91.524 41.366, 89.878 38.071 C 88.125 34.563, 84.817 30.223, 81.894 27.595 C 79.149 25.127, 74.433 22.183, 71.414 21.054 C 67.703 19.665, 63.589 19.008, 58.712 19.024 C 53.407 19.041, 49.940 19.689, 45.600 21.473 M 145.250 20.662 C 144.307 21.043, 144 26.182, 144 41.564 L 144 61.962 146.750 62.657 C 148.262 63.039, 152.279 63.385, 155.676 63.426 C 160.435 63.483, 162.487 63.027, 164.615 61.438 C 166.134 60.304, 168.272 58.177, 169.366 56.711 C 170.874 54.692, 171.465 51.976, 171.805 45.499 C 172.140 39.120, 171.838 35.863, 170.614 32.660 C 169.713 30.300, 167.518 26.996, 165.738 25.318 C 163.957 23.641, 160.970 21.758, 159.101 21.134 C 157.231 20.510, 153.631 20.036, 151.101 20.079 C 148.570 20.122, 145.938 20.385, 145.250 20.662 M 45 123 C 45 123.550, 46.039 124, 47.309 124 C 48.579 124, 50.491 124.639, 51.559 125.420 C 53.423 126.784, 53.500 128.392, 53.500 166.170 C 53.500 196.374, 53.202 206.022, 52.215 207.750 C 51.428 209.127, 49.973 210, 48.465 210 C 47.109 210, 46 210.450, 46 211 C 46 211.621, 51.500 212, 60.500 212 C 69.500 212, 75 211.621, 75 211 C 75 210.450, 73.537 209.993, 71.750 209.985 C 69.963 209.976, 67.905 209.592, 67.178 209.131 C 66.450 208.670, 65.449 206.539, 64.952 204.396 C 64.454 202.253, 64.037 184.667, 64.024 165.315 C 64.010 144.609, 64.405 129.066, 64.983 127.543 C 65.641 125.814, 66.967 124.757, 68.983 124.353 C 70.643 124.021, 72 123.356, 72 122.875 C 72 122.394, 65.925 122, 58.500 122 C 50.167 122, 45 122.383, 45 123 M 164.655 123.829 C 163.745 124.835, 163 127.081, 163 128.820 C 163 130.900, 163.685 132.411, 165 133.232 C 166.941 134.444, 167 135.564, 167 171.241 L 167 208 139.545 208 L 112.091 208 109.591 205.500 C 108.216 204.125, 106.150 203, 105 203 C 103.850 203, 101.761 204.148, 100.359 205.550 C 98.381 207.528, 97.955 208.707, 98.459 210.800 C 98.817 212.285, 99.846 214.063, 100.746 214.750 C 101.646 215.437, 103.651 216, 105.201 216 C 106.782 216, 108.771 215.122, 109.732 214 C 111.373 212.083, 112.682 212, 141.222 212 L 171 212 171 173.674 L 171 135.349 173.500 133 C 174.875 131.708, 176 129.705, 176 128.548 C 176 127.391, 175.299 125.445, 174.443 124.223 C 173.371 122.692, 171.863 122, 169.598 122 C 167.683 122, 165.619 122.763, 164.655 123.829" stroke="none" fill="#0c2454" fill-rule="evenodd"/></svg>