<svg xmlns="http://www.w3.org/2000/svg" width="450" height="287" viewBox="0 0 450 287" version="1.1"><path d="M 244.974 50.872 C 234.922 60.924, 246.183 76.128, 258.835 69.585 C 263.545 67.150, 265.769 60.775, 263.665 55.741 C 260.332 47.764, 250.614 45.233, 244.974 50.872 M 280.211 124.129 C 275.499 125.488, 269.335 132.043, 267.957 137.161 C 265.787 145.219, 268.891 153.531, 275.925 158.500 C 279.548 161.059, 281.090 161.500, 286.409 161.500 C 291.501 161.500, 293.390 161.007, 296.700 158.817 C 315.863 146.136, 302.365 117.740, 280.211 124.129 M 387.174 218.314 C 384.854 220.784, 384.290 225.805, 385.979 228.961 C 387.157 231.163, 392.385 233.152, 394.778 232.309 C 404.102 229.023, 402.570 216, 392.860 216 C 390.483 216, 388.646 216.747, 387.174 218.314 M 238.077 239.077 C 235.458 241.696, 235 242.901, 235 247.177 C 235 251.556, 235.436 252.636, 238.400 255.600 C 241.025 258.225, 242.632 259, 245.450 259 C 252.944 259, 258 253.944, 258 246.450 C 258 243.632, 257.225 242.025, 254.600 239.400 C 251.636 236.436, 250.556 236, 246.177 236 C 241.901 236, 240.696 236.458, 238.077 239.077" stroke="none" fill="#f7a800" fill-rule="evenodd"/><path d="" stroke="none" fill="#000000" fill-rule="evenodd"/><path d="M 278 76.947 C 256.309 80.053, 237.257 93.467, 228.165 112.034 C 225.885 116.690, 223.340 123.182, 222.510 126.460 C 220.557 134.169, 220.557 150.831, 222.510 158.540 C 229.861 187.557, 256.208 208.193, 286 208.266 C 297.683 208.294, 304.886 206.622, 315.911 201.322 C 323.578 197.637, 326.735 195.380, 332.940 189.149 C 340.947 181.109, 347.654 170.020, 349.966 161 C 350.600 158.525, 351.348 155.713, 351.627 154.750 C 352.093 153.143, 350.997 153, 338.176 153 L 324.217 153 323.538 155.750 C 322.524 159.855, 317.391 167.414, 312.803 171.559 C 310.572 173.575, 305.766 176.634, 302.123 178.357 C 296.229 181.145, 294.509 181.490, 286.500 181.490 C 278.475 181.490, 276.776 181.148, 270.820 178.330 C 261.551 173.946, 255.732 168.261, 251.267 159.227 C 247.825 152.261, 247.563 151.093, 247.533 142.567 C 247.502 133.949, 247.726 132.941, 251.266 125.778 C 263.538 100.943, 295.365 95.434, 314.321 114.862 C 318.749 119.401, 324 127.965, 324 130.649 C 324 131.720, 326.919 132, 338.067 132 C 350.992 132, 352.094 131.858, 351.627 130.250 C 351.348 129.287, 350.598 126.487, 349.961 124.026 C 345.745 107.743, 331.714 91.054, 315.657 83.225 C 304.347 77.711, 289.707 75.270, 278 76.947 M 0.243 142.750 L 0.500 208.500 13.750 208.779 L 27 209.058 27 183.029 L 27 157 35.840 157 L 44.680 157 57.366 183 L 70.053 209 85.026 209 C 93.543 209, 100 208.601, 100 208.074 C 100 207.565, 93.700 195.027, 86 180.211 C 78.300 165.396, 72 153.031, 72 152.733 C 72 152.435, 74.389 150.842, 77.310 149.194 C 83.802 145.530, 88.463 140.371, 91.899 133.046 C 94.169 128.207, 94.496 126.226, 94.465 117.500 C 94.436 109.484, 93.976 106.360, 92.144 101.753 C 89.354 94.738, 81.918 86.362, 75.264 82.740 C 65.772 77.574, 61.175 77, 29.283 77 L -0.014 77 0.243 142.750 M 125.745 142.224 C 112.682 178.126, 101.995 207.850, 101.997 208.278 C 101.998 208.706, 108.173 208.931, 115.719 208.778 L 129.438 208.500 133.349 197.250 L 137.261 186 163.563 186 L 189.865 186 193.650 197.500 L 197.435 209 211.285 209 C 224.465 209, 225.105 208.908, 224.528 207.089 C 224.195 206.038, 213.421 176.450, 200.587 141.339 L 177.252 77.500 163.374 77.224 L 149.497 76.948 125.745 142.224 M 364 142.500 L 364 208 407 208 L 450 208 450 196.500 L 450 185 420.500 185 L 391 185 391 169.500 L 391 154 416.500 154 L 442 154 442 142 L 442 130 416.500 130 L 391 130 391 115 L 391 100 420.500 100 L 450 100 450 88.500 L 450 77 407 77 L 364 77 364 142.500 M 27 117.500 L 27 134 41.343 134 C 54.363 134, 56.085 133.789, 60.015 131.710 C 71.002 125.900, 71.002 109.100, 60.015 103.290 C 56.085 101.211, 54.363 101, 41.343 101 L 27 101 27 117.500 M 154.584 135.250 C 149.709 149.137, 145.510 161.063, 145.253 161.750 C 144.890 162.722, 148.925 163, 163.393 163 C 173.627 163, 182.002 162.662, 182.005 162.250 C 182.016 160.790, 164.492 110.021, 163.973 110.011 C 163.684 110.005, 159.458 121.362, 154.584 135.250" stroke="none" fill="#142c4c" fill-rule="evenodd"/><path d="M 298.217 1.561 C 295.553 3.427, 293 8.070, 293 11.049 C 293 14.645, 296.107 20.004, 299.085 21.544 C 305.209 24.711, 312.591 22.488, 315.365 16.643 C 317.393 12.370, 317.428 9.727, 315.506 6.011 C 313.334 1.811, 310.168 -0, 305 -0 C 302.491 -0, 299.444 0.701, 298.217 1.561 M 244.500 3.665 C 237.337 7.450, 233.857 13.352, 233.857 21.717 C 233.857 28.993, 237.645 35.353, 244 38.750 C 250.506 42.228, 259.368 41.649, 264.713 37.397 C 272.319 31.346, 275.065 20.934, 271.092 13.210 C 268.764 8.685, 264.462 4.491, 260.685 3.064 C 256.584 1.514, 247.965 1.834, 244.500 3.665 M 341.293 16.389 C 320.746 23.104, 317.780 51.582, 336.487 62.545 C 345.667 67.925, 357.561 66.779, 365.552 59.745 C 372.115 53.968, 374.378 49.036, 374.382 40.500 C 374.385 32.711, 372.812 28.665, 367.638 23.162 C 361.155 16.267, 350.247 13.462, 341.293 16.389 M 210.190 20.969 C 205.664 23.805, 203.455 29.238, 204.885 34.012 C 206.607 39.759, 210.247 42.500, 216.157 42.500 C 220.679 42.500, 221.490 42.133, 224.694 38.637 C 227.913 35.124, 228.188 34.364, 227.726 30.265 C 226.717 21.308, 217.471 16.407, 210.190 20.969 M 295.763 44.565 C 292.308 46.440, 290 50.840, 290 55.550 C 290 58.368, 290.775 59.975, 293.400 62.600 C 296.364 65.564, 297.444 66, 301.823 66 C 306.099 66, 307.304 65.542, 309.923 62.923 C 312.542 60.304, 313 59.099, 313 54.823 C 313 50.444, 312.564 49.364, 309.600 46.400 C 306.885 43.685, 305.424 43.008, 302.350 43.040 C 300.233 43.062, 297.268 43.748, 295.763 44.565 M 385.635 51.073 C 383.611 52.665, 383 54.030, 383 56.962 C 383 62.549, 385.737 65.455, 391 65.455 C 396.263 65.455, 399 62.549, 399 56.962 C 399 52.498, 395.485 49, 391 49 C 389.498 49, 387.084 49.933, 385.635 51.073 M 171.589 56.077 C 168.196 60.109, 168.298 63.452, 171.923 67.077 C 175.043 70.197, 177.794 70.712, 181.316 68.837 C 189.219 64.627, 186.516 53, 177.634 53 C 175.002 53, 173.560 53.734, 171.589 56.077 M 206 59.124 C 194.653 62.514, 188.889 75.554, 193.880 86.541 C 199.809 99.595, 216.981 101.759, 226.709 90.678 C 230.324 86.562, 231.460 82.141, 230.765 74.904 C 230.233 69.370, 226.513 63.804, 221.307 60.753 C 217.505 58.525, 210.499 57.780, 206 59.124 M 337.073 76.635 C 332.810 82.054, 336.031 90, 342.491 90 C 347.247 90, 348.864 89.164, 350.600 85.806 C 353.738 79.739, 349.970 74, 342.850 74 C 340.039 74, 338.645 74.635, 337.073 76.635 M 336.198 201.673 C 327.873 205.775, 327.970 218.385, 336.357 222.365 C 340.630 224.393, 343.273 224.428, 346.989 222.506 C 351.189 220.334, 353 217.168, 353 212 C 353 206.832, 351.189 203.666, 346.989 201.494 C 343.297 199.585, 340.335 199.634, 336.198 201.673 M 239.315 206.969 C 234.324 209.067, 233.306 217.523, 237.635 220.927 C 243.279 225.367, 251 221.965, 251 215.038 C 251 212.873, 250.243 210.310, 249.250 209.114 C 247.222 206.672, 242.466 205.645, 239.315 206.969 M 168.923 210.923 C 164.918 214.928, 165.326 220.196, 169.913 223.718 C 174.723 227.411, 183 223.142, 183 216.969 C 183 212.987, 178.274 208, 174.500 208 C 172.900 208, 170.685 209.161, 168.923 210.923 M 296.627 216.468 C 282.593 221.471, 275.887 238.353, 282.590 251.805 C 292.858 272.410, 323.118 269.601, 329.559 247.445 C 335.286 227.743, 315.970 209.574, 296.627 216.468 M 199.732 224.077 C 197.660 225.171, 194.645 227.888, 193.031 230.115 C 183.587 243.153, 192.815 261, 209 261 C 225.744 261, 235.005 241.667, 224.336 228.987 C 218.565 222.128, 207.578 219.936, 199.732 224.077 M 367.388 233.980 C 363.810 235.426, 361 239.915, 361 244.185 C 361 251.981, 365.625 256.555, 373.307 256.353 C 376.644 256.266, 377.988 255.590, 380.693 252.638 C 389.371 243.169, 379.367 229.140, 367.388 233.980 M 262.077 267.077 C 259.458 269.696, 259 270.901, 259 275.177 C 259 279.556, 259.436 280.636, 262.400 283.600 C 265.025 286.225, 266.632 287, 269.450 287 C 274.271 287, 278.611 284.652, 280.483 281.033 C 283.109 275.956, 282.460 271.260, 278.600 267.400 C 275.636 264.436, 274.556 264, 270.177 264 C 265.901 264, 264.696 264.458, 262.077 267.077 M 329.635 267.073 C 327.611 268.665, 327 270.030, 327 272.962 C 327 278.549, 329.737 281.455, 335 281.455 C 340.263 281.455, 343 278.549, 343 272.962 C 343 268.498, 339.485 265, 335 265 C 333.498 265, 331.084 265.933, 329.635 267.073" stroke="none" fill="#b7b2ab" fill-rule="evenodd"/></svg>