<svg xmlns="http://www.w3.org/2000/svg" width="512" height="512" viewBox="0 0 512 512" version="1.1"><path d="" stroke="none" fill="#045cb4" fill-rule="evenodd"/><path d="M 1.617 209.750 C 1.319 211.262, 0.783 214.637, 0.424 217.250 L -0.227 222 16.954 222 C 32.852 222, 34.095 222.131, 33.605 223.750 C 33.314 224.713, 32.636 228.200, 32.099 231.500 C 30.964 238.468, 28.487 252.564, 23.534 280.247 C 21.590 291.107, 20 300.670, 20 301.497 C 20 302.734, 21.768 303, 30 303 C 35.500 303, 40 302.609, 40 302.131 C 40 301.653, 40.699 297.266, 41.554 292.381 C 42.409 287.496, 43.966 278.550, 45.014 272.500 C 47.506 258.115, 52.870 228.255, 53.592 224.750 L 54.159 222 71.579 222 C 88.956 222, 89 221.994, 89.077 219.750 C 89.119 218.512, 89.295 216.825, 89.468 216 C 89.641 215.175, 90.106 212.813, 90.502 210.750 L 91.223 207 46.691 207 L 2.159 207 1.617 209.750 M 472.103 226.657 C 471.396 230.868, 470.585 234.918, 470.301 235.657 C 469.916 236.662, 467.169 237, 459.393 237 C 453.677 237, 449 237.302, 449 237.670 C 449 238.039, 450.688 240.960, 452.750 244.161 L 456.500 249.983 462.225 249.991 L 467.950 250 467.395 253.250 C 467.090 255.037, 466.213 259.875, 465.448 264 C 463.171 276.261, 459 300.813, 459 301.947 C 459 302.614, 462.666 303, 469 303 C 474.500 303, 479 302.663, 479.001 302.250 C 479.002 301.387, 484.196 271.713, 486.609 258.780 L 488.237 250.060 500.294 249.780 L 512.352 249.500 506.426 245.067 C 503.167 242.629, 500.275 240.357, 500 240.020 C 499.285 239.141, 474.093 219, 473.709 219 C 473.534 219, 472.811 222.446, 472.103 226.657 M 92 237.469 C 84.674 239.569, 82.257 240.747, 76.400 245.074 C 58.774 258.095, 55.352 285.071, 69.814 297 C 76.572 302.575, 83.046 304.390, 96 304.341 C 107.737 304.298, 112.842 303.376, 121.250 299.783 C 125.060 298.155, 126 297.272, 126 295.320 C 126 293.981, 126.508 290.869, 127.128 288.405 C 127.749 285.940, 128.009 283.676, 127.707 283.374 C 127.404 283.071, 125.209 283.938, 122.829 285.299 C 115.692 289.380, 108.177 291.352, 100 291.287 C 87.462 291.189, 80.659 287.036, 79.850 278.986 L 79.500 275.500 105.429 275 L 131.358 274.500 132.219 271.500 C 132.693 269.850, 133.149 265.575, 133.233 262 C 133.514 249.961, 127.621 241.256, 116.715 237.603 C 110.994 235.686, 98.455 235.619, 92 237.469 M 147.552 237.207 C 147.321 237.918, 146.909 240.525, 146.634 243 C 145.876 249.850, 145.082 254.846, 141.475 275.500 C 139.649 285.950, 137.856 296.413, 137.490 298.750 L 136.824 303 146.912 303 C 152.460 303, 157 302.772, 157 302.494 C 157 298.970, 164.473 260.973, 165.456 259.500 C 169.524 253.405, 175.436 249.989, 181.872 250.015 C 186.906 250.035, 190.186 251.922, 192.304 256.014 C 194.370 260.005, 194.372 259.978, 190.041 284.500 C 188.390 293.850, 187.030 301.837, 187.019 302.250 C 187.009 302.663, 191.464 303, 196.921 303 L 206.841 303 207.420 300.250 C 207.926 297.843, 209.976 286.110, 213.054 268 C 216.832 245.768, 208.334 234.947, 188.119 236.249 C 179.736 236.789, 172.150 239.555, 167.876 243.631 L 165.252 246.133 158.876 242.233 C 148.739 236.032, 148.033 235.719, 147.552 237.207 M 254.048 238.061 C 240.220 241.682, 228.969 250.197, 223.918 260.864 C 221.156 266.697, 220.273 277.331, 222.029 283.603 C 225.987 297.738, 241.804 306.217, 261.102 304.546 C 269.931 303.782, 279.735 301.665, 281.191 300.209 C 282.356 299.044, 285.374 284.040, 284.599 283.266 C 284.316 282.983, 282.686 283.928, 280.976 285.367 C 274.003 291.234, 259.019 292.601, 250.321 288.164 C 236.008 280.862, 240.348 259.484, 257.701 251.808 C 264.403 248.844, 274.762 249.160, 281.670 252.539 C 284.682 254.013, 287.387 255.845, 287.680 256.609 C 288.835 259.620, 289.746 257.649, 290.850 249.750 C 291.484 245.213, 292.002 240.974, 292.001 240.330 C 291.999 238.502, 278.976 235.994, 269.803 236.055 C 264.959 236.087, 258.395 236.923, 254.048 238.061 M 324.887 237.451 C 313.008 240.727, 302.558 249.165, 297.582 259.500 C 293.769 267.421, 292.841 279.677, 295.523 286.700 C 297.968 293.102, 304.389 299.233, 311.593 302.044 C 322.212 306.187, 342.578 305.171, 354.488 299.902 C 358.442 298.153, 358.580 297.925, 359.865 290.978 C 360.590 287.058, 361.025 283.691, 360.831 283.498 C 360.638 283.304, 357.402 284.640, 353.641 286.467 C 342.282 291.983, 326.692 292.885, 319.201 288.460 C 315.503 286.275, 313 282.092, 313 278.096 L 313 275 338.525 275 L 364.050 275 365.153 272.250 C 365.760 270.738, 366.301 266.125, 366.356 262 C 366.581 245.020, 356.231 235.863, 337.068 236.089 C 332.906 236.139, 327.424 236.751, 324.887 237.451 M 380.564 237.207 C 380.340 237.918, 379.881 241.200, 379.544 244.500 C 378.730 252.469, 378.130 256.587, 376.994 262 C 375.996 266.753, 370 301.399, 370 302.409 C 370 302.734, 374.468 303, 379.929 303 L 389.858 303 390.907 297.750 C 391.484 294.863, 393.122 285.525, 394.547 277 C 396.743 263.866, 397.557 260.966, 399.877 258 C 405.872 250.338, 417.096 247.685, 422.889 252.560 C 428.005 256.865, 427.959 258.273, 421.532 294 C 420.691 298.675, 420.002 302.613, 420.001 302.750 C 420.001 302.887, 424.491 303, 429.981 303 C 441.298 303, 440.098 304.053, 441.936 292.500 C 442.461 289.200, 443.842 281.325, 445.005 275 C 448.555 255.693, 447.531 247.410, 440.847 241.384 C 432.152 233.544, 411.785 234.579, 401.311 243.392 L 398.137 246.062 391.819 242.198 C 381.748 236.038, 381.031 235.720, 380.564 237.207 M 94.643 248.976 C 93.071 249.476, 90.868 250.698, 89.746 251.692 C 87.240 253.914, 82 260.989, 82 262.150 C 82 262.618, 89.484 263, 98.630 263 L 115.260 263 114.740 258.382 C 113.971 251.563, 110.720 248.714, 103.294 248.351 C 100.107 248.195, 96.214 248.476, 94.643 248.976 M 327.484 249.058 C 324.071 250.051, 317.954 256.123, 316.207 260.250 L 315.043 263 331.521 263 L 348 263 348 259.404 C 348 250.129, 339.147 245.664, 327.484 249.058" stroke="none" fill="#045cac" fill-rule="evenodd"/></svg>