<svg xmlns="http://www.w3.org/2000/svg" width="336" height="44" viewBox="0 0 336 44" version="1.1"><path d="M 274.158 2 C 274.158 3.375, 274.385 3.938, 274.662 3.250 C 274.940 2.563, 274.940 1.438, 274.662 0.750 C 274.385 0.062, 274.158 0.625, 274.158 2 M 315.789 1.741 C 319.248 1.937, 324.648 1.936, 327.789 1.738 C 330.930 1.540, 328.100 1.380, 321.500 1.382 C 314.900 1.384, 312.330 1.546, 315.789 1.741 M 265.211 5.538 C 264.145 6.746, 264.189 7, 265.461 7 C 266.307 7, 267 6.325, 267 5.500 C 267 3.676, 266.850 3.680, 265.211 5.538 M 310.750 6.662 C 311.438 6.940, 312.563 6.940, 313.250 6.662 C 313.938 6.385, 313.375 6.158, 312 6.158 C 310.625 6.158, 310.063 6.385, 310.750 6.662 M 319.250 6.716 C 320.762 6.945, 323.238 6.945, 324.750 6.716 C 326.262 6.487, 325.025 6.300, 322 6.300 C 318.975 6.300, 317.738 6.487, 319.250 6.716 M 256 10.260 C 256 11.136, 255.213 12.059, 254.250 12.311 C 252.610 12.739, 252.612 12.775, 254.281 12.884 C 256.089 13.002, 257.765 10.431, 256.624 9.290 C 256.281 8.947, 256 9.384, 256 10.260 M 264.750 12.706 C 265.988 12.944, 268.012 12.944, 269.250 12.706 C 270.488 12.467, 269.475 12.272, 267 12.272 C 264.525 12.272, 263.512 12.467, 264.750 12.706 M 280.768 12.725 C 282.565 12.947, 285.265 12.943, 286.768 12.715 C 288.271 12.486, 286.800 12.304, 283.500 12.310 C 280.200 12.315, 278.971 12.502, 280.768 12.725 M 297.264 12.718 C 298.784 12.947, 301.034 12.941, 302.264 12.704 C 303.494 12.467, 302.250 12.279, 299.500 12.286 C 296.750 12.294, 295.744 12.488, 297.264 12.718 M 208.643 13.768 C 208.382 14.191, 210.043 14.392, 212.334 14.216 C 219.063 13.696, 219.882 13.241, 214.309 13.116 C 211.454 13.052, 208.904 13.346, 208.643 13.768 M 260.376 16.201 C 259.543 17.549, 260.129 17.702, 263.500 17.016 L 266.500 16.405 263.726 15.837 C 262.201 15.524, 260.693 15.688, 260.376 16.201 M 285.269 16.693 C 286.242 16.947, 287.592 16.930, 288.269 16.656 C 288.946 16.382, 288.150 16.175, 286.500 16.195 C 284.850 16.215, 284.296 16.439, 285.269 16.693 M 293 17.139 C 293 17.612, 293.867 18, 294.927 18 C 295.986 18, 297.059 18.788, 297.311 19.750 C 297.673 21.136, 297.792 21.057, 297.884 19.367 C 297.967 17.840, 297.288 17.097, 295.500 16.755 C 294.125 16.492, 293 16.665, 293 17.139 M 319.879 17.279 C 320.362 17.762, 322.049 17.995, 323.628 17.798 C 326.272 17.468, 326.202 17.399, 322.751 16.921 C 320.601 16.623, 319.376 16.776, 319.879 17.279 M 308.250 17.689 C 309.212 17.941, 310.788 17.941, 311.750 17.689 C 312.712 17.438, 311.925 17.232, 310 17.232 C 308.075 17.232, 307.288 17.438, 308.250 17.689 M 153.750 18.662 C 154.438 18.940, 155.563 18.940, 156.250 18.662 C 156.938 18.385, 156.375 18.158, 155 18.158 C 153.625 18.158, 153.063 18.385, 153.750 18.662 M 232 19 L 226.500 19.674 231.691 19.837 C 234.546 19.927, 237.160 19.550, 237.500 19 C 237.840 18.450, 237.979 18.073, 237.809 18.163 C 237.639 18.253, 235.025 18.629, 232 19 M 213.750 19.662 C 214.438 19.940, 215.563 19.940, 216.250 19.662 C 216.938 19.385, 216.375 19.158, 215 19.158 C 213.625 19.158, 213.063 19.385, 213.750 19.662 M 306.818 22.218 C 307.351 22.751, 308.623 23.011, 309.644 22.794 C 311.019 22.503, 310.767 22.251, 308.674 21.825 C 306.849 21.452, 306.192 21.592, 306.818 22.218 M 62.195 24.500 C 62.215 26.150, 62.439 26.704, 62.693 25.731 C 62.947 24.758, 62.930 23.408, 62.656 22.731 C 62.382 22.054, 62.175 22.850, 62.195 24.500 M 259.079 23.750 C 259.026 25.262, 259.574 25.995, 260.750 25.985 C 261.829 25.975, 262.078 25.688, 261.400 25.235 C 260.795 24.831, 260.043 23.825, 259.729 23 C 259.347 21.998, 259.132 22.247, 259.079 23.750 M 318.643 22.768 C 318.382 23.191, 319.930 23.369, 322.084 23.163 C 324.238 22.958, 326 22.612, 326 22.395 C 326 21.650, 319.118 21.999, 318.643 22.768 M 270.762 27.707 C 272.006 27.946, 273.806 27.937, 274.762 27.687 C 275.718 27.437, 274.700 27.241, 272.500 27.252 C 270.300 27.263, 269.518 27.468, 270.762 27.707 M 37 31.500 C 37 32.325, 37.177 33, 37.393 33 C 37.609 33, 38.045 32.325, 38.362 31.500 C 38.678 30.675, 38.501 30, 37.969 30 C 37.436 30, 37 30.675, 37 31.500 M 44.269 37.693 C 45.242 37.947, 46.592 37.930, 47.269 37.656 C 47.946 37.382, 47.150 37.175, 45.500 37.195 C 43.850 37.215, 43.296 37.439, 44.269 37.693 M 153.250 37.689 C 154.213 37.941, 155.787 37.941, 156.750 37.689 C 157.713 37.438, 156.925 37.232, 155 37.232 C 153.075 37.232, 152.287 37.438, 153.250 37.689 M 264.280 37.736 C 266.909 37.943, 270.959 37.940, 273.280 37.731 C 275.601 37.521, 273.450 37.352, 268.500 37.355 C 263.550 37.358, 261.651 37.530, 264.280 37.736" stroke="none" fill="#0454d4" fill-rule="evenodd"/><path d="M 0.975 2.565 C 0.439 3.976, -0 5.551, -0 6.065 C -0 6.579, 3.627 7, 8.060 7 L 16.120 7 15.526 10.250 C 15.199 12.038, 14.767 14.400, 14.566 15.500 C 14.365 16.600, 13.895 19.300, 13.522 21.500 C 13.150 23.700, 12.033 29.191, 11.042 33.703 C 10.050 38.214, 9.485 42.151, 9.786 42.453 C 10.087 42.754, 12.235 43, 14.558 43 C 19.252 43, 19.350 42.844, 20.521 33.500 C 20.865 30.750, 21.573 26.844, 22.093 24.821 C 22.613 22.797, 23.296 19.301, 23.611 17.052 C 24.983 7.241, 24.679 7.534, 33.819 7.210 C 39.382 7.012, 42.004 6.532, 42.014 5.710 C 42.021 5.044, 42.299 3.488, 42.630 2.250 L 43.233 0 22.592 0 L 1.950 0 0.975 2.565 M 274.650 3 C 273.920 6.650, 272.441 6.892, 271.589 3.500 C 271.124 1.648, 270.299 1, 268.401 1 C 266.077 1, 265.902 1.276, 266.500 4 C 267.067 6.583, 266.870 7, 265.079 7 C 263.667 7, 263 7.641, 263 9 C 263 10.708, 263.667 11, 267.559 11 C 270.344 11, 271.878 11.389, 271.500 12 C 271.160 12.550, 268.884 13, 266.441 13 C 261.115 13, 260.238 15.398, 265.201 16.390 C 268.227 16.995, 268.295 17.104, 266.451 18.380 C 265.378 19.123, 263.488 20.047, 262.250 20.433 C 259.510 21.288, 259.463 20.684, 261.514 10.934 C 263.366 2.129, 262.730 1, 255.913 1 C 249.684 1, 249.797 0.795, 247.355 16.500 C 246.212 23.854, 243.956 33.872, 242.542 37.882 C 240.598 43.390, 240.491 43, 243.955 43 C 247.044 43, 246.868 43.330, 248.482 34.500 C 248.683 33.400, 248.881 31.712, 248.923 30.750 C 248.968 29.737, 249.785 29, 250.862 29 C 252.875 29, 252.897 29.628, 251.196 38.250 C 250.294 42.817, 250.347 43, 252.570 43 C 255.647 43, 255.908 42.433, 258.006 31.184 C 258.999 25.858, 259.854 22.340, 259.906 23.367 C 259.974 24.717, 260.547 25.090, 261.978 24.716 C 263.755 24.251, 263.907 24.596, 263.467 28.099 L 262.976 32 271.963 32 C 280.870 32, 280.943 32.020, 280.095 34.250 C 279.625 35.487, 279.192 36.950, 279.133 37.500 C 279.074 38.050, 276.770 38.636, 274.013 38.802 C 271.256 38.969, 269 39.476, 269 39.930 C 269 42.063, 272.221 43.081, 278.083 42.800 C 283.454 42.543, 284.384 42.216, 284.639 40.500 C 286.368 28.879, 286.332 28, 284.127 28 C 282.530 28, 282 27.383, 282 25.521 C 282 23.258, 282.211 23.139, 284.436 24.153 C 285.776 24.763, 287.576 24.993, 288.436 24.663 C 291.138 23.626, 290.144 21.087, 286.428 19.534 C 282.278 17.801, 282.741 15.588, 287.118 16.231 C 289.058 16.515, 290 16.220, 290 15.327 C 290 12.861, 289.511 12.672, 283.750 12.907 C 280.184 13.052, 278 12.735, 278 12.071 C 278 11.442, 280.227 11, 283.393 11 C 287.388 11, 288.943 10.590, 289.393 9.418 C 290.278 7.113, 290.207 7, 287.878 7 C 286.330 7, 286.017 6.661, 286.722 5.750 C 287.254 5.063, 287.970 3.713, 288.313 2.750 C 288.800 1.386, 288.390 1, 286.454 1 C 284.725 1, 283.368 1.988, 281.989 4.250 L 280.007 7.500 280.004 3.750 C 280 0.470, 279.702 -0, 277.625 -0 C 275.786 -0, 275.115 0.677, 274.650 3 M 298.776 0.557 C 298.420 0.914, 298.562 2.347, 299.092 3.742 C 299.622 5.136, 299.834 6.499, 299.563 6.770 C 298.443 7.891, 301.240 11, 303.369 11 C 306.569 11, 306.960 10.316, 305.843 6.675 C 305.308 4.929, 304.746 2.825, 304.595 2 C 304.315 0.467, 299.949 -0.615, 298.776 0.557 M 309.250 3.750 C 309.427 5.892, 309.847 6.001, 317.968 6.015 C 328.303 6.034, 329.290 6.502, 328.057 10.801 C 327.552 12.561, 327.349 14, 327.605 14 C 327.861 14, 327.589 14.900, 327 16 C 326.321 17.268, 324.906 18, 323.131 18 C 319.455 18, 319.018 17.424, 320.027 13.906 C 320.745 11.402, 320.514 10.727, 318.480 9.395 C 315.664 7.550, 314.005 8.257, 313.986 11.309 C 313.956 16.221, 312.865 18, 309.883 18 C 307.701 18, 307 18.470, 307 19.930 C 307 21.171, 307.804 21.975, 309.250 22.180 C 312.134 22.590, 312.071 24.383, 308.593 40.750 C 308.173 42.728, 308.517 43, 311.444 43 C 314.640 43, 314.804 42.810, 315.550 38.250 C 315.977 35.638, 316.442 33.050, 316.584 32.500 C 316.725 31.950, 317.146 29.700, 317.519 27.500 C 318.422 22.177, 318.583 22, 322.502 22 C 325.198 22, 325.810 22.355, 325.515 23.750 C 325.311 24.713, 324.437 28.792, 323.572 32.815 C 321.264 43.556, 321.092 43.147, 327.750 42.800 C 332.950 42.529, 333.532 42.271, 333.838 40.110 C 334.120 38.116, 333.830 37.811, 332.089 38.267 C 329.290 38.998, 328.954 38.152, 330.069 33.190 C 330.588 30.879, 331.265 27.303, 331.572 25.244 C 331.880 23.185, 332.599 19.702, 333.171 17.504 C 333.742 15.306, 334.328 12.831, 334.473 12.004 C 334.618 11.177, 335.034 8.848, 335.399 6.828 C 335.793 4.642, 335.641 2.896, 335.024 2.515 C 334.453 2.162, 328.378 1.789, 321.525 1.687 C 309.163 1.501, 309.065 1.518, 309.250 3.750 M 219.667 6.667 C 219.300 7.033, 219 8.833, 219 10.667 L 219 14 214 14 C 211.250 14, 209 14.241, 209 14.535 C 209 14.830, 209.685 16.115, 210.521 17.392 C 211.660 19.129, 212.695 19.590, 214.631 19.220 L 217.220 18.725 216.536 24.577 C 216.160 27.796, 215.666 30.731, 215.439 31.098 C 215.099 31.649, 213.880 38.221, 213.789 40 C 213.659 42.524, 214.406 43, 218.500 43 C 221.375 43, 223.040 42.549, 223.110 41.750 C 223.170 41.063, 223.338 39.150, 223.483 37.500 C 223.757 34.391, 225.743 23.879, 226.664 20.663 C 227.108 19.114, 228.038 18.879, 232.596 19.163 C 235.570 19.348, 238.002 19.402, 238.001 19.282 C 238.001 19.163, 235.412 17.138, 232.250 14.782 C 229.088 12.427, 225.380 9.488, 224.010 8.250 C 221.352 5.847, 220.717 5.616, 219.667 6.667 M 253.917 7.250 C 253.871 7.938, 253.720 9.531, 253.581 10.792 C 253.401 12.420, 253.787 12.997, 254.914 12.784 C 257.127 12.365, 257.736 6, 255.563 6 C 254.704 6, 253.963 6.563, 253.917 7.250 M 293.660 14.192 C 293.118 16.266, 293.773 17, 296.167 17 C 298.231 17, 298.339 17.810, 297.034 23.500 C 296.529 25.700, 295.909 28.625, 295.655 30 C 295.401 31.375, 294.930 33.625, 294.607 35 C 293.703 38.853, 293.098 43, 293.440 43 C 293.610 43, 295.759 41.876, 298.217 40.502 C 303.737 37.417, 306.311 34.655, 306.755 31.340 L 307.096 28.796 303.933 31.048 L 300.770 33.300 301.461 31.122 C 301.842 29.923, 302.322 27.607, 302.528 25.975 C 302.735 24.342, 303.373 21.318, 303.946 19.253 C 305.750 12.758, 305.583 12.500, 299.551 12.500 C 295.274 12.500, 294.007 12.864, 293.660 14.192 M 41.500 14.020 C 36.140 15.666, 31.178 20.660, 29.590 26.008 C 25.891 38.463, 35.361 45.997, 50.880 42.944 C 57.507 41.640, 58.631 40.818, 59.372 36.734 L 59.862 34.031 56.350 35.498 C 48.345 38.843, 41.524 38.310, 38.282 34.087 C 35.822 30.883, 36.870 30.496, 47.051 30.845 C 61.207 31.332, 62 31.042, 62 25.385 C 62 20.604, 59.708 15.522, 57.053 14.416 C 54.384 13.304, 44.640 13.056, 41.500 14.020 M 83.504 13.685 C 82.407 13.991, 80.442 15.080, 79.138 16.106 C 76.816 17.933, 76.708 17.928, 73.848 15.892 C 70.253 13.332, 68.348 13.927, 68.188 17.659 C 68.121 19.222, 67.803 21.625, 67.482 23 C 67.160 24.375, 66.465 27.975, 65.936 31 C 65.407 34.025, 64.701 37.989, 64.365 39.810 L 63.755 43.120 68.605 42.810 C 73.988 42.466, 73.371 43.566, 75.405 30.694 C 76.582 23.251, 79.344 19.969, 84.829 19.500 C 89.701 19.083, 90.980 23.113, 89.018 32.701 C 86.756 43.757, 86.543 43, 91.920 43 L 96.707 43 97.978 35.750 C 100.408 21.895, 100.382 19.555, 97.757 16.504 C 95.864 14.303, 94.380 13.681, 90.441 13.436 C 87.724 13.267, 84.602 13.379, 83.504 13.685 M 116.704 14.425 C 101.485 18.517, 98.082 37.809, 111.781 42.333 C 117.009 44.059, 127.539 43.639, 130.884 41.571 C 132.181 40.770, 132.825 36.329, 131.864 34.815 C 131.348 34.001, 131.025 33.931, 131.015 34.631 C 130.995 36.164, 123.073 38.062, 119.445 37.404 C 115.065 36.610, 113 34.231, 113 29.980 C 113 25.346, 115.879 21.525, 120.524 19.992 C 124.499 18.680, 130.313 19.185, 132.542 21.035 C 134.445 22.614, 134.818 22.213, 135.514 17.833 L 136.078 14.283 131.400 13.641 C 125.037 12.769, 122.322 12.914, 116.704 14.425 M 150.542 13.671 C 141.910 16.121, 135.474 25.568, 137.148 33.330 C 138.294 38.643, 141.559 41.525, 147.995 42.906 C 154.440 44.288, 156.291 44.277, 161.384 42.831 C 166.594 41.352, 166.768 41.189, 167.480 37.129 C 167.999 34.172, 167.852 33.851, 166.286 34.514 C 157.025 38.434, 154.343 38.731, 149.401 36.386 C 147.100 35.294, 145.999 34.081, 145.998 32.636 C 145.996 30.564, 146.327 30.509, 157.133 30.815 C 163.606 30.998, 168.685 30.715, 169.261 30.139 C 170.718 28.682, 170.660 21.602, 169.170 18.817 C 168.460 17.491, 166.934 15.815, 165.778 15.093 C 163.510 13.677, 153.734 12.765, 150.542 13.671 M 175.964 20.293 C 175.303 24.257, 174.575 28.400, 174.346 29.500 C 174.118 30.600, 173.710 33.075, 173.439 35 C 173.169 36.925, 172.760 39.536, 172.531 40.802 C 172.138 42.970, 172.388 43.087, 176.807 42.802 L 181.500 42.500 182.233 38 C 182.636 35.525, 183.225 31.756, 183.543 29.623 C 184.330 24.337, 186.525 21.312, 190.533 19.989 C 197.341 17.742, 199.558 21.676, 197.304 32 C 194.710 43.879, 194.489 43, 200.066 43 C 203.326 43, 205.013 42.576, 205.038 41.750 C 205.120 39.038, 206.188 32.319, 207.064 29 C 208.754 22.604, 208.227 19.073, 205.119 15.965 C 202.479 13.325, 201.725 13.109, 196.118 13.388 C 192.182 13.583, 189.346 14.282, 188.170 15.346 C 185.849 17.447, 185.258 17.422, 180.818 15.043 L 177.166 13.085 175.964 20.293 M 251.918 17.750 C 251.873 18.163, 251.632 19.738, 251.384 21.250 C 251.067 23.177, 251.359 24, 252.359 24 C 253.919 24, 255 21.919, 255 18.918 C 255 17.151, 252.104 16.053, 251.918 17.750 M 273.036 18.457 C 271.927 19.793, 272.185 20, 274.961 20 C 277.081 20, 278.026 19.577, 277.750 18.750 C 277.126 16.873, 274.486 16.709, 273.036 18.457 M 45.388 18.700 C 44.226 18.922, 42.004 20.430, 40.451 22.051 L 37.626 25 45.807 25 C 53.441 25, 53.967 24.865, 53.680 22.986 C 53.159 19.570, 49.834 17.852, 45.388 18.700 M 149.897 21.211 L 146.500 24.500 153.870 24.796 C 157.924 24.959, 161.512 24.821, 161.844 24.490 C 162.175 24.158, 161.783 22.704, 160.972 21.259 C 158.661 17.141, 154.122 17.122, 149.897 21.211 M 268 24.184 C 268 24.568, 268.457 25.165, 269.016 25.510 C 269.575 25.856, 269.774 26.557, 269.457 27.069 C 269.141 27.581, 270.431 28, 272.324 28 C 274.871 28, 275.897 27.503, 276.266 26.091 C 276.692 24.462, 276.125 24.132, 272.382 23.834 C 269.972 23.642, 268 23.800, 268 24.184 M 259.667 33.667 C 259.300 34.033, 259 34.933, 259 35.667 C 259 36.678, 261.149 37, 267.893 37 C 276.480 37, 278 36.461, 278 33.418 C 278 32.715, 260.379 32.954, 259.667 33.667" stroke="none" fill="#0454dc" fill-rule="evenodd"/></svg>