<svg xmlns="http://www.w3.org/2000/svg" width="512" height="512" viewBox="0 0 512 512" version="1.1"><path d="M 1.571 1.571 C 0.151 2.992, -0 27.497, -0 256.371 C -0 451.994, 0.273 509.873, 1.200 510.800 C 2.127 511.727, 60.099 512, 256.045 512 C 500.502 512, 509.750 511.934, 511.345 510.171 C 512.876 508.480, 513 489.371, 513 255.532 C 513 15.932, 512.909 2.651, 511.250 1.392 C 509.806 0.296, 465.255 0.058, 256.321 0.032 C 27.465 0.003, 2.992 0.151, 1.571 1.571 M 0.492 256.500 C 0.492 396.200, 0.608 453.499, 0.750 383.830 C 0.892 314.162, 0.892 199.862, 0.750 129.830 C 0.608 59.799, 0.492 116.800, 0.492 256.500 M 33 136 L 33 239 66.491 239 L 99.982 239 100.241 185.880 L 100.500 132.761 113.611 152.130 C 120.822 162.784, 134.709 183.200, 144.472 197.500 C 154.234 211.800, 164.467 226.988, 167.211 231.250 L 172.200 239 205.600 239 L 239 239 239 136 L 239 33 206 33 L 173 33 173 86.714 C 173 133.088, 172.806 140.228, 171.583 138.964 C 170.803 138.159, 162.398 126.025, 152.904 112 C 143.410 97.975, 129.839 77.950, 122.747 67.500 C 115.655 57.050, 107.523 45.023, 104.676 40.773 L 99.500 33.045 66.250 33.023 L 33 33 33 136 M 273.003 54.250 L 273.006 75.500 289.753 79.859 C 298.964 82.256, 307.463 84.437, 308.641 84.705 C 310.384 85.101, 311.001 84.526, 311.963 81.613 C 313.494 76.973, 318.063 73.727, 323.063 73.727 C 330.829 73.727, 336.314 80.625, 334.363 87.936 L 333.327 91.814 347.914 95.855 C 377.142 103.953, 374.526 103.634, 386.774 100.586 C 392.673 99.118, 402.540 96.463, 408.700 94.687 C 417.922 92.027, 419.735 91.195, 418.965 89.978 C 417.403 87.507, 417.895 81.685, 419.952 78.311 C 424.783 70.388, 438.824 73.215, 440.558 82.460 L 441.148 85.600 458.725 80.800 C 468.393 78.160, 476.910 76, 477.651 76 C 478.741 76, 479 71.872, 479 54.500 L 479 33 376 33 L 273 33 273.003 54.250 M 273 160.571 L 273 239 304.655 239 C 334.729 239, 336.232 238.913, 334.754 237.250 C 331.930 234.073, 331.011 227.698, 331.006 211.250 L 331 195 339.500 195 L 348 195 348 211.845 C 348 226.894, 348.195 228.866, 349.829 230.345 C 352.288 232.570, 355.568 232.432, 358 230 C 359.839 228.161, 360 226.667, 360 211.460 L 360 194.919 368.250 195.210 L 376.500 195.500 376.786 208 C 377.125 222.819, 375.845 232.366, 373.004 236.209 L 370.940 239 379.476 239 L 388.013 239 385.062 234.927 C 376.043 222.476, 380.719 202.846, 394.378 195.823 C 404.235 190.754, 417.233 192.947, 425.332 201.046 C 427.999 203.714, 429.883 206.380, 429.518 206.971 C 429.153 207.561, 426.116 209.427, 422.769 211.116 C 417.747 213.652, 416.545 213.938, 415.882 212.754 C 413.749 208.941, 411.181 206.888, 407.887 206.361 C 404.835 205.873, 403.749 206.253, 400.887 208.809 C 397.708 211.650, 397.500 212.228, 397.500 218.212 C 397.500 225.447, 399.450 229.460, 403.763 231.100 C 408.248 232.805, 412.499 230.795, 415.530 225.537 C 416.491 223.870, 416.995 223.967, 423.030 226.993 C 426.589 228.777, 429.678 230.400, 429.896 230.598 C 430.114 230.797, 429.095 232.768, 427.632 234.980 L 424.972 239 429.986 239 L 435 239 435 217 L 435 195 443 195 L 451 195 451 212.464 L 451 229.928 460.750 230.214 L 470.500 230.500 470.807 234.750 C 471.113 238.977, 471.136 239, 475.045 239 L 478.976 239 479.238 160.489 C 479.433 102.051, 479.209 82.089, 478.360 82.415 C 477.734 82.656, 469.634 84.937, 460.360 87.484 C 451.087 90.031, 428.334 96.383, 409.798 101.599 L 376.097 111.084 346.298 102.615 C 329.909 97.957, 309.750 92.325, 301.500 90.099 C 293.250 87.873, 283.462 85.172, 279.750 84.097 L 273 82.141 273 160.571 M 314.124 198.300 C 312.956 200.190, 312 202.260, 312 202.900 C 312 203.541, 311.057 204.413, 309.904 204.840 C 308.180 205.478, 307.777 206.537, 307.635 210.808 L 307.462 216 316.766 216 C 325.916 216, 326.052 215.965, 324.944 213.895 C 324.312 212.715, 324.097 210.297, 324.454 208.395 C 325.012 205.420, 324.833 205, 323.014 205 C 321.872 205, 320.770 204.438, 320.565 203.750 C 319.975 201.771, 319.028 199.684, 317.585 197.182 L 316.248 194.863 314.124 198.300 M 33 376.500 L 33 480 136 480 L 239 480 239 456.250 L 239 432.500 169.250 432.500 L 99.500 432.500 99.244 352.750 L 98.988 273 65.994 273 L 33 273 33 376.500 M 273 375.959 L 273 479 305.988 479 L 338.976 479 339.238 440.750 L 339.500 402.500 380 401.914 C 423.338 401.286, 427.332 400.869, 441.681 395.468 C 456.117 390.034, 465.659 381.588, 472.001 368.631 C 477.643 357.101, 479 350.777, 479 336 C 479 321.431, 477.639 314.919, 472.310 304 C 467.252 293.636, 459.862 286.426, 448.960 281.222 C 432.552 273.388, 435.920 273.658, 349.750 273.267 L 273 272.918 273 375.959 M 339.232 337.680 L 339.500 361.500 360 361.783 C 398.332 362.313, 409.457 358.775, 414.001 344.606 C 416.739 336.068, 412.949 323.900, 406.118 319.299 C 399.852 315.079, 396.650 314.663, 367.232 314.254 L 338.963 313.861 339.232 337.680" stroke="none" fill="#232423" fill-rule="evenodd"/></svg>