<svg xmlns="http://www.w3.org/2000/svg" width="267" height="267" viewBox="0 0 267 267" version="1.1"><path d="" stroke="none" fill="#000000" fill-rule="evenodd"/><path d="M 0.464 1.243 C 0.201 1.934, 0.101 61.900, 0.243 134.500 L 0.500 266.500 132.893 266.754 C 229.905 266.940, 265.649 266.706, 266.643 265.881 C 267.773 264.943, 268 242.624, 268 132.392 L 268 0.029 134.471 0.007 C 28.154 -0.010, 0.845 0.242, 0.464 1.243 M 0.486 133.500 C 0.486 206.650, 0.605 236.427, 0.750 199.672 C 0.895 162.917, 0.895 103.067, 0.750 66.672 C 0.604 30.277, 0.486 60.350, 0.486 133.500 M 17 70.500 L 17 124 34.484 124 L 51.968 124 52.234 96.530 L 52.500 69.061 71 96.484 L 89.500 123.908 106.750 123.954 L 124 124 124 70.500 L 124 17 107.016 17 L 90.031 17 89.766 45.095 L 89.500 73.191 70.500 45.123 L 51.500 17.056 34.250 17.028 L 17 17 17 70.500 M 142 27.933 C 142 37.478, 142.222 38.932, 143.750 39.390 C 148.664 40.863, 160.558 44, 161.230 44 C 161.653 44, 162 43.351, 162 42.557 C 162 40.678, 165.859 38, 168.568 38 C 171.500 38, 174 41.068, 174 44.666 C 174 47.643, 174.115 47.707, 184.824 50.644 L 195.647 53.613 206.771 50.668 C 217.866 47.731, 217.893 47.716, 217.343 44.966 C 216.663 41.567, 219.816 38, 223.500 38 C 225.943 38, 229.346 40.539, 230.155 42.965 C 230.454 43.863, 232.902 43.543, 239.530 41.742 L 248.500 39.305 248.783 28.153 L 249.066 17 195.533 17 L 142 17 142 27.933 M 142 83.433 L 142 124 157.975 124 L 173.950 124 172.975 121.435 C 172.439 120.024, 172 114.849, 172 109.935 L 172 101 176.500 101 L 181 101 181 109.965 C 181 117.493, 181.280 119.074, 182.750 119.830 C 186.343 121.678, 187 120.222, 187 110.417 L 187 101 191.500 101 L 196 101 196 110.566 C 196 115.827, 195.534 121.002, 194.965 122.066 C 194.031 123.810, 194.280 124, 197.490 124 L 201.051 124 199.526 121.050 C 196.101 114.427, 198.740 105.262, 205.077 101.767 C 210.752 98.637, 220.302 100.958, 223.076 106.141 C 223.912 107.704, 223.509 108.267, 220.533 109.686 C 217.099 111.323, 216.936 111.309, 214.959 109.186 C 212.533 106.582, 212.108 106.536, 209.223 108.557 C 204.457 111.895, 208.088 122.629, 213.079 119.958 C 214.198 119.359, 215.356 118.236, 215.652 117.463 C 216.096 116.307, 216.890 116.413, 220.115 118.059 C 223.528 119.800, 223.901 120.317, 222.984 122.030 C 222.096 123.690, 222.250 124, 223.965 124 C 225.894 124, 226 123.400, 226 112.500 L 226 101 230.500 101 L 235 101 235 110.500 L 235 120 240 120 C 244.333 120, 245 120.267, 245 122 C 245 123.333, 245.667 124, 247 124 C 248.967 124, 249 123.333, 249 83.433 L 249 42.865 246.750 43.587 C 245.512 43.983, 233.553 47.375, 220.174 51.124 L 195.848 57.941 170.674 50.933 C 156.828 47.079, 144.713 43.688, 143.750 43.396 C 142.103 42.897, 142 45.262, 142 83.433 M 162.223 104.581 C 161 106.446, 160 109.103, 160 110.486 C 160 112.827, 160.335 113, 164.861 113 C 169.622 113, 169.712 112.943, 169.210 110.250 C 168.927 108.737, 167.740 106.080, 166.571 104.345 L 164.445 101.191 162.223 104.581 M 17 196 L 17 250 70.500 250 L 124 250 124 237.500 L 124 225 87.500 225 L 51 225 51 183.500 L 51 142 34 142 L 17 142 17 196 M 142 195.439 L 142 249 158.979 249 L 175.958 249 176.229 229.250 L 176.500 209.500 199.500 208.920 C 224.803 208.282, 229.332 207.439, 236.884 201.969 C 241.699 198.481, 246.549 191.386, 248.132 185.515 C 248.727 183.307, 249.034 177.450, 248.814 172.500 C 248.475 164.877, 247.962 162.664, 245.457 158.036 C 241.990 151.629, 236.040 146.758, 228.706 144.323 C 224.196 142.825, 218.051 142.546, 182.750 142.236 L 142 141.878 142 195.439 M 176 175.500 L 176 188 190.532 188 C 200.620 188, 206.074 187.578, 208.364 186.621 C 219.497 181.970, 218.238 166.680, 206.500 163.971 C 204.300 163.463, 196.537 163.037, 189.250 163.024 L 176 163 176 175.500" stroke="none" fill="#fffcfc" fill-rule="evenodd"/><path d="" stroke="none" fill="#fcfcfc" fill-rule="evenodd"/></svg>