<?xml version="1.0" encoding="UTF-8"?>
<svg version="1.1" xmlns="http://www.w3.org/2000/svg" width="490" height="408">
<path d="M0 0 C28.71 0 57.42 0 87 0 C87 7.59 87 15.18 87 23 C121.98 23 156.96 23 193 23 C193 86.36 193 149.72 193 215 C66.61 215 -59.78 215 -190 215 C-190 151.64 -190 88.28 -190 23 C-127.3 23 -64.6 23 0 23 C0 15.41 0 7.82 0 0 Z " fill="#33D4AD" transform="translate(191,1)"/>
<path d="M0 0 C63.03 0 126.06 0 191 0 C191 63.36 191 126.72 191 192 C127.97 192 64.94 192 0 192 C0 128.64 0 65.28 0 0 Z " fill="#2E2E62" transform="translate(1,24)"/>
<path d="M0 0 C7.59 0 15.18 0 23 0 C23.02578125 3.40699219 23.0515625 6.81398438 23.078125 10.32421875 C23.11654759 13.627281 23.16170731 16.93018726 23.20751953 20.2331543 C23.23572882 22.52702374 23.25694353 24.82099038 23.27099609 27.11499023 C23.29242551 30.41440593 23.33907783 33.71265302 23.390625 37.01171875 C23.39185364 38.03585373 23.39308228 39.05998871 23.39434814 40.11515808 C23.5106021 45.91276947 23.5106021 45.91276947 25.91845703 51.10595703 C30.50625214 55.28049543 34.25826421 55.37899036 40.3046875 55.25 C44.81529492 54.83162482 47.7153264 53.53454097 50.62426758 50.05981445 C52.67288027 45.50342352 52.48020034 41.17414026 52.51171875 36.23046875 C52.52966995 35.19432938 52.54762115 34.15819 52.56611633 33.09065247 C52.62018686 29.78964271 52.65410523 26.48877731 52.6875 23.1875 C52.72067588 20.94594347 52.75516578 18.70440598 52.79101562 16.46289062 C52.87837919 10.97523999 52.93847735 5.48824443 53 0 C67.52 0 82.04 0 97 0 C97.33 9.9 97.66 19.8 98 30 C99.485 28.370625 100.97 26.74125 102.5 25.0625 C125.38669836 0.03129433 125.38669836 0.03129433 128.22485352 -0.11352539 C129.18319092 -0.10828857 130.14152832 -0.10305176 131.12890625 -0.09765625 C132.68061523 -0.09282227 132.68061523 -0.09282227 134.26367188 -0.08789062 C135.35228516 -0.07951172 136.44089844 -0.07113281 137.5625 -0.0625 C139.2012207 -0.05573242 139.2012207 -0.05573242 140.87304688 -0.04882812 C143.58208495 -0.03699826 146.29101599 -0.02051543 149 0 C149.28968453 3.00926501 149.35530023 4.50944989 147.55053711 7.0012207 C146.8828833 7.63632568 146.21522949 8.27143066 145.52734375 8.92578125 C144.79193359 9.64056641 144.05652344 10.35535156 143.29882812 11.09179688 C142.1299707 12.19104492 142.1299707 12.19104492 140.9375 13.3125 C139.42333776 14.76438307 137.91159731 16.21879621 136.40234375 17.67578125 C135.66169678 18.39008301 134.9210498 19.10438477 134.15795898 19.84033203 C131.48205003 22.51836016 129.00152227 25.32824401 126.55273438 28.21362305 C124.17153363 30.95312712 121.5972833 33.46606507 119 36 C120.28654025 38.80168064 121.6573822 40.93540653 123.765625 43.1796875 C124.31976074 43.77088379 124.87389648 44.36208008 125.44482422 44.97119141 C126.04053223 45.59944824 126.63624023 46.22770508 127.25 46.875 C128.16869873 47.87345947 128.16869873 47.87345947 129.10595703 48.89208984 C132.26141825 52.2837888 135.43917164 55.43959951 139.0390625 58.359375 C149.14183615 66.80152261 149.14183615 66.80152261 149.875 74.546875 C150.09152311 79.81109308 149.48535215 84.6611263 149 90 C140.42 90 131.84 90 123 90 C123 104.52 123 119.04 123 134 C131.58 134 140.16 134 149 134 C149 138.95 149 143.9 149 149 C136.63090166 149.48894579 124.26413732 149.86084026 111.88730621 150.08805561 C106.1380082 150.19718348 100.39536696 150.34481276 94.64990234 150.58422852 C54.35418006 152.2207516 54.35418006 152.2207516 45.4765625 144.44287109 C41.17989611 139.4673096 38.4642655 134.04975969 36 128 C34.5293195 124.36633996 34.5293195 124.36633996 32 122 C28.7 121.67 25.4 121.34 22 121 C22 130.24 22 139.48 22 149 C14.74 149 7.48 149 0 149 C0 124.25 0 99.5 0 74 C7.59 73.67 15.18 73.34 23 73 C19.7 71.35 16.4 69.7 13 68 C5.9356723 63.02022801 1.7735915 56.53445393 0 48 C-0.08449436 46.38164515 -0.11779 44.7602019 -0.11352539 43.13964844 C-0.11344986 42.17895447 -0.11337433 41.2182605 -0.11329651 40.22845459 C-0.10813522 39.19915833 -0.10297394 38.16986206 -0.09765625 37.109375 C-0.0962413 36.04962463 -0.09482635 34.98987427 -0.09336853 33.89801025 C-0.08777382 30.51531138 -0.07522225 27.13267885 -0.0625 23.75 C-0.05748432 21.45573012 -0.05292153 19.16145921 -0.04882812 16.8671875 C-0.03865728 11.24474559 -0.0190807 5.622447 0 0 Z " fill="#FCFCFD" transform="translate(22,46)"/>
<path d="M0 0 C34.98 0 69.96 0 106 0 C106 46.86 106 93.72 106 142 C71.02 142 36.04 142 0 142 C0 95.14 0 48.28 0 0 Z " fill="#16978A" transform="translate(278,24)"/>
<path d="M0 0 C7.59 0 15.18 0 23 0 C23 14.52 23 29.04 23 44 C14.42 44 5.84 44 -3 44 C-3 46.64 -3 49.28 -3 52 C-7.32448087 47.93226011 -10.79990263 43.46343737 -14.3125 38.6875 C-14.86228516 37.94693359 -15.41207031 37.20636719 -15.97851562 36.44335938 C-17.32272179 34.63160324 -18.66308744 32.817141 -20 31 C-17.38735057 29.25823372 -14.96619069 28.0453757 -12.125 26.75 C-7.45059165 24.44350362 -4.90397121 22.30911857 -2 18 C-0.8125178 14.43755339 -0.64932792 11.02681357 -0.4375 7.3125 C-0.293125 4.899375 -0.14875 2.48625 0 0 Z " fill="#302F63" transform="translate(99,136)"/>
<path d="M0 0 C1.9375 0.75 1.9375 0.75 4 2 C4.75 4.125 4.75 4.125 5 6 C4.01 6.495 4.01 6.495 3 7 C2.76115582 8.96482624 2.76115582 8.96482624 2.75 11.25 C2.38537178 15.06644202 2.08882458 15.89341051 -0.5 19 C-4.29286871 21.6920117 -8.46425294 21.88912618 -13 22 C-12.18015625 22.02578125 -11.3603125 22.0515625 -10.515625 22.078125 C-9.43796875 22.13484375 -8.3603125 22.1915625 -7.25 22.25 C-6.18265625 22.29640625 -5.1153125 22.3428125 -4.015625 22.390625 C-0.42567785 23.11605474 0.76944783 24.14781854 3 27 C4.22900739 30.768956 4.1802634 32.50664753 2.8125 36.25 C0.87888789 39.18375631 0.18537917 39.79651186 -3 41 C-8.1885478 41.62146951 -14.0011493 42.09423896 -18.6875 39.4375 C-21.67045433 36.2933049 -22 34.28968824 -22 30 C-21.01 28.515 -21.01 28.515 -20 27 C-20.33 26.67 -20.66 26.34 -21 26 C-21.14636054 22.63370749 -21.07193479 20.21580438 -20 17 C-20.20625 15.72125 -20.4125 14.4425 -20.625 13.125 C-21.05813402 10.06493625 -21.03962735 9.09593991 -19.8125 6.125 C-17.86334233 3.83978067 -16.77885324 3.06179934 -14 2 C-11.0546875 1.875 -11.0546875 1.875 -7.875 2 C-4.76530951 2.16731118 -4.76530951 2.16731118 -2 2 C-1.34 1.34 -0.68 0.68 0 0 Z M-12 9 C-12.33 10.32 -12.66 11.64 -13 13 C-10.67145537 14.19838209 -10.67145537 14.19838209 -8 15 C-7.01 14.34 -6.02 13.68 -5 13 C-5.33 11.68 -5.66 10.36 -6 9 C-7.98 9 -9.96 9 -12 9 Z M-13 30 C-13.33 30.99 -13.66 31.98 -14 33 C-11.26094655 34.36952673 -9.02912668 34.12621361 -6 34 C-5.34 33.67 -4.68 33.34 -4 33 C-4.33 32.01 -4.66 31.02 -5 30 C-7.64 30 -10.28 30 -13 30 Z " fill="#2E2D62" transform="translate(307,266)"/>
<path d="M0 0 C1.9375 0.8125 1.9375 0.8125 4 2 C4.33 2.99 4.66 3.98 5 5 C4.505 5.350625 4.01 5.70125 3.5 6.0625 C1.64803222 8.03654719 1.64803222 8.03654719 2.0625 11.375 C1.98785296 15.70452852 1.00629257 16.99370743 -2 20 C-4.29629994 21.14814997 -6.07698086 21.30769809 -8.625 21.5625 C-9.85089844 21.68818359 -9.85089844 21.68818359 -11.1015625 21.81640625 C-11.72804688 21.87699219 -12.35453125 21.93757813 -13 22 C-12.26394531 22.02578125 -11.52789062 22.0515625 -10.76953125 22.078125 C-6.37919765 22.33330952 -2.82068842 22.61379369 1.1875 24.5 C3.52635595 27.72600821 3.64881566 29.95647292 3.4296875 33.875 C2.80852629 36.94692455 1.55081417 38.25087028 -1 40 C-6.4932388 41.8310796 -12.75484763 42.00802759 -18.0625 39.625 C-20 38 -20 38 -22 36 C-22.33870968 29.67741935 -22.33870968 29.67741935 -21 27 C-21.185625 26.05125 -21.37125 25.1025 -21.5625 24.125 C-22.02551447 20.8177538 -21.78380472 19.72817192 -20 17 C-20.33 16.67 -20.66 16.34 -21 16 C-21.58968059 8.92383292 -21.58968059 8.92383292 -19.125 5.0625 C-16.59586707 2.60775333 -15.8076267 2.00813437 -12.28515625 1.97265625 C-10.13924668 2.03248161 -7.99340982 2.0949754 -5.84765625 2.16015625 C-2.79554586 2.22993839 -2.79554586 2.22993839 0 0 Z M-12 9 C-12.99 10.485 -12.99 10.485 -14 12 C-12.8354799 13.66621425 -12.8354799 13.66621425 -11 15 C-8.34533951 14.76956136 -8.34533951 14.76956136 -6 14 C-5.67 13.01 -5.34 12.02 -5 11 C-6.82915641 8.76154985 -6.82915641 8.76154985 -9.5 8.6875 C-10.325 8.790625 -11.15 8.89375 -12 9 Z M-14 30 C-14 30.99 -14 31.98 -14 33 C-12.82889816 34.38908639 -12.82889816 34.38908639 -9.5625 34.25 C-8.386875 34.1675 -7.21125 34.085 -6 34 C-5.34 33.01 -4.68 32.02 -4 31 C-5.00836062 29.76732652 -5.00836062 29.76732652 -7.06640625 29.90234375 C-8.30197266 29.91974609 -8.30197266 29.91974609 -9.5625 29.9375 C-10.80193359 29.95103516 -10.80193359 29.95103516 -12.06640625 29.96484375 C-13.02353516 29.98224609 -13.02353516 29.98224609 -14 30 Z " fill="#2E2D62" transform="translate(105,266)"/>
<path d="M0 0 C18.14876033 0 18.14876033 0 23.8203125 4.41796875 C26.13010683 7.51554061 26.1218309 11.24247861 26 15 C24.69897535 18.40744551 23.56327022 20.43672978 21 23 C21.36025199 26.54120044 23.19322156 29.16420436 25.0625 32.125 C28 36.78352941 28 36.78352941 28 39 C24.84254749 39.56834145 22.13502553 39.76202089 19 39 C15.78896536 35.78896536 13.82749873 31.90092078 12.02734375 27.765625 C11.05792678 25.65211928 11.05792678 25.65211928 8 25 C8 29.62 8 34.24 8 39 C5.36 39 2.72 39 0 39 C0 26.13 0 13.26 0 0 Z M7 8 C7 11.3 7 14.6 7 18 C11.455 17.505 11.455 17.505 16 17 C16.67673447 13.59679066 16.67673447 13.59679066 17 10 C15.23863645 7.81668311 15.23863645 7.81668311 13.0546875 7.8046875 C10.02734375 7.90234375 10.02734375 7.90234375 7 8 Z " fill="#2E2D62" transform="translate(22,368)"/>
<path d="M0 0 C8.25 0 16.5 0 25 0 C25 2.64 25 5.28 25 8 C19.39 8 13.78 8 8 8 C8 10.64 8 13.28 8 16 C13.28 16 18.56 16 24 16 C24 18.31 24 20.62 24 23 C18.72 23 13.44 23 8 23 C8 25.64 8 28.28 8 31 C13.94 31 19.88 31 26 31 C26 33.64 26 36.28 26 39 C17.42 39 8.84 39 0 39 C0 26.13 0 13.26 0 0 Z " fill="#2E2D62" transform="translate(22,257)"/>
<path d="M0 0 C2.64 0 5.28 0 8 0 C8 12.87 8 25.74 8 39 C5 39 2 39 -1 39 C-1.78890625 39.05800781 -2.5778125 39.11601562 -3.390625 39.17578125 C-12.06606851 39.59059071 -12.06606851 39.59059071 -15.5625 36.875 C-19.27046294 32.50150526 -20.24435446 29.14449386 -19.875 23.5 C-19.25781284 19.19421194 -17.85824281 16.34822729 -15 13 C-12.04430449 11.16284465 -9.83228085 10.74890453 -6.375 10.8125 C-5.59898437 10.81894531 -4.82296875 10.82539063 -4.0234375 10.83203125 C-2 11 -2 11 0 12 C0 8.04 0 4.08 0 0 Z M-9.75 20.25 C-11.22013929 22.30819501 -11.85061029 23.46037496 -12 26 C-10.64895985 29.22748481 -9.80129313 30.65071838 -6.5625 32.0625 C-3.89316986 32.21671192 -3.89316986 32.21671192 -1.625 30.5 C0.34658561 27.98979657 0.34658561 27.98979657 -0.125 24.375 C-0.70740714 20.95457945 -0.70740714 20.95457945 -3 19 C-5.85828587 18.63355309 -7.37253996 18.55181426 -9.75 20.25 Z " fill="#2E2D62" transform="translate(410,257)"/>
<path d="M0 0 C3.625 1.5625 3.625 1.5625 6 4 C6.875 7.75 6.875 7.75 7 11 C-0.58058252 11.37281553 -0.58058252 11.37281553 -2.6875 9.5 C-3.120625 9.005 -3.55375 8.51 -4 8 C-6.62570704 7.74930087 -6.62570704 7.74930087 -9 8 C-8.98733272 9.90394327 -8.98733272 9.90394327 -8 12 C-5.11086322 13.88618452 -5.11086322 13.88618452 -1.625 15.5 C5.97163121 19.20567376 5.97163121 19.20567376 8 23 C8.66383347 26.40214656 8.60167963 29.5886421 8 33 C5.47323961 36.34625024 3.96066458 37.67977847 0 39 C-5.69734689 39.56430864 -10.12785716 39.28586378 -15 36 C-17.94675381 33.13079234 -18.93789433 31.82290012 -19.25 27.6875 C-19.1675 26.800625 -19.085 25.91375 -19 25 C-13.60598179 24.55786736 -13.60598179 24.55786736 -11 25 C-9.375 27.5 -9.375 27.5 -8 30 C-4.87364791 30.41746608 -4.87364791 30.41746608 -2 30 C-1.67 28.68 -1.34 27.36 -1 26 C-3.94944269 24.15659832 -6.92268747 22.54730854 -10.0625 21.0625 C-16.02788981 18.04033654 -16.02788981 18.04033654 -18 15 C-18.61737962 11.87194326 -18.66241812 9.1228283 -18 6 C-12.81813364 -0.54551541 -7.95105615 -0.78390694 0 0 Z " fill="#2E2D62" transform="translate(257,313)"/>
<path d="M0 0 C3.76778512 2.08414886 5.77401087 4.50535462 7.75 8.375 C7.75 9.365 7.75 10.355 7.75 11.375 C4.78 11.375 1.81 11.375 -1.25 11.375 C-1.58 10.385 -1.91 9.395 -2.25 8.375 C-7.97081145 7.04974757 -7.97081145 7.04974757 -13.1875 9.125 C-15.82752154 12.0050235 -16.20754589 13.81248303 -16.5 17.6875 C-16.22893713 21.68567733 -15.34575015 23.98955745 -13.25 27.375 C-10.20016004 28.89991998 -7.6076631 28.61062548 -4.25 28.375 C-3.77820313 27.87871094 -3.30640625 27.38242187 -2.8203125 26.87109375 C-1.25 25.375 -1.25 25.375 1.01171875 25.08203125 C1.81222656 25.11683594 2.61273438 25.15164063 3.4375 25.1875 C4.24574219 25.21457031 5.05398438 25.24164063 5.88671875 25.26953125 C6.50160156 25.30433594 7.11648438 25.33914063 7.75 25.375 C7.33443583 30.22324868 5.37551755 32.25536862 1.75 35.375 C-3.17164154 38.43901545 -8.65489658 37.96079606 -14.25 37.375 C-18.87594349 35.35640648 -21.82718635 32.24282358 -24.33203125 27.9140625 C-26.72228778 21.30271466 -26.48252755 13.18847979 -23.625 6.75 C-18.57999393 -1.63440511 -8.62159352 -3.88374587 0 0 Z " fill="#2E2D62" transform="translate(285.25,369.625)"/>
<path d="M0 0 C19 0 19 0 25 4 C27.59076756 7.41510269 27.35933413 10.83172404 27 15 C25.40791829 19.13941246 23.87579706 21.76848048 20 24 C16.18063853 25.50046344 12.03779954 25.06729666 8 25 C8 29.62 8 34.24 8 39 C5.36 39 2.72 39 0 39 C0 26.13 0 13.26 0 0 Z M8 7 C8 10.3 8 13.6 8 17 C13.47963553 17.59842623 13.47963553 17.59842623 18.125 15.3125 C19.28589442 12.94820441 19.28589442 12.94820441 18.1875 10.25 C17.795625 9.5075 17.40375 8.765 17 8 C14.03 7.67 11.06 7.34 8 7 Z " fill="#2E2D62" transform="translate(22,313)"/>
<path d="M0 0 C2.97 0 5.94 0 9 0 C10.98 5.61 12.96 11.22 15 17 C15.598125 15.494375 16.19625 13.98875 16.8125 12.4375 C18.48101512 8.26324332 20.2076453 4.12241581 22 0 C24.64 0 27.28 0 30 0 C28.56950272 7.1450745 26.4780267 13.88015342 24.0625 20.75 C23.71509766 21.76449219 23.36769531 22.77898437 23.00976562 23.82421875 C22.66751953 24.80519531 22.32527344 25.78617187 21.97265625 26.796875 C21.66593994 27.67698242 21.35922363 28.55708984 21.04321289 29.46386719 C19.6540555 32.84101837 18.23492448 36.03950318 15.3125 38.3125 C10.45922163 39.75536654 6.46075236 39.73037618 2 37.5 C1.34 37.005 0.68 36.51 0 36 C0.8125 33.5625 0.8125 33.5625 2 31 C5 30 5 30 7 30.625 C7.66 30.74875 8.32 30.8725 9 31 C10.77190909 29.64555699 10.77190909 29.64555699 12 28 C11.01 28 10.02 28 9 28 C7.49500991 23.71006667 5.99685363 19.41777842 4.5 15.125 C4.07074219 13.90167969 3.64148438 12.67835938 3.19921875 11.41796875 C2.79316406 10.25136719 2.38710937 9.08476562 1.96875 7.8828125 C1.59169922 6.80402832 1.21464844 5.72524414 0.82617188 4.61376953 C0 2 0 2 0 0 Z " fill="#2E2D62" transform="translate(81,324)"/>
<path d="M0 0 C2.64 0 5.28 0 8 0 C8 4.29 8 8.58 8 13 C9.32 12.34 10.64 11.68 12 11 C15.07319883 10.47772113 17.92898721 10.44710821 21 11 C23.75569447 13.18159145 25.43588747 14.87177494 27 18 C27.08400529 19.59447464 27.10727467 21.19240545 27.09765625 22.7890625 C27.09443359 23.73007812 27.09121094 24.67109375 27.08789062 25.640625 C27.07951172 26.62546875 27.07113281 27.6103125 27.0625 28.625 C27.05798828 29.61757813 27.05347656 30.61015625 27.04882812 31.6328125 C27.03702145 34.0886016 27.020554 36.54427104 27 39 C24.36 39 21.72 39 19 39 C18.93941406 37.72382813 18.87882812 36.44765625 18.81640625 35.1328125 C18.73200432 33.46352984 18.64735614 31.79425963 18.5625 30.125 C18.52318359 29.28324219 18.48386719 28.44148438 18.44335938 27.57421875 C18.40146484 26.76855469 18.35957031 25.96289062 18.31640625 25.1328125 C18.27974854 24.38918457 18.24309082 23.64555664 18.20532227 22.87939453 C18.10044135 20.91135688 18.10044135 20.91135688 17 19 C14.02934491 19.34227572 14.02934491 19.34227572 11 20 C9.3501993 23.29960141 9.61741639 26.99127884 9.4375 30.625 C9.39431641 31.42679687 9.35113281 32.22859375 9.30664062 33.0546875 C9.20048543 35.0362511 9.09973145 37.01810271 9 39 C6.03 39 3.06 39 0 39 C0 26.13 0 13.26 0 0 Z " fill="#2E2D62" transform="translate(216,368)"/>
<path d="M0 0 C2.64 0 5.28 0 8 0 C8.33 4.29 8.66 8.58 9 13 C10.32 12.34 11.64 11.68 13 11 C16.12372777 10.78551869 18.99200531 11.13188389 22 12 C25.16223928 15.00412732 26.88199098 17.73752598 27.11352539 22.17651367 C27.10828857 22.99869385 27.10305176 23.82087402 27.09765625 24.66796875 C27.09443359 25.56064453 27.09121094 26.45332031 27.08789062 27.37304688 C27.07951172 28.30181641 27.07113281 29.23058594 27.0625 30.1875 C27.05798828 31.12787109 27.05347656 32.06824219 27.04882812 33.03710938 C27.03704626 35.35813712 27.02059558 37.67903644 27 40 C24.36 40 21.72 40 19 40 C18.93941406 38.80761719 18.87882812 37.61523438 18.81640625 36.38671875 C18.73198851 34.82030075 18.64734113 33.25389512 18.5625 31.6875 C18.52318359 30.90181641 18.48386719 30.11613281 18.44335938 29.30664062 C18.40146484 28.54931641 18.35957031 27.79199219 18.31640625 27.01171875 C18.27974854 26.31522217 18.24309082 25.61872559 18.20532227 24.90112305 C18.04418847 22.7783428 18.04418847 22.7783428 17 20 C14.69 20 12.38 20 10 20 C8.89210465 24.05308333 8.66268733 28.07111374 8.4375 32.25 C8.39431641 32.99507813 8.35113281 33.74015625 8.30664062 34.5078125 C8.20103275 36.338349 8.10005799 38.16915176 8 40 C5.36 40 2.72 40 0 40 C0 26.8 0 13.6 0 0 Z " fill="#2E2D62" transform="translate(53,312)"/>
<path d="M0 0 C4.91624028 2.36707866 7.18602527 4.86040493 9 10 C9 12.31 9 14.62 9 17 C2.73 17 -3.54 17 -10 17 C-9.34 17.99 -8.68 18.98 -8 20 C-4.45812169 20.33338596 -4.45812169 20.33338596 -1 20 C-0.67 19.67 -0.34 19.34 0 19 C2.67058851 18.85884839 5.32432238 18.95752893 8 19 C7.4568634 22.80195622 5.84334437 24.50130343 3 27 C-0.95398972 28.97699486 -5.69039781 28.42609061 -10 28 C-14.11001285 26.16517284 -15.57677675 24.68261814 -17.9375 20.875 C-19.59571899 16.26773286 -19.30635046 11.67119257 -18 7 C-13.11030319 0.65660954 -7.75482532 -1.07705907 0 0 Z M-10 10 C-6.7 10 -3.4 10 0 10 C-0.66 9.01 -1.32 8.02 -2 7 C-6.2875366 6.34037898 -6.77781888 6.77781888 -10 10 Z " fill="#2E2D62" transform="translate(69,379)"/>
<path d="M0 0 C4.5108365 2.25541825 5.71953804 3.43907608 8 8 C8 10.97 8 13.94 8 17 C2.06 17.33 -3.88 17.66 -10 18 C-10 18.66 -10 19.32 -10 20 C-8.081875 20.0309375 -8.081875 20.0309375 -6.125 20.0625 C-5.40570313 20.07410156 -4.68640625 20.08570313 -3.9453125 20.09765625 C-1.91814596 20.12649242 -1.91814596 20.12649242 0 19 C2.6723621 18.86584528 5.32250488 18.95681459 8 19 C6.63495276 23.46742733 5.14764571 25.76027132 1 28 C-3.73917838 28.71785591 -8.63057719 29.14620262 -13.04296875 27.01171875 C-16.5799651 24.190855 -18.70303365 21.09257687 -19.3359375 16.6328125 C-19.42515043 10.90534267 -19.00279176 7.43552601 -15 3 C-10.63843338 -0.84844113 -5.53671416 -0.80614558 0 0 Z M-8 7 C-8.99 8.485 -8.99 8.485 -10 10 C-6.7 10 -3.4 10 0 10 C-2.60555548 6.79717837 -2.60555548 6.79717837 -5.5625 6.625 C-6.366875 6.74875 -7.17125 6.8725 -8 7 Z " fill="#2E2D62" transform="translate(207,268)"/>
<path d="M0 0 C2.83603645 2.43088838 4.48454959 4.53217141 6.1875 7.875 C6.1875 10.515 6.1875 13.155 6.1875 15.875 C-0.0825 15.875 -6.3525 15.875 -12.8125 15.875 C-10.14789343 19.18807303 -10.14789343 19.18807303 -6.6875 19.125 C-3.91778442 19.19468178 -3.91778442 19.19468178 -2.8125 17.875 C-0.14191149 17.73384839 2.51182238 17.83252893 5.1875 17.875 C4.99020678 21.42627795 4.39568982 22.67228886 1.8125 25.1875 C-3.15575332 27.50030758 -7.41794422 27.55034897 -12.8125 26.875 C-17.06769272 25.19065288 -18.92926073 23.01812639 -20.8125 18.875 C-22.08042733 13.60822493 -21.86014782 9.90104465 -19.8125 4.875 C-14.49284616 -1.3994635 -7.72407547 -3.08963019 0 0 Z M-11.8125 6.875 C-11.8125 7.535 -11.8125 8.195 -11.8125 8.875 C-8.8425 8.875 -5.8725 8.875 -2.8125 8.875 C-3.4725 7.885 -4.1325 6.895 -4.8125 5.875 C-7.61811762 5.59443824 -9.27828263 5.60789132 -11.8125 6.875 Z " fill="#2E2D62" transform="translate(126.8125,380.125)"/>
<path d="M0 0 C4.38410756 2.19205378 7.13092657 4.43115383 9 9 C9 11.64 9 14.28 9 17 C2.73 17 -3.54 17 -10 17 C-7.33539343 20.31307303 -7.33539343 20.31307303 -3.875 20.25 C-1.10528442 20.31968178 -1.10528442 20.31968178 0 19 C2.67058851 18.85884839 5.32432238 18.95752893 8 19 C7.80270678 22.55127795 7.20818982 23.79728886 4.625 26.3125 C-0.34325332 28.62530758 -4.60544422 28.67534897 -10 28 C-14.25519272 26.31565288 -16.11676073 24.14312639 -18 20 C-19.26792733 14.73322493 -19.04764782 11.02604465 -17 6 C-12.03769403 0.14702373 -7.40688854 -0.91161705 0 0 Z M-9 8 C-9 8.66 -9 9.32 -9 10 C-6.03 10 -3.06 10 0 10 C-0.66 9.01 -1.32 8.02 -2 7 C-4.80561762 6.71943824 -6.46578263 6.73289132 -9 8 Z " fill="#2E2D62" transform="translate(176,268)"/>
<path d="M0 0 C2.89683868 2.2015974 4.39297231 3.78594462 6 7 C6.27755815 10.63469004 6.44735896 14.26911868 6.62109375 17.91015625 C6.74613281 18.92980469 6.87117188 19.94945312 7 21 C7.66 21.33 8.32 21.66 9 22 C9 23.98 9 25.96 9 28 C3.375 28.25 3.375 28.25 0 26 C-0.66 26.66 -1.32 27.32 -2 28 C-4.6796875 28.3359375 -4.6796875 28.3359375 -7.875 28.375 C-9.44894531 28.41753906 -9.44894531 28.41753906 -11.0546875 28.4609375 C-14.69064326 27.89191525 -15.83088329 26.92984959 -18 24 C-18.72894044 21.25575364 -18.55956449 18.7749831 -18 16 C-15.40387397 12.20566196 -12.3950537 11.05481289 -8 10 C-4.625 9.875 -4.625 9.875 -2 10 C-2.33 9.34 -2.66 8.68 -3 8 C-6.02934491 7.34227572 -6.02934491 7.34227572 -9 7 C-9 7.66 -9 8.32 -9 9 C-11.64 9 -14.28 9 -17 9 C-16.50233954 5.31731261 -15.93714041 3.34971233 -13 1 C-9.04603037 -0.97698481 -4.29880647 -0.57069292 0 0 Z M-10 18 C-9.67 19.32 -9.34 20.64 -9 22 C-6.55519921 21.81171228 -6.55519921 21.81171228 -4 21 C-2.63979849 19.03241727 -2.63979849 19.03241727 -2 17 C-6.14093698 16.79029441 -6.14093698 16.79029441 -10 18 Z " fill="#2E2D62" transform="translate(154,379)"/>
<path d="M0 0 C3.57091854 2.87657327 5.08044945 5.54612241 5.69140625 10.109375 C5.73136719 11.24890625 5.77132812 12.3884375 5.8125 13.5625 C5.8941097 16.9328138 5.8941097 16.9328138 6.25 19.8125 C6.91 20.1425 7.57 20.4725 8.25 20.8125 C8.25 23.1225 8.25 25.4325 8.25 27.8125 C7.156875 27.6475 6.06375 27.4825 4.9375 27.3125 C1.11943348 26.79479607 -1.10109177 26.59619726 -4.75 27.8125 C-10.1679817 28.16204721 -13.27629521 28.20167029 -17.75 24.8125 C-19.31918492 23.24331508 -19.03258943 21.67164841 -19.125 19.5 C-19.09562383 15.80447722 -19.05862936 15.14615336 -16.4375 12.3125 C-12.98980778 10.38820667 -10.45207138 9.68623653 -6.5625 9.75 C-4.6753125 9.7809375 -4.6753125 9.7809375 -2.75 9.8125 C-3.41 8.8225 -4.07 7.8325 -4.75 6.8125 C-5.41 6.9775 -6.07 7.1425 -6.75 7.3125 C-10.48099794 7.93433299 -13.96873378 7.87658926 -17.75 7.8125 C-17.4155974 4.71927596 -17.1904882 3.22362232 -14.875 1.0625 C-10.06700419 -1.76573283 -5.14999186 -2.22386012 0 0 Z M-10.75 17.8125 C-10.75 18.8025 -10.75 19.7925 -10.75 20.8125 C-7.285 20.3175 -7.285 20.3175 -3.75 19.8125 C-3.42 18.4925 -3.09 17.1725 -2.75 15.8125 C-6.51687864 15.8125 -7.66190305 16.04787317 -10.75 17.8125 Z " fill="#2E2D62" transform="translate(200.75,324.1875)"/>
<path d="M0 0 C2.93423195 1.79646854 4.47205355 2.9441071 6 6 C6.23798501 9.30975448 6.38267886 12.61835735 6.5234375 15.93359375 C7.04173104 19.26851531 7.56918101 19.87222741 10 22 C10.1875 25.1875 10.1875 25.1875 10 28 C6.33333333 28 2.66666667 28 -1 28 C-2.45970175 28.22028226 -3.91803571 28.44978477 -5.375 28.6875 C-9.74625584 29.19880011 -12.28987211 28.53374587 -16 26 C-18.34549674 22.48175489 -18.57991403 21.14224306 -18 17 C-14.1257875 11.25547802 -8.40544115 10.37980606 -2 9 C-3.0595877 7.71677453 -3.0595877 7.71677453 -5.5 7.875 C-7.9404123 7.71677453 -7.9404123 7.71677453 -9 9 C-11.67058851 9.14115161 -14.32432238 9.04247107 -17 9 C-16.18221657 5.65452231 -15.54207779 3.50819792 -13 1.125 C-8.63510877 -0.51183421 -4.6035391 -0.70300351 0 0 Z M-10 19 C-9.67 19.99 -9.34 20.98 -9 22 C-6.05908413 21.81584568 -6.05908413 21.81584568 -3 21 C-1.56362302 19.04836882 -1.56362302 19.04836882 -1 17 C-5.7897321 16.76571687 -5.7897321 16.76571687 -10 19 Z " fill="#2E2D62" transform="translate(347,268)"/>
<path d="M0 0 C4.52381061 4.73923016 4.625 7.08898767 4.625 13.75 C-4.78 14.245 -4.78 14.245 -14.375 14.75 C-11.76816256 17.99371889 -11.76816256 17.99371889 -8.75 18 C-6.42203565 18.00676839 -6.42203565 18.00676839 -5.375 16.75 C-3.85571962 16.67820036 -2.33332518 16.66607993 -0.8125 16.6875 C0.01378906 16.69652344 0.84007812 16.70554687 1.69140625 16.71484375 C2.64853516 16.73224609 2.64853516 16.73224609 3.625 16.75 C2.68526802 20.13303514 1.6976148 21.68446957 -0.9375 24.0625 C-5.28227637 26.19539022 -8.62027363 26.6021015 -13.375 25.75 C-18.49262818 23.09641502 -21.55205942 20.21882174 -23.375 14.75 C-23.77114654 9.50105833 -23.24057317 6.19657906 -20.375 1.75 C-14.44760513 -3.87342591 -6.78781473 -5.29050266 0 0 Z M-10.375 3.75 C-12.70954661 5.58358335 -12.70954661 5.58358335 -14.375 7.75 C-11.075 7.75 -7.775 7.75 -4.375 7.75 C-4.705 6.76 -5.035 5.77 -5.375 4.75 C-7.66794488 3.89025199 -7.66794488 3.89025199 -10.375 3.75 Z " fill="#2E2D62" transform="translate(335.375,326.25)"/>
<path d="M0 0 C3.43615111 2.12017834 5.80717883 4.09622164 7 8 C7 10.64 7 13.28 7 16 C0.73 16 -5.54 16 -12 16 C-10.68 17.32 -9.36 18.64 -8 20 C-5.18762109 19.79690838 -5.18762109 19.79690838 -2 19 C1.00197162 18.89682258 3.99721673 18.93994433 7 19 C2.8 26.4 2.8 26.4 -2 28 C-7.58419173 28.36617651 -11.22647798 28.2546741 -16 25 C-19.46987891 21.34749588 -20.30013186 18.4034317 -20.5 13.5 C-20.29323504 8.59099978 -19.52848824 5.6189623 -16 2 C-10.60810832 -1.27742435 -5.97445858 -1.6589491 0 0 Z M-10.1875 8 C-10.785625 8.66 -11.38375 9.32 -12 10 C-8.37 10 -4.74 10 -1 10 C-2.81222534 7.9375006 -2.81222534 7.9375006 -5 6 C-8.12498166 5.6626154 -8.12498166 5.6626154 -10.1875 8 Z " fill="#2E2D62" transform="translate(425,324)"/>
<path d="M0 0 C2.38312703 1.89428046 3.6500559 3.30011179 5 6 C5.08426094 7.6674606 5.10725143 9.33825187 5.09765625 11.0078125 C5.09443359 11.99394531 5.09121094 12.98007812 5.08789062 13.99609375 C5.07951172 15.02863281 5.07113281 16.06117188 5.0625 17.125 C5.05798828 18.16527344 5.05347656 19.20554687 5.04882812 20.27734375 C5.03701952 22.85161962 5.02055075 25.42578146 5 28 C2.36 28 -0.28 28 -3 28 C-3.02505615 27.42967041 -3.0501123 26.85934082 -3.07592773 26.27172852 C-3.19156549 23.70173843 -3.31443624 21.13214473 -3.4375 18.5625 C-3.47681641 17.66466797 -3.51613281 16.76683594 -3.55664062 15.84179688 C-3.59853516 14.98779297 -3.64042969 14.13378906 -3.68359375 13.25390625 C-3.72025146 12.46314697 -3.75690918 11.6723877 -3.79467773 10.85766602 C-3.80563257 8.98598559 -3.80563257 8.98598559 -5 8 C-7.45809998 7.7499227 -7.45809998 7.7499227 -10 8 C-12.35358251 10.35358251 -12.27871904 10.92968394 -12.4140625 14.1328125 C-12.47207031 15.34130859 -12.47207031 15.34130859 -12.53125 16.57421875 C-12.57765625 17.83685547 -12.57765625 17.83685547 -12.625 19.125 C-12.68300781 20.39923828 -12.68300781 20.39923828 -12.7421875 21.69921875 C-12.83656494 23.79911684 -12.91937586 25.89952891 -13 28 C-15.97 28 -18.94 28 -22 28 C-22 18.76 -22 9.52 -22 0 C-19.69 0 -17.38 0 -15 0 C-15 0.66 -15 1.32 -15 2 C-13.515 1.2265625 -13.515 1.2265625 -12 0.4375 C-7.57497866 -1.44739753 -4.65639811 -1.14501593 0 0 Z " fill="#2E2D62" transform="translate(365,324)"/>
<path d="M0 0 C2.31 0 4.62 0 7 0 C7 0.66 7 1.32 7 2 C7.639375 1.67 8.27875 1.34 8.9375 1 C13.03290819 -0.33727615 16.73119624 -0.64186723 21 0 C24.49890004 2.11391877 25.70578686 3.11736059 27 7 C27.08143855 8.62719482 27.1075302 10.25751719 27.09765625 11.88671875 C27.09443359 12.82451172 27.09121094 13.76230469 27.08789062 14.72851562 C27.07951172 15.70498047 27.07113281 16.68144531 27.0625 17.6875 C27.05798828 18.67556641 27.05347656 19.66363281 27.04882812 20.68164062 C27.03704303 23.12115474 27.02059011 25.56054689 27 28 C24.36 28 21.72 28 19 28 C18.505 18.1 18.505 18.1 18 8 C15.69 8.33 13.38 8.66 11 9 C9.3501993 12.29960141 9.61741639 15.99127884 9.4375 19.625 C9.39431641 20.42679687 9.35113281 21.22859375 9.30664062 22.0546875 C9.20048543 24.0362511 9.09973145 26.01810271 9 28 C6.03 28 3.06 28 0 28 C0 18.76 0 9.52 0 0 Z " fill="#2E2D62" transform="translate(52,268)"/>
<path d="M0 0 C3.93897288 3.65075535 5.6925055 7.02595347 5.9375 12.375 C5.69363522 17.69938096 3.93513454 21.07099719 0.0625 24.75 C-4.84674556 27.02929258 -9.11216573 27.15161125 -14.4375 26.375 C-18.32674158 24.5692807 -19.94915031 23.10752453 -22.3125 19.5625 C-24.04981079 14.64011944 -24.0980574 11.05942137 -22.1875 6.1875 C-17.04830474 -2.07192095 -8.84512104 -4.18132994 0 0 Z M-12.625 6.5625 C-14.93298235 8.87048235 -15.35998409 10.11933177 -15.4375 13.375 C-14.2959081 15.6581838 -13.24737317 17.56512683 -11.4375 19.375 C-7.95131119 19.28191463 -7.95131119 19.28191463 -4.4375 18.375 C-2.7550507 16.76058027 -2.7550507 16.76058027 -2.4375 14.375 C-2.63142503 11.20755787 -2.91877975 9.11602893 -4.75 6.5 C-7.54882375 4.6341175 -9.77888502 5.01746615 -12.625 6.5625 Z " fill="#2E2D62" transform="translate(318.4375,380.625)"/>
<path d="M0 0 C2.31 0 4.62 0 7 0 C7.33 0.66 7.66 1.32 8 2 C8.99 1.34 9.98 0.68 11 0 C14.76180887 -0.68070827 18.44061892 -0.8103616 21.88671875 0.98046875 C24.92554803 3.3717993 26.37811929 5.24528128 27 9 C27.07818636 10.51395696 27.10789909 12.03093507 27.09765625 13.546875 C27.09443359 14.39121094 27.09121094 15.23554688 27.08789062 16.10546875 C27.07951172 16.97816406 27.07113281 17.85085938 27.0625 18.75 C27.05798828 19.63816406 27.05347656 20.52632813 27.04882812 21.44140625 C27.037074 23.62767329 27.02064249 25.81380179 27 28 C24.36 28 21.72 28 19 28 C18.95101563 26.80761719 18.90203125 25.61523438 18.8515625 24.38671875 C18.77652396 22.82028932 18.7009766 21.25388421 18.625 19.6875 C18.5940625 18.90181641 18.563125 18.11613281 18.53125 17.30664062 C18.49257813 16.54931641 18.45390625 15.79199219 18.4140625 15.01171875 C18.36693115 13.96697388 18.36693115 13.96697388 18.31884766 12.90112305 C18.07881747 10.67467261 18.07881747 10.67467261 16 8 C13.56282742 8.27034634 13.56282742 8.27034634 11 9 C8.51955685 12.72066472 8.55618827 15.86540474 8.375 20.1875 C8.31699219 21.31188477 8.31699219 21.31188477 8.2578125 22.45898438 C8.16371784 24.30559199 8.08077681 26.1527619 8 28 C5.36 28 2.72 28 0 28 C0 18.76 0 9.52 0 0 Z " fill="#2E2D62" transform="translate(360,379)"/>
<path d="M0 0 C1.98 0 3.96 0 6 0 C6.66 0.66 7.32 1.32 8 2 C8.99 1.34 9.98 0.68 11 0 C15.47208083 -0.72022276 18.98669453 -0.58211165 22.9375 1.6875 C27.5924063 6.90663737 27.25381528 12.16860429 27.125 18.8125 C27.11597656 19.69615234 27.10695313 20.57980469 27.09765625 21.49023438 C27.07419637 23.66027359 27.03832865 25.83017247 27 28 C24.36 28 21.72 28 19 28 C18.92652344 26.33710938 18.92652344 26.33710938 18.8515625 24.640625 C18.77650785 23.17705935 18.70096119 21.71351888 18.625 20.25 C18.5940625 19.52039063 18.563125 18.79078125 18.53125 18.0390625 C18.3251506 14.26057344 18.08487157 11.22053332 16 8 C13.56282742 8.27034634 13.56282742 8.27034634 11 9 C8.51955685 12.72066472 8.55618827 15.86540474 8.375 20.1875 C8.31699219 21.31188477 8.31699219 21.31188477 8.2578125 22.45898438 C8.16371784 24.30559199 8.08077681 26.1527619 8 28 C5.36 28 2.72 28 0 28 C0 18.76 0 9.52 0 0 Z " fill="#2E2D62" transform="translate(255,268)"/>
<path d="M0 0 C1.98 0 3.96 0 6 0 C6.66 0.66 7.32 1.32 8 2 C8.99 1.34 9.98 0.68 11 0 C15.47208083 -0.72022276 18.98669453 -0.58211165 22.9375 1.6875 C27.5924063 6.90663737 27.25381528 12.16860429 27.125 18.8125 C27.11597656 19.69615234 27.10695312 20.57980469 27.09765625 21.49023438 C27.07419637 23.66027359 27.03832865 25.83017247 27 28 C24.36 28 21.72 28 19 28 C18.92652344 26.33710938 18.92652344 26.33710938 18.8515625 24.640625 C18.77650785 23.17705935 18.70096119 21.71351888 18.625 20.25 C18.5940625 19.52039063 18.563125 18.79078125 18.53125 18.0390625 C18.3251506 14.26057344 18.08487157 11.22053332 16 8 C13.56282742 8.27034634 13.56282742 8.27034634 11 9 C8.51955685 12.72066472 8.55618827 15.86540474 8.375 20.1875 C8.31699219 21.31188477 8.31699219 21.31188477 8.2578125 22.45898438 C8.16371784 24.30559199 8.08077681 26.1527619 8 28 C5.36 28 2.72 28 0 28 C0 18.76 0 9.52 0 0 Z " fill="#2E2D62" transform="translate(127,268)"/>
<path d="M0 0 C1.98 0 3.96 0 6 0 C6.66 0.66 7.32 1.32 8 2 C8.99 1.34 9.98 0.68 11 0 C15.47208083 -0.72022276 18.98669453 -0.58211165 22.9375 1.6875 C27.5924063 6.90663737 27.25381528 12.16860429 27.125 18.8125 C27.11597656 19.69615234 27.10695313 20.57980469 27.09765625 21.49023438 C27.07419637 23.66027359 27.03832865 25.83017247 27 28 C24.36 28 21.72 28 19 28 C18.92652344 26.33710938 18.92652344 26.33710938 18.8515625 24.640625 C18.77650785 23.17705935 18.70096119 21.71351888 18.625 20.25 C18.5940625 19.52039063 18.563125 18.79078125 18.53125 18.0390625 C18.3251506 14.26057344 18.08487157 11.22053332 16 8 C12.06924356 8.57452746 12.06924356 8.57452746 9 11 C8.69324768 13.89967757 8.48826629 16.71783178 8.375 19.625 C8.31699219 20.82769531 8.31699219 20.82769531 8.2578125 22.0546875 C8.16346069 24.03607556 8.08063785 26.01800645 8 28 C5.36 28 2.72 28 0 28 C0 18.76 0 9.52 0 0 Z " fill="#2E2D62" transform="translate(360,268)"/>
<path d="M0 0 C2.64 0 5.28 0 8 0 C8.06058594 1.27617187 8.12117188 2.55234375 8.18359375 3.8671875 C8.26799568 5.53647016 8.35264386 7.20574037 8.4375 8.875 C8.47681641 9.71675781 8.51613281 10.55851562 8.55664062 11.42578125 C8.61948242 12.63427734 8.61948242 12.63427734 8.68359375 13.8671875 C8.72025146 14.61081543 8.75690918 15.35444336 8.79467773 16.12060547 C8.89955865 18.08864312 8.89955865 18.08864312 10 20 C12.41645782 20.16687448 12.41645782 20.16687448 15 20 C17.35358251 17.64641749 17.27871904 17.07031606 17.4140625 13.8671875 C17.45273437 13.06152344 17.49140625 12.25585938 17.53125 11.42578125 C17.57765625 10.16314453 17.57765625 10.16314453 17.625 8.875 C17.66367187 8.02550781 17.70234375 7.17601562 17.7421875 6.30078125 C17.83656494 4.20088316 17.91937586 2.10047109 18 0 C20.64 0 23.28 0 26 0 C26 9.24 26 18.48 26 28 C20 28 20 28 18 27 C17.34 27.33 16.68 27.66 16 28 C11.08003072 28.53118252 7.22672403 28.75105553 2.9375 26.125 C0.02795783 22.93388923 -0.12193298 21.21633781 -0.09765625 16.9921875 C-0.09443359 16.00605469 -0.09121094 15.01992188 -0.08789062 14.00390625 C-0.07951172 12.97136719 -0.07113281 11.93882812 -0.0625 10.875 C-0.05798828 9.83472656 -0.05347656 8.79445313 -0.04882812 7.72265625 C-0.03701952 5.14838038 -0.02055075 2.57421854 0 0 Z " fill="#2E2D62" transform="translate(328,379)"/>
<path d="M0 0 C2.91604293 3.09277281 4.0625 4.91361905 4.0625 9.1875 C2.62594146 9.26881463 1.1880517 9.32683559 -0.25 9.375 C-1.05050781 9.40980469 -1.85101563 9.44460938 -2.67578125 9.48046875 C-5.4614777 9.11962724 -6.06604116 8.18372277 -7.9375 6.1875 C-11.06299017 5.93701364 -11.06299017 5.93701364 -13.9375 6.1875 C-14.14375 7.445625 -14.35 8.70375 -14.5625 10 C-14.67851562 10.70769531 -14.79453125 11.41539062 -14.9140625 12.14453125 C-15.13327848 14.50505824 -15.13327848 14.50505824 -12.9375 17.1875 C-9.9375 17.60416667 -9.9375 17.60416667 -6.9375 17.1875 C-6.2775 16.5275 -5.6175 15.8675 -4.9375 15.1875 C-2.7734375 14.9921875 -2.7734375 14.9921875 -0.3125 15.0625 C0.91339844 15.08957031 0.91339844 15.08957031 2.1640625 15.1171875 C3.10378906 15.15199219 3.10378906 15.15199219 4.0625 15.1875 C2.82142597 20.15179611 1.30143588 22.32621828 -2.9375 25.1875 C-6.42296176 26.93023088 -10.1267296 26.63032275 -13.9375 26.1875 C-17.90371085 24.860374 -20.44346471 22.88871137 -22.875 19.4375 C-24.59364528 14.18046738 -24.65305504 10.14586117 -22.75 4.9375 C-20.46560929 1.47152789 -18.07955428 -1.11033283 -14.0546875 -2.4296875 C-9.02196353 -3.33966342 -4.33677128 -2.67588015 0 0 Z " fill="#2E2D62" transform="translate(397.9375,325.8125)"/>
<path d="M0 0 C2.75530996 2.28297111 3.85575203 4.51817608 5.1875 7.8125 C5.1875 8.4725 5.1875 9.1325 5.1875 9.8125 C3.75094146 9.89381463 2.3130517 9.95183559 0.875 10 C0.07449219 10.03480469 -0.72601563 10.06960938 -1.55078125 10.10546875 C-4.33400111 9.74494804 -4.93229214 8.79221746 -6.8125 6.8125 C-9.93243606 6.88792341 -9.93243606 6.88792341 -12.8125 7.8125 C-14.19375018 10.57500036 -14.00329306 12.75981099 -13.8125 15.8125 C-11.92749729 18.12813087 -11.92749729 18.12813087 -8.8125 18.0625 C-5.69750271 18.12813087 -5.69750271 18.12813087 -3.8125 15.8125 C-1.6484375 15.6171875 -1.6484375 15.6171875 0.8125 15.6875 C2.03839844 15.71457031 2.03839844 15.71457031 3.2890625 15.7421875 C4.22878906 15.77699219 4.22878906 15.77699219 5.1875 15.8125 C2.28330838 23.50860778 2.28330838 23.50860778 -1.8125 25.8125 C-6.1825345 27.26917817 -10.42519796 27.68232886 -14.78515625 26.09375 C-18.75066445 24.00575418 -21.25907534 22.01588438 -22.8125 17.8125 C-23.49284317 12.73543909 -23.40894621 8.98409078 -21.0625 4.375 C-14.95186894 -2.58432982 -8.58489995 -3.62473554 0 0 Z " fill="#2E2D62" transform="translate(290.8125,325.1875)"/>
<path d="M0 0 C2.52666154 2.02132923 3.80276453 3.83476743 5.1875 6.75 C5.1875 7.74 5.1875 8.73 5.1875 9.75 C3.75094146 9.83131463 2.3130517 9.88933559 0.875 9.9375 C0.07449219 9.97230469 -0.72601563 10.00710938 -1.55078125 10.04296875 C-4.33400111 9.68244804 -4.93229214 8.72971746 -6.8125 6.75 C-9.93243606 6.82542341 -9.93243606 6.82542341 -12.8125 7.75 C-14.19375018 10.51250036 -14.00329306 12.69731099 -13.8125 15.75 C-11.92749729 18.06563087 -11.92749729 18.06563087 -8.8125 18 C-5.69750271 18.06563087 -5.69750271 18.06563087 -3.8125 15.75 C-1.6484375 15.5546875 -1.6484375 15.5546875 0.8125 15.625 C2.03839844 15.65207031 2.03839844 15.65207031 3.2890625 15.6796875 C4.22878906 15.71449219 4.22878906 15.71449219 5.1875 15.75 C3.94891604 20.70433585 2.45991667 22.93645731 -1.8125 25.75 C-6.18845337 27.20865112 -10.40352038 27.58479492 -14.78515625 26.06640625 C-17.8354606 24.50563481 -19.75338302 22.83200098 -21.75 20.0625 C-23.11181909 15.81682872 -23.53242115 12.16446158 -22.8125 7.75 C-20.4534076 3.2003218 -17.8073207 0.03349459 -13.0625 -2 C-8.39052599 -2.51910822 -4.24705329 -1.88757924 0 0 Z " fill="#2E2D62" transform="translate(173.8125,325.25)"/>
<path d="M0 0 C4.06290008 -0.08095816 8.12418567 -0.14048645 12.1875 -0.1875 C13.91323242 -0.22520508 13.91323242 -0.22520508 15.67382812 -0.26367188 C17.34155273 -0.27817383 17.34155273 -0.27817383 19.04296875 -0.29296875 C20.06414795 -0.3086792 21.08532715 -0.32438965 22.13745117 -0.34057617 C25.74371145 0.08848422 28.41524436 1.41524436 31 4 C31.58772438 10.2298784 31.58772438 10.2298784 29.1875 13.375 C25.62293357 16.02296363 22.76405194 16.12044472 18.45703125 16.09765625 C17.38388672 16.09443359 16.31074219 16.09121094 15.20507812 16.08789062 C14.08552734 16.07951172 12.96597656 16.07113281 11.8125 16.0625 C10.68134766 16.05798828 9.55019531 16.05347656 8.38476562 16.04882812 C5.58982124 16.03703511 2.79490401 16.01909957 0 16 C0 10.72 0 5.44 0 0 Z " fill="#2E2D62" transform="translate(45,136)"/>
<path d="M0 0 C3.85544798 1.99657127 5.59805092 3.39707638 8 7 C8 8.32 8 9.64 8 11 C1.9453125 11.1953125 1.9453125 11.1953125 0 11 C-0.66 10.34 -1.32 9.68 -2 9 C-4.68839385 8.73008094 -7.29141936 8.91262643 -10 9 C-10.68066494 11.99492576 -11.17005683 14.30087749 -10.4375 17.3125 C-9.01694001 19.29303165 -9.01694001 19.29303165 -6 19.875 C-5.01 19.91625 -4.02 19.9575 -3 20 C-2.34 19.34 -1.68 18.68 -1 18 C1.1640625 17.8046875 1.1640625 17.8046875 3.625 17.875 C4.85089844 17.90207031 4.85089844 17.90207031 6.1015625 17.9296875 C7.04128906 17.96449219 7.04128906 17.96449219 8 18 C7.70179167 21.57849992 7.25754642 22.76226484 4.5625 25.25 C-0.50036861 28.70756881 -4.97771288 28.47934268 -11 28 C-15.25519272 26.31565288 -17.11676073 24.14312639 -19 20 C-20.26472348 14.74653324 -20.1259255 10.99130335 -18 6 C-12.62551133 0.19136044 -7.64797617 -0.86802184 0 0 Z " fill="#2E2D62" transform="translate(410,379)"/>
<path d="M0 0 C0.70125 0.556875 1.4025 1.11375 2.125 1.6875 C2.7025 2.14125 3.28 2.595 3.875 3.0625 C5.50388879 5.18005542 5.77145665 7.07127923 6.125 9.6875 C4.66707116 9.74149736 3.20857288 9.78029177 1.75 9.8125 C0.93789062 9.83570313 0.12578125 9.85890625 -0.7109375 9.8828125 C-2.875 9.6875 -2.875 9.6875 -4.875 7.6875 C-7.875 7.27083333 -7.875 7.27083333 -10.875 7.6875 C-13.44187367 11.5378105 -12.70788724 13.27319763 -11.875 17.6875 C-9.01721967 18.37243373 -9.01721967 18.37243373 -5.875 18.6875 C-4.885 18.0275 -3.895 17.3675 -2.875 16.6875 C-0.61328125 16.4921875 -0.61328125 16.4921875 1.8125 16.5625 C3.02486328 16.58957031 3.02486328 16.58957031 4.26171875 16.6171875 C4.87660156 16.64039063 5.49148437 16.66359375 6.125 16.6875 C3.87658085 22.95940605 3.87658085 22.95940605 1.125 25.625 C-4.39206568 27.57896076 -10.33240092 27.66126135 -15.8125 25.5625 C-19.81645607 21.92253993 -22.10493038 18.7165816 -22.375 13.25 C-22.12877387 8.38293016 -20.82315567 5.5666522 -17.875 1.6875 C-12.48954418 -2.19503792 -6.01185696 -2.74454339 0 0 Z " fill="#2E2D62" transform="translate(206.875,380.3125)"/>
<path d="M0 0 C3.375 1.6875 3.375 1.6875 6 4 C6.875 6.75 6.875 6.75 7 9 C-1.57142857 9.14285714 -1.57142857 9.14285714 -5 8 C-5 8.66 -5 9.32 -5 10 C-3.82630859 10.39832031 -3.82630859 10.39832031 -2.62890625 10.8046875 C-1.11103516 11.33449219 -1.11103516 11.33449219 0.4375 11.875 C1.44683594 12.22304688 2.45617187 12.57109375 3.49609375 12.9296875 C6 14 6 14 7 16 C7.58394161 23.24087591 7.58394161 23.24087591 5.125 26.4375 C0.88034781 29.55856779 -2.85174566 29.60466074 -8 29 C-11.5 27.4375 -11.5 27.4375 -14 25 C-14.875 21.25 -14.875 21.25 -15 18 C-11.625 17.8125 -11.625 17.8125 -8 18 C-7.34 18.99 -6.68 19.98 -6 21 C-4.68 21 -3.36 21 -2 21 C-2 20.34 -2 19.68 -2 19 C-2.68707031 18.76925781 -3.37414062 18.53851563 -4.08203125 18.30078125 C-11.42192763 15.64413778 -11.42192763 15.64413778 -14.1875 12.5625 C-15.16959002 9.46513918 -15.16636285 8.03254341 -14 5 C-9.93342529 0.12011035 -6.23125802 -0.52807271 0 0 Z " fill="#2E2D62" transform="translate(128,323)"/>
<path d="M0 0 C3.49642065 1.92659913 4.68231206 2.92474851 5.8125 6.75 C5.874375 7.4925 5.93625 8.235 6 9 C1.48382401 9.07654536 -2.59085217 9.10228696 -7 8 C-3.95676256 10.02882496 -1.27735257 11.00086276 2.16015625 12.12109375 C4 13 4 13 6 16 C6.54554784 20.20851192 6.43314903 22.29799985 4.1875 25.9375 C-0.48274839 28.95942543 -4.58775304 28.72434583 -10 28 C-13.0625 26.9375 -13.0625 26.9375 -15 25 C-16.3125 21.3125 -16.3125 21.3125 -17 18 C-9.43410853 17.62790698 -9.43410853 17.62790698 -7.25 19.5 C-6.8375 19.995 -6.425 20.49 -6 21 C-4.68 21 -3.36 21 -2 21 C-4.24550185 17.63174723 -4.74060415 17.53984028 -8.4375 16.5625 C-11.25947507 15.68233414 -12.81989836 15.15827114 -15.0625 13.1875 C-16.34175316 10.20257597 -16.46892366 8.21547649 -16 5 C-11.48183783 -0.57240002 -6.83722558 -0.77402554 0 0 Z " fill="#2E2D62" transform="translate(97,379)"/>
<path d="M0 0 C2.1875 1.625 2.1875 1.625 4.1875 3.625 C4.1875 4.945 4.1875 6.265 4.1875 7.625 C-4.38392857 7.76785714 -4.38392857 7.76785714 -7.8125 6.625 C-7.8125 7.285 -7.8125 7.945 -7.8125 8.625 C-7.19761719 8.80675781 -6.58273437 8.98851562 -5.94921875 9.17578125 C-4.73685547 9.55283203 -4.73685547 9.55283203 -3.5 9.9375 C-2.29923828 10.30294922 -2.29923828 10.30294922 -1.07421875 10.67578125 C1.35990623 11.69735702 2.60454569 12.52107338 4.1875 14.625 C4.96419903 21.61529126 4.96419903 21.61529126 2.3125 25.0625 C-1.61138153 27.94770701 -5.04820448 28.1209118 -9.8125 27.625 C-13.12246485 26.39908709 -15.13524734 25.57931057 -17.1875 22.6875 C-17.8125 20.625 -17.8125 20.625 -17.8125 16.625 C-15.1725 16.625 -12.5325 16.625 -9.8125 16.625 C-9.4825 17.615 -9.1525 18.605 -8.8125 19.625 C-7.1625 19.955 -5.5125 20.285 -3.8125 20.625 C-4.1425 19.635 -4.4725 18.645 -4.8125 17.625 C-7.07037891 16.45117876 -7.07037891 16.45117876 -9.75 15.5625 C-14.61967489 13.81782511 -14.61967489 13.81782511 -16.8125 11.625 C-17.49753937 4.54625984 -17.49753937 4.54625984 -15 1.1875 C-10.35296333 -2.1318119 -5.1191344 -2.50268793 0 0 Z " fill="#2E2D62" transform="translate(452.8125,324.375)"/>
<path d="M0 0 C1.65 1.65 3.3 3.3 5 5 C5.87398438 5.86238281 6.74796875 6.72476563 7.6484375 7.61328125 C12.98811644 12.8994104 18.14695538 18.25960411 23 24 C24.98 26.31 26.96 28.62 29 31 C19.43 31 9.86 31 0 31 C0 20.77 0 10.54 0 0 Z " fill="#302F63" transform="translate(119,89)"/>
<path d="M0 0 C2.64 0 5.28 0 8 0 C8 13.2 8 26.4 8 40 C5.36 40 2.72 40 0 40 C0 26.8 0 13.6 0 0 Z " fill="#2E2D62" transform="translate(212,312)"/>
<path d="M0 0 C2.64 0 5.28 0 8 0 C8 12.87 8 25.74 8 39 C5.36 39 2.72 39 0 39 C0 26.13 0 13.26 0 0 Z " fill="#2E2D62" transform="translate(436,368)"/>
<path d="M0 0 C2.31 0 4.62 0 7 0 C7 0.66 7 1.32 7 2 C7.515625 1.67 8.03125 1.34 8.5625 1 C11.78026512 -0.32010877 14.5570528 -0.13242105 18 0 C18 2.64 18 5.28 18 8 C16.576875 8.2165625 16.576875 8.2165625 15.125 8.4375 C12.1065506 8.82935399 12.1065506 8.82935399 10 10 C8.81304447 13.56086658 8.64904582 16.97331024 8.4375 20.6875 C8.39431641 21.38939453 8.35113281 22.09128906 8.30664062 22.81445312 C8.2008264 24.54275206 8.09993419 26.2713511 8 28 C5.36 28 2.72 28 0 28 C0 18.76 0 9.52 0 0 Z " fill="#2E2D62" transform="translate(219,268)"/>
<path d="M0 0 C2.31 0 4.62 0 7 0 C7.33 0.66 7.66 1.32 8 2 C8.99 1.34 9.98 0.68 11 0 C13.33199388 -0.07905064 15.66832622 -0.08798769 18 0 C18 2.64 18 5.28 18 8 C16.88625 8.103125 15.7725 8.20625 14.625 8.3125 C13.42875 8.539375 12.2325 8.76625 11 9 C8.51955685 12.72066472 8.55618827 15.86540474 8.375 20.1875 C8.31699219 21.31188477 8.31699219 21.31188477 8.2578125 22.45898438 C8.16371784 24.30559199 8.08077681 26.1527619 8 28 C5.36 28 2.72 28 0 28 C0 18.76 0 9.52 0 0 Z " fill="#2E2D62" transform="translate(166,379)"/>
<path d="M0 0 C0.33 0 0.66 0 1 0 C1 10.56 1 21.12 1 32 C0.34 32 -0.32 32 -1 32 C-1.66 31.2575 -2.32 30.515 -3 29.75 C-8.99580196 23.56078507 -17.76446227 22.35044841 -26 22 C-26 21.34 -26 20.68 -26 20 C-25.31035156 19.78085938 -24.62070313 19.56171875 -23.91015625 19.3359375 C-13.28907612 15.75186931 -6.07882764 11.74977252 -0.75 1.625 C-0.5025 1.08875 -0.255 0.5525 0 0 Z " fill="#403F6F" transform="translate(96,99)"/>
<path d="M0 0 C2.64 0 5.28 0 8 0 C8 9.24 8 18.48 8 28 C5.36 28 2.72 28 0 28 C0 18.76 0 9.52 0 0 Z " fill="#2E2D62" transform="translate(423,379)"/>
<path d="M0 0 C2.64 0 5.28 0 8 0 C8 9.24 8 18.48 8 28 C5.36 28 2.72 28 0 28 C0 18.76 0 9.52 0 0 Z " fill="#2E2D62" transform="translate(300,324)"/>
<path d="M0 0 C2.64 0 5.28 0 8 0 C8 9.24 8 18.48 8 28 C5.36 28 2.72 28 0 28 C0 18.76 0 9.52 0 0 Z " fill="#2E2D62" transform="translate(139,324)"/>
<path d="M0 0 C2.64 0 5.28 0 8 0 C8 9.24 8 18.48 8 28 C5.36 28 2.72 28 0 28 C0 18.76 0 9.52 0 0 Z " fill="#2E2D62" transform="translate(241,268)"/>
<path d="M0 0 C2.64 0 5.28 0 8 0 C8 9.24 8 18.48 8 28 C5.36 28 2.72 28 0 28 C0 18.76 0 9.52 0 0 Z " fill="#2E2D62" transform="translate(113,268)"/>
<path d="M0 0 C2 2 2 2 2.25 5 C2 8 2 8 0 10 C-3 10.25 -3 10.25 -6 10 C-8 8 -8 8 -8.3125 5 C-8.209375 4.01 -8.10625 3.02 -8 2 C-4.77626323 -0.14915785 -3.73296326 -0.38286803 0 0 Z " fill="#2E2D62" transform="translate(248,256)"/>
<path d="M0 0 C2 2 2 2 2.25 5 C2 8 2 8 0 10 C-3 10.25 -3 10.25 -6 10 C-8 8 -8 8 -8.3125 5 C-8.209375 4.01 -8.10625 3.02 -8 2 C-4.77626323 -0.14915785 -3.73296326 -0.38286803 0 0 Z " fill="#2E2D62" transform="translate(120,256)"/>
<path d="M0 0 C3.625 0.375 3.625 0.375 7 1 C7.625 3.8125 7.625 3.8125 8 7 C7.01 8.485 7.01 8.485 6 10 C3 10.3125 3 10.3125 0 10 C-2 8 -2 8 -2.25 5 C-2 2 -2 2 0 0 Z " fill="#2E2D62" transform="translate(424,367)"/>
<path d="M0 0 C3 0.25 3 0.25 5 2.25 C5.3125 5.25 5.3125 5.25 5 8.25 C2 10.25 2 10.25 -0.5625 10 C-3 9.25 -3 9.25 -5 7.25 C-5.25 4.75 -5.25 4.75 -5 2.25 C-3 0.25 -3 0.25 0 0 Z " fill="#2E2D62" transform="translate(304,311.75)"/>
<path d="M0 0 C3 0.25 3 0.25 5 2.25 C4.625 5.875 4.625 5.875 4 9.25 C-1.44736842 10.58157895 -1.44736842 10.58157895 -3.875 9.125 C-5.3568671 6.65522151 -5.3633156 5.08386167 -5 2.25 C-3 0.25 -3 0.25 0 0 Z " fill="#2E2D62" transform="translate(143,311.75)"/>
</svg>
