<svg xmlns="http://www.w3.org/2000/svg" width="1325" height="792" viewBox="0 0 1325 792" version="1.1"><path d="M 0 396 C 0 659.333, 0.335 792, 1 792 C 1.665 792, 2 659.333, 2 396 C 2 132.667, 1.665 0, 1 0 C 0.335 0, 0 132.667, 0 396 M 325 396 C 325 747.333, 325.169 792, 326.500 792 C 327.831 792, 328 747.333, 328 396 C 328 44.667, 327.831 0, 326.500 0 C 325.169 0, 325 44.667, 325 396 M 666 396 C 666 747.333, 666.169 792, 667.500 792 C 668.831 792, 669 747.333, 669 396 C 669 44.667, 668.831 0, 667.500 0 C 666.169 0, 666 44.667, 666 396 M 996 396 C 996 747.333, 996.169 792, 997.500 792 C 998.831 792, 999 747.333, 999 396 C 999 44.667, 998.831 0, 997.500 0 C 996.169 0, 996 44.667, 996 396 M 1322 396 C 1322 747.333, 1322.169 792, 1323.500 792 C 1324.831 792, 1325 747.333, 1325 396 C 1325 44.667, 1324.831 0, 1323.500 0 C 1322.169 0, 1322 44.667, 1322 396" stroke="none" fill="#000000" fill-rule="evenodd"/><path d="M 1072.746 222.023 C 1062.291 224.662, 1052.118 232.998, 1047.240 242.925 C 1044.808 247.874, 1044.500 249.624, 1044.500 258.500 C 1044.500 267.264, 1044.832 269.209, 1047.188 274.236 C 1050.623 281.564, 1058.436 289.377, 1065.764 292.812 C 1070.728 295.138, 1072.778 295.500, 1081 295.500 C 1089.373 295.500, 1091.245 295.156, 1096.782 292.599 C 1108.612 287.136, 1117.014 275.238, 1118.606 261.693 C 1120.394 246.482, 1108.912 228.639, 1094 223.457 C 1088.359 221.497, 1077.683 220.777, 1072.746 222.023 M 1072.500 301.348 C 1061.591 304.185, 1052.194 311.848, 1047.223 321.962 C 1044.810 326.869, 1044.500 328.639, 1044.500 337.500 C 1044.500 346.264, 1044.832 348.209, 1047.188 353.236 C 1050.623 360.564, 1058.436 368.377, 1065.764 371.812 C 1070.793 374.168, 1072.733 374.500, 1081.500 374.498 C 1090.792 374.496, 1091.931 374.271, 1097.588 371.315 C 1113.386 363.062, 1121.738 345.380, 1117.593 328.964 C 1112.578 309.100, 1091.746 296.342, 1072.500 301.348 M 1072.500 380.348 C 1061.591 383.185, 1052.194 390.848, 1047.223 400.962 C 1044.809 405.872, 1044.500 407.637, 1044.500 416.521 C 1044.500 425.806, 1044.739 427.027, 1047.750 433.144 C 1051.603 440.970, 1057.879 447.115, 1065.825 450.840 C 1070.784 453.164, 1072.761 453.500, 1081.500 453.500 C 1090.590 453.500, 1092.030 453.232, 1097.328 450.550 C 1104.965 446.683, 1113.130 437.864, 1116.089 430.285 C 1119.030 422.752, 1119.166 410.677, 1116.386 403.824 C 1109.083 385.818, 1090.235 375.735, 1072.500 380.348 M 1069.079 460.597 C 1059.339 464.108, 1051.679 471.189, 1047.135 480.880 C 1044.868 485.716, 1044.500 487.825, 1044.500 496 C 1044.500 504.214, 1044.863 506.274, 1047.180 511.218 C 1050.720 518.771, 1057.588 525.958, 1064.719 529.571 C 1070.020 532.257, 1071.372 532.500, 1081 532.500 C 1090.290 532.500, 1092.157 532.192, 1097.196 529.830 C 1107.958 524.785, 1115.585 514.680, 1118.037 502.217 C 1121.128 486.509, 1112.081 469.129, 1097.196 462.181 C 1090.010 458.826, 1076.155 458.046, 1069.079 460.597 M 1068.879 539.620 C 1063.076 541.615, 1055.559 547.245, 1051.379 552.726 C 1043.021 563.683, 1041.615 578.690, 1047.774 591.195 C 1051.924 599.621, 1059.791 607.030, 1067.752 610.008 C 1082.394 615.487, 1100.755 610.672, 1110.069 598.914 C 1125.390 579.568, 1119.271 552.137, 1097.218 541.308 C 1092.423 538.953, 1090.047 538.462, 1082.500 538.266 C 1076.341 538.105, 1072.041 538.533, 1068.879 539.620 M 1146.920 540.286 C 1136.896 544.512, 1131.094 550.184, 1126.475 560.273 C 1116.460 582.150, 1131.096 608.579, 1155.040 611.854 C 1172.016 614.175, 1187.552 605.726, 1194.820 590.218 C 1197.137 585.274, 1197.500 583.214, 1197.500 575 C 1197.500 566.803, 1197.135 564.722, 1194.840 559.825 C 1191.273 552.217, 1185.327 545.990, 1177.752 541.930 C 1172.132 538.918, 1170.540 538.547, 1162 538.256 C 1153.820 537.978, 1151.725 538.260, 1146.920 540.286 M 1228.500 539.391 C 1219.635 542.179, 1211.044 549.773, 1206.317 559 C 1203.756 564.001, 1203.500 565.453, 1203.500 575 C 1203.500 584.466, 1203.775 586.059, 1206.289 591.178 C 1210.020 598.776, 1219.109 607.149, 1226.714 609.994 C 1234.504 612.909, 1245.425 612.935, 1253.113 610.059 C 1280.490 599.816, 1285.978 563.910, 1262.970 545.561 C 1256.338 540.271, 1249.401 537.987, 1240.212 538.067 C 1235.971 538.104, 1230.700 538.700, 1228.500 539.391" stroke="none" fill="#ab1856" fill-rule="evenodd"/><path d="M 409 222.310 C 397.573 225.618, 388.857 232.803, 384.188 242.764 C 381.805 247.848, 381.500 249.693, 381.500 259 C 381.500 269.039, 381.649 269.774, 384.890 275.752 C 389.009 283.347, 395.241 289.284, 402.825 292.840 C 407.722 295.135, 409.803 295.500, 418 295.500 C 426.197 295.500, 428.278 295.135, 433.175 292.840 C 440.786 289.272, 447.013 283.324, 451.064 275.752 C 453.994 270.276, 454.458 268.382, 454.800 260.500 C 455.255 249.998, 453.258 243.244, 447.445 235.632 C 438.898 224.438, 421.946 218.564, 409 222.310 M 488.500 222.344 C 481.471 224.168, 477.404 226.505, 471.432 232.153 C 446.465 255.765, 465.427 298.107, 499.909 295.744 C 513.957 294.781, 525.253 286.983, 531.408 274 C 534.141 268.237, 534.491 266.477, 534.495 258.479 C 534.500 250.303, 534.193 248.835, 531.226 242.807 C 523.358 226.826, 505.041 218.053, 488.500 222.344 M 567.033 222.537 C 539.178 230.347, 530.143 265.894, 551.044 285.444 C 553.805 288.027, 558.637 291.346, 561.782 292.820 C 566.726 295.137, 568.786 295.500, 577 295.500 C 585.197 295.500, 587.278 295.135, 592.175 292.840 C 600.126 289.112, 606.397 282.970, 610.250 275.138 C 613.261 269.018, 613.500 267.793, 613.500 258.515 C 613.500 249.473, 613.216 247.922, 610.581 242.554 C 602.673 226.449, 583.884 217.813, 567.033 222.537 M 409.746 301.023 C 398.976 303.741, 388.737 312.060, 384.170 321.804 C 381.802 326.855, 381.502 328.689, 381.518 338 C 381.533 346.988, 381.875 349.188, 383.892 353.280 C 387.614 360.831, 394.300 367.530, 401.794 371.219 C 407.914 374.232, 409.237 374.500, 418 374.500 C 426.763 374.500, 428.086 374.232, 434.206 371.219 C 441.700 367.530, 448.386 360.831, 452.108 353.280 C 454.125 349.188, 454.467 346.988, 454.482 338 C 454.498 328.689, 454.198 326.855, 451.830 321.804 C 446.232 309.861, 433.561 301.283, 420.344 300.487 C 416.580 300.261, 411.811 300.502, 409.746 301.023 M 410.355 379.983 C 399.603 382.257, 388.860 390.799, 384.170 400.804 C 381.808 405.843, 381.500 407.710, 381.500 417 C 381.500 426.628, 381.743 427.980, 384.429 433.281 C 388.042 440.412, 395.229 447.280, 402.782 450.820 C 407.729 453.139, 409.784 453.500, 418.021 453.500 C 426.760 453.500, 428.089 453.231, 434.206 450.219 C 441.700 446.530, 448.386 439.831, 452.108 432.280 C 454.125 428.188, 454.467 425.988, 454.482 417 C 454.498 407.689, 454.198 405.855, 451.830 400.804 C 444.793 385.792, 426.444 376.581, 410.355 379.983 M 488.024 380.541 C 477.004 383.627, 468.130 391.223, 463.160 401.825 C 460.852 406.748, 460.505 408.758, 460.536 417 C 460.568 425.394, 460.909 427.196, 463.466 432.478 C 467.143 440.071, 473.863 446.805, 481.513 450.560 C 486.926 453.218, 488.459 453.500, 497.500 453.500 C 506.435 453.500, 508.109 453.201, 513.218 450.692 C 528.809 443.036, 537.766 425.020, 534.008 408.874 C 529.178 388.116, 507.866 374.985, 488.024 380.541 M 569.355 380.039 C 559.122 382.065, 549.146 389.487, 544.232 398.732 C 538.553 409.414, 538.069 421.585, 542.888 432.481 C 545.890 439.267, 553.991 447.260, 561.278 450.626 C 566.749 453.153, 568.647 453.500, 577 453.500 C 585.197 453.500, 587.278 453.135, 592.175 450.840 C 600.126 447.112, 606.397 440.970, 610.250 433.138 C 613.261 427.018, 613.500 425.793, 613.500 416.515 C 613.500 407.555, 613.203 405.895, 610.682 400.761 C 605.490 390.189, 595.709 382.566, 584.201 380.124 C 578.260 378.864, 575.378 378.847, 569.355 380.039 M 563.778 460.883 C 548.783 466.925, 539.786 480.094, 539.786 496 C 539.786 512.392, 549.853 526.469, 565.229 531.576 C 572.075 533.850, 585.689 533.176, 592.251 530.239 C 598.784 527.314, 607.078 519.181, 610.580 512.266 C 613.255 506.983, 613.500 505.620, 613.500 496 C 613.500 486.380, 613.255 485.017, 610.580 479.734 C 607.082 472.827, 598.794 464.695, 592.251 461.750 C 585.445 458.687, 570.368 458.228, 563.778 460.883 M 406.324 539.383 C 396.570 542.565, 386.597 552.125, 382.987 561.753 C 379.851 570.117, 380.404 583.268, 384.218 591.033 C 395.639 614.290, 426.125 619.506, 444.316 601.316 C 451.620 594.012, 454.430 587.381, 454.834 576.500 C 455.274 564.640, 452.990 558.264, 445.343 550.004 C 437.491 541.523, 431.171 538.654, 419.556 538.298 C 413.888 538.125, 408.938 538.531, 406.324 539.383 M 485.844 539.347 C 475.481 543.181, 467.820 550.148, 463.136 560 C 460.885 564.733, 460.521 566.824, 460.521 575 C 460.521 583.182, 460.888 585.287, 463.171 590.175 C 472.410 609.961, 496.094 617.996, 515.184 607.821 C 537.162 596.107, 541.479 566.406, 523.779 548.688 C 516.583 541.485, 509.546 538.582, 498.500 538.259 C 492.779 538.091, 488.168 538.488, 485.844 539.347 M 563.698 539.913 C 549.058 545.806, 539.769 559.433, 539.780 575 C 539.792 591.059, 549.018 604.496, 563.843 610.043 C 571.577 612.936, 582.476 612.916, 590.286 609.994 C 597.891 607.149, 606.981 598.775, 610.712 591.178 C 613.225 586.060, 613.500 584.465, 613.500 575 C 613.500 565.456, 613.244 563.999, 610.685 559 C 607.001 551.801, 600.161 544.915, 593.193 541.389 C 585.707 537.601, 571.239 536.878, 563.698 539.913" stroke="none" fill="#00b2cb" fill-rule="evenodd"/><path d="M 78.344 221.981 C 67.946 224.190, 57.072 233.107, 52.374 243.278 C 49.834 248.777, 49.504 250.604, 49.536 259 C 49.568 267.394, 49.909 269.196, 52.466 274.478 C 56.143 282.071, 62.863 288.805, 70.513 292.560 C 75.862 295.187, 77.512 295.500, 86 295.500 C 94.308 295.500, 96.253 295.149, 101.500 292.702 C 109.409 289.013, 117.120 281.322, 120.648 273.605 C 124.395 265.408, 124.544 253.555, 121.014 244.500 C 117.771 236.180, 108.720 227.155, 100.566 224.108 C 93.805 221.581, 84.441 220.685, 78.344 221.981 M 156 222.522 C 144.876 225.590, 134.494 235.247, 130.476 246.261 C 127.826 253.524, 128.024 264.646, 130.938 272.247 C 133.998 280.229, 141.437 288.105, 149.807 292.226 C 155.909 295.230, 157.244 295.500, 165.979 295.500 C 174.170 295.500, 176.268 295.135, 181 292.890 C 189.163 289.016, 195.402 282.960, 199.213 275.213 C 202.265 269.008, 202.500 267.816, 202.500 258.515 C 202.500 249.555, 202.203 247.895, 199.682 242.761 C 191.737 226.582, 172.907 217.858, 156 222.522 M 236.746 222.023 C 226.291 224.662, 216.118 232.998, 211.240 242.925 C 208.808 247.874, 208.500 249.624, 208.500 258.500 C 208.500 267.264, 208.832 269.209, 211.188 274.236 C 214.623 281.564, 222.436 289.377, 229.764 292.812 C 234.728 295.138, 236.778 295.500, 245 295.500 C 253.373 295.500, 255.245 295.156, 260.782 292.599 C 272.612 287.136, 281.014 275.238, 282.606 261.693 C 284.394 246.482, 272.912 228.639, 258 223.457 C 252.359 221.497, 241.683 220.777, 236.746 222.023 M 77.230 301.488 C 69.777 303.583, 66.354 305.552, 60.432 311.153 C 57.170 314.238, 54.183 318.362, 52.374 322.278 C 49.847 327.749, 49.500 329.647, 49.500 338 C 49.500 346.488, 49.813 348.138, 52.440 353.487 C 56.184 361.113, 62.887 367.816, 70.513 371.560 C 75.926 374.218, 77.459 374.500, 86.500 374.500 C 95.376 374.500, 97.126 374.192, 102.075 371.760 C 109.692 368.017, 116.683 360.861, 120.403 353 C 123.112 347.274, 123.471 345.488, 123.416 338 C 123.328 326.112, 120.609 319.433, 112.588 311.412 C 108.117 306.942, 104.924 304.736, 100.566 303.108 C 92.826 300.215, 83.952 299.600, 77.230 301.488 M 77.230 380.550 C 74.332 381.331, 70.533 382.707, 68.788 383.610 C 62.931 386.638, 55.383 394.763, 52.374 401.278 C 49.847 406.749, 49.500 408.647, 49.500 417 C 49.500 425.488, 49.813 427.138, 52.440 432.487 C 56.190 440.126, 63.447 447.382, 70.764 450.812 C 75.791 453.168, 77.736 453.500, 86.500 453.500 C 95.376 453.500, 97.126 453.192, 102.075 450.760 C 109.706 447.010, 116.686 439.860, 120.389 432 C 123.001 426.456, 123.454 424.323, 123.467 417.500 C 123.478 412.300, 122.843 407.655, 121.654 404.230 C 117.852 393.272, 107.115 383.532, 95.540 380.540 C 88.334 378.678, 84.177 378.680, 77.230 380.550 M 74.844 460.347 C 64.489 464.178, 56.639 471.276, 52.135 480.880 C 49.868 485.716, 49.500 487.825, 49.500 496 C 49.500 504.197, 49.865 506.278, 52.160 511.175 C 55.716 518.759, 61.653 524.991, 69.248 529.110 C 75.226 532.351, 75.961 532.500, 86 532.500 C 95.307 532.500, 97.152 532.195, 102.236 529.812 C 125.592 518.865, 131.002 487.982, 112.768 469.688 C 105.592 462.489, 98.550 459.582, 87.500 459.259 C 81.779 459.091, 77.168 459.488, 74.844 460.347 M 74.844 539.347 C 64.489 543.178, 56.639 550.276, 52.135 559.880 C 49.866 564.719, 49.500 566.824, 49.500 575.021 C 49.500 583.760, 49.769 585.089, 52.781 591.206 C 62.229 610.399, 85.335 617.868, 104.184 607.821 C 126.092 596.144, 130.412 566.390, 112.768 548.688 C 105.592 541.489, 98.550 538.582, 87.500 538.259 C 81.779 538.091, 77.168 538.488, 74.844 539.347 M 152.692 539.915 C 135.794 546.717, 125.650 564.377, 128.965 581.225 C 132.691 600.165, 147.038 612.158, 165.970 612.158 C 180.273 612.158, 192.510 604.610, 199.317 591.588 C 202.306 585.872, 202.500 584.859, 202.500 575 C 202.500 565.403, 202.256 564.037, 199.666 559.117 C 195.698 551.581, 189.062 544.852, 182.278 541.483 C 174.550 537.647, 160.216 536.887, 152.692 539.915 M 233.844 539.347 C 223.489 543.178, 215.639 550.276, 211.135 559.880 C 208.867 564.718, 208.500 566.824, 208.500 575.015 C 208.500 583.743, 208.771 585.081, 211.774 591.187 C 218.372 604.600, 230.356 612.158, 245.030 612.158 C 260.943 612.158, 272.806 604.353, 279.718 589.336 C 281.960 584.465, 282.406 582.095, 282.415 575 C 282.425 567.551, 282.038 565.672, 279.289 559.799 C 275.449 551.600, 269.320 545.285, 261.446 541.419 C 256.417 538.950, 254.112 538.461, 246.500 538.247 C 240.803 538.088, 236.158 538.491, 233.844 539.347" stroke="none" fill="#f46c5c" fill-rule="evenodd"/><path d="M 740.024 222.603 C 732.533 224.616, 727.072 228.014, 721.670 234.023 C 715.204 241.214, 712.588 248.387, 712.559 259 C 712.539 266.469, 712.913 268.288, 715.638 274 C 719.399 281.881, 726.451 289.097, 733.962 292.746 C 738.825 295.110, 740.719 295.442, 749.500 295.469 C 758.566 295.497, 760.058 295.226, 765.478 292.569 C 773.117 288.825, 779.857 282.071, 783.534 274.478 C 786.091 269.196, 786.432 267.394, 786.464 259 C 786.496 250.604, 786.166 248.777, 783.626 243.278 C 778.736 232.691, 768.536 224.526, 757.201 222.123 C 750.407 220.683, 746.793 220.784, 740.024 222.603 M 899.024 222.541 C 891.674 224.599, 886.256 227.914, 881.103 233.504 C 863.266 252.855, 870.403 283.585, 895.080 293.690 C 901.190 296.192, 915.810 296.192, 921.920 293.690 C 947.974 283.021, 954.077 249.980, 933.473 231.149 C 924.211 222.685, 910.630 219.291, 899.024 222.541 M 740.024 301.541 C 732.467 303.658, 727.034 307.056, 721.670 313.023 C 715.291 320.118, 712.663 327.343, 712.584 338 C 712.529 345.488, 712.888 347.274, 715.597 353 C 719.317 360.861, 726.308 368.017, 733.925 371.760 C 738.874 374.192, 740.624 374.500, 749.500 374.500 C 758.541 374.500, 760.074 374.218, 765.487 371.560 C 773.137 367.805, 779.857 361.071, 783.534 353.478 C 786.091 348.196, 786.432 346.394, 786.464 338 C 786.496 329.584, 786.169 327.783, 783.599 322.218 C 776.135 306.054, 756.752 296.857, 740.024 301.541 M 821.355 300.979 C 810.590 303.267, 799.858 311.802, 795.170 321.804 C 792.808 326.843, 792.500 328.710, 792.500 338 C 792.500 348.039, 792.649 348.774, 795.890 354.752 C 800.009 362.347, 806.241 368.284, 813.825 371.840 C 818.722 374.135, 820.803 374.500, 829 374.500 C 837.214 374.500, 839.274 374.137, 844.218 371.820 C 873.017 358.322, 873.894 318.412, 845.696 304.507 C 837.821 300.624, 829.024 299.348, 821.355 300.979 M 899.024 301.541 C 891.674 303.599, 886.256 306.914, 881.103 312.504 C 865.710 329.203, 868.638 355.554, 887.315 368.417 C 913.221 386.259, 948.297 365.938, 945.670 334.609 C 943.757 311.783, 920.734 295.461, 899.024 301.541 M 740.033 380.539 C 728.926 383.650, 718.891 392.544, 714.857 402.853 C 713.222 407.029, 712.630 410.714, 712.584 417 C 712.529 424.483, 712.889 426.278, 715.593 432.003 C 719.353 439.965, 726.137 446.940, 733.762 450.683 C 738.893 453.201, 740.558 453.500, 749.500 453.500 C 758.541 453.500, 760.074 453.218, 765.487 450.560 C 773.137 446.805, 779.857 440.071, 783.534 432.478 C 786.092 427.194, 786.432 425.395, 786.464 416.982 C 786.497 408.214, 786.242 406.941, 783.226 400.811 C 775.234 384.569, 756.701 375.870, 740.033 380.539 M 820.500 380.352 C 809.179 383.286, 800.405 390.401, 795.308 400.782 C 792.772 405.946, 792.500 407.517, 792.500 417 C 792.500 427.039, 792.649 427.774, 795.890 433.752 C 800.009 441.347, 806.241 447.284, 813.825 450.840 C 818.722 453.135, 820.803 453.500, 829 453.500 C 837.214 453.500, 839.274 453.137, 844.218 450.820 C 859.954 443.445, 868.513 427.542, 865.845 410.638 C 862.554 389.786, 840.622 375.137, 820.500 380.352 M 899.024 380.541 C 891.674 382.599, 886.256 385.914, 881.103 391.504 C 859.093 415.383, 876.022 454, 908.500 454 C 942.657 454, 958.738 412.240, 933.473 389.149 C 924.211 380.685, 910.630 377.291, 899.024 380.541 M 735.729 461.364 C 728.402 464.449, 722.108 469.598, 718.179 475.721 C 714.850 480.909, 712 490.263, 712 496 C 712 506.434, 717.886 518.492, 726.179 525.047 C 733.905 531.154, 740.795 533.264, 751.500 532.800 C 759.382 532.458, 761.276 531.994, 766.752 529.064 C 774.324 525.013, 780.272 518.786, 783.840 511.175 C 786.135 506.278, 786.500 504.197, 786.500 496 C 786.500 487.803, 786.135 485.722, 783.840 480.825 C 780.273 473.217, 774.327 466.990, 766.752 462.930 C 761.132 459.918, 759.540 459.547, 751 459.256 C 742.744 458.976, 740.744 459.252, 735.729 461.364 M 896.844 460.338 C 886.476 464.200, 879.153 470.885, 874.250 480.963 C 871.895 485.804, 871.559 487.694, 871.580 496 C 871.599 504.065, 871.990 506.331, 874.164 511 C 877.726 518.651, 883.742 525.041, 891.179 529.073 C 897.288 532.385, 897.869 532.500, 908.500 532.500 C 919.131 532.500, 919.712 532.385, 925.821 529.073 C 933.258 525.041, 939.274 518.651, 942.836 511 C 945.010 506.331, 945.401 504.065, 945.420 496 C 945.441 487.659, 945.110 485.814, 942.709 480.876 C 938.844 472.929, 933.158 466.899, 925.821 462.967 C 920.109 459.906, 918.585 459.550, 910 459.278 C 903.745 459.079, 899.251 459.441, 896.844 460.338 M 735.729 540.364 C 728.402 543.449, 722.108 548.598, 718.179 554.721 C 714.850 559.909, 712 569.263, 712 575 C 712 580.712, 714.845 590.083, 718.136 595.212 C 726.110 607.639, 740.786 614.142, 755.609 611.818 C 767.517 609.950, 777.754 602.308, 783.219 591.206 C 786.231 585.089, 786.500 583.760, 786.500 575.021 C 786.500 566.801, 786.136 564.725, 783.840 559.825 C 780.273 552.217, 774.327 545.990, 766.752 541.930 C 761.132 538.918, 759.540 538.547, 751 538.256 C 742.744 537.976, 740.744 538.252, 735.729 540.364 M 894.730 540.420 C 883.487 545.043, 876.482 552.718, 872.864 564.373 C 863.070 595.925, 896.919 623.419, 926.287 607.766 C 954.445 592.758, 951.426 551.283, 921.357 540.032 C 913.566 537.118, 902.365 537.281, 894.730 540.420" stroke="none" fill="#9c6c44" fill-rule="evenodd"/></svg>