<?xml version="1.0" encoding="UTF-8"?>
<svg version="1.1" xmlns="http://www.w3.org/2000/svg" width="700" height="700">
<path d="M0 0 C231 0 462 0 700 0 C700 231 700 462 700 700 C469 700 238 700 0 700 C0 469 0 238 0 0 Z " fill="#0D0D0D" transform="translate(0,0)"/>
<path d="M0 0 C1.16466797 -0.01224609 2.32933594 -0.02449219 3.52929688 -0.03710938 C14.17287684 -0.05489809 24.11267068 0.93639691 33.9375 5.1875 C34.5763916 5.44595703 35.2152832 5.70441406 35.87353516 5.97070312 C56.58444509 14.37692635 75.6657359 27.6439718 85.9375 48.1875 C85.9375 48.8475 85.9375 49.5075 85.9375 50.1875 C85.26396484 50.50912109 84.59042969 50.83074219 83.89648438 51.16210938 C80.74278003 52.66909421 77.58998292 54.17796168 74.4375 55.6875 C73.30014404 56.23196777 72.16278809 56.77643555 70.9909668 57.33740234 C63.91350971 60.73406057 56.86114828 64.1712043 49.88671875 67.77539062 C46.31563639 69.59696291 42.76990606 71.01277159 38.9375 72.1875 C38.08478516 70.68509766 38.08478516 70.68509766 37.21484375 69.15234375 C29.73986545 56.18594349 23.56218947 49.06239649 8.9375 44.1875 C-2.70750158 43.10208041 -12.3165865 45.01594713 -21.5 52.5 C-29.82203142 60.52912349 -34.46851184 72.13098047 -35.22363281 83.64428711 C-35.51856222 101.69842497 -35.49511654 120.33967634 -22.81640625 134.73828125 C-13.52428923 143.30959324 -4.57046561 144.76518496 7.69140625 144.53125 C13.28094505 144.23557239 17.39891808 142.41341078 21.9375 139.1875 C22.56785156 138.7646875 23.19820313 138.341875 23.84765625 137.90625 C30.87670801 132.5919779 35.43002091 124.50499162 37.9375 116.1875 C43.39289639 117.81786108 48.3561713 120.19904036 53.45703125 122.6875 C54.35620773 123.12384766 55.25538422 123.56019531 56.18180847 124.00976562 C58.07290614 124.92906762 59.96305175 125.85033037 61.85229492 126.7734375 C64.75418646 128.18954297 67.66105943 129.59503804 70.56835938 131 C72.40656172 131.89519353 74.24446318 132.79100522 76.08203125 133.6875 C76.95487259 134.10837891 77.82771393 134.52925781 78.727005 134.96289062 C79.52841415 135.35669922 80.3298233 135.75050781 81.15551758 136.15625 C82.21758171 136.67348633 82.21758171 136.67348633 83.30110168 137.20117188 C84.9375 138.1875 84.9375 138.1875 85.9375 140.1875 C80.72552462 152.74857873 70.24357927 165.65011382 58.9375 173.1875 C75.7675 173.5175 92.5975 173.8475 109.9375 174.1875 C109.9375 118.7475 109.9375 63.3075 109.9375 6.1875 C128.4175 6.1875 146.8975 6.1875 165.9375 6.1875 C165.9375 49.7475 165.9375 93.3075 165.9375 138.1875 C190.0275 138.1875 214.1175 138.1875 238.9375 138.1875 C238.9375 150.0675 238.9375 161.9475 238.9375 174.1875 C248.1775 174.1875 257.4175 174.1875 266.9375 174.1875 C266.9375 192.3375 266.9375 210.4875 266.9375 229.1875 C35.9375 229.1875 -195.0625 229.1875 -433.0625 229.1875 C-433.0625 211.0375 -433.0625 192.8875 -433.0625 174.1875 C-373.6625 173.8575 -314.2625 173.5275 -253.0625 173.1875 C-256.0325 170.5475 -259.0025 167.9075 -262.0625 165.1875 C-278.46997473 145.04519979 -277.51446692 120.35118714 -277.35546875 95.640625 C-277.34985898 93.04604337 -277.34559543 90.45145853 -277.34260559 87.85687256 C-277.33241737 81.78361196 -277.30890362 75.71054433 -277.27855712 69.63735557 C-277.24136859 62.02519655 -277.22523311 54.4130088 -277.20898438 46.80078125 C-277.17999646 33.26289142 -277.11986384 19.72536519 -277.0625 6.1875 C-258.2525 6.1875 -239.4425 6.1875 -220.0625 6.1875 C-220.04832031 14.95054687 -220.03414062 23.71359375 -220.01953125 32.7421875 C-219.99691565 39.00954749 -219.97117464 45.27683375 -219.94093037 51.54415512 C-219.90219649 59.6567456 -219.87076387 67.7691458 -219.86694336 75.88183594 C-219.8638941 82.30656429 -219.84327541 88.73096114 -219.80197543 95.15556157 C-219.78073003 98.55420915 -219.7680006 101.95238649 -219.77634621 105.35110092 C-219.78125946 109.15498684 -219.75512291 112.95751204 -219.72192383 116.76123047 C-219.73054947 117.87541855 -219.73917511 118.98960663 -219.74806213 120.13755798 C-219.64247027 127.38093014 -218.35310976 133.21864158 -214.0625 139.1875 C-206.36558887 145.53913216 -198.78040662 145.78071295 -189.0625 145.1875 C-183.32729614 144.04406061 -179.13373235 141.25873235 -175.0625 137.1875 C-171.88844097 131.93388505 -170.94914462 127.13785034 -170.90428162 121.06852722 C-170.8944928 120.06036957 -170.88470398 119.05221191 -170.87461853 118.01350403 C-170.86886307 116.91874252 -170.8631076 115.82398102 -170.85717773 114.69604492 C-170.84727814 113.53463989 -170.83737854 112.37323486 -170.82717896 111.17663574 C-170.79560899 107.3404341 -170.7708242 103.50422008 -170.74609375 99.66796875 C-170.72552034 97.00710123 -170.70457091 94.34623934 -170.68312073 91.68537903 C-170.63327066 85.39923596 -170.58830343 79.11306786 -170.54509836 72.82687598 C-170.49080826 64.96593061 -170.4299864 57.10503752 -170.36914062 49.24414062 C-170.26065926 35.22530063 -170.16204508 21.20641262 -170.0625 7.1875 C-151.5825 7.1875 -133.1025 7.1875 -114.0625 7.1875 C-113.90184533 35.12356269 -113.90184533 35.12356269 -113.86148453 49.05890465 C-113.83943625 56.55451137 -113.81157795 64.0499374 -113.76074219 71.54541016 C-113.71612907 78.12660742 -113.69328017 84.70768303 -113.68299103 91.28902435 C-113.67567008 93.78450336 -113.66137692 96.27997318 -113.63957977 98.77536774 C-113.4417765 122.38585907 -114.60090152 146.62888261 -131.0625 165.1875 C-134.0325 167.8275 -137.0025 170.4675 -140.0625 173.1875 C-113.0025 173.1875 -85.9425 173.1875 -58.0625 173.1875 C-61.6925 169.8875 -65.3225 166.5875 -69.0625 163.1875 C-87.74952388 140.76307135 -95.53023863 113.17725952 -93.0625 84.1875 C-89.8358905 58.85551293 -77.84235186 34.73173918 -57.89453125 18.4140625 C-45.77031337 9.43767338 -32.76409373 4.15464035 -18.0625 1.1875 C-16.90379395 0.92380615 -16.90379395 0.92380615 -15.72167969 0.65478516 C-10.53553366 -0.25655193 -5.25151425 0.00284019 0 0 Z " fill="#FEFEFE" transform="translate(433.0625,470.8125)"/>
<path d="M0 0 C1.15628906 0.28617187 2.31257813 0.57234375 3.50390625 0.8671875 C6.33810549 1.56988153 9.16990129 2.28100195 12 3 C11.67 4.65 11.34 6.3 11 8 C10.34 8 9.68 8 9 8 C9 15.26 9 22.52 9 30 C9.99 30 10.98 30 12 30 C12 31.32 12 32.64 12 34 C12.66 34 13.32 34 14 34 C14 35.65 14 37.3 14 39 C-6.46 39 -26.92 39 -48 39 C-48 37.35 -48 35.7 -48 34 C-47.34 34 -46.68 34 -46 34 C-46 32.68 -46 31.36 -46 30 C-45.34 30 -44.68 30 -44 30 C-43.91275294 26.5834948 -43.85952675 23.16727687 -43.8125 19.75 C-43.78736328 18.78191406 -43.76222656 17.81382812 -43.73632812 16.81640625 C-43.72666016 15.88183594 -43.71699219 14.94726562 -43.70703125 13.984375 C-43.6913208 13.12553711 -43.67561035 12.26669922 -43.65942383 11.38183594 C-44.06965858 8.51283938 -45.27993221 7.27369704 -47 5 C-46.67 4.01 -46.34 3.02 -46 2 C-42.00262969 1.15370989 -38.00174551 0.32533213 -34 -0.5 C-32.87464844 -0.73847656 -31.74929687 -0.97695313 -30.58984375 -1.22265625 C-19.13801981 -3.56659682 -11.34636796 -2.88533068 0 0 Z " fill="#EEEEEE" transform="translate(115,511)"/>
<path d="M0 0 C0.99 0.66 1.98 1.32 3 2 C3.2475 3.2375 3.495 4.475 3.75 5.75 C4.50655359 9.37623962 5.5511332 10.7822572 8.5 13 C11.90270376 15.6103902 12.9683469 17.6114883 13.80859375 21.77734375 C14.07362939 24.85500245 14.03343381 27.91294509 14 31 C12.33324219 30.87431641 12.33324219 30.87431641 10.6328125 30.74609375 C2.60212022 30.18195048 -4.99224479 29.85603497 -13 31 C-13.41945569 25.547076 -12.29835274 20.91465941 -10 16 C-7.89506532 13.57932512 -5.83271354 11.64766608 -3.3125 9.6875 C-1.09670963 6.83862666 -0.74485853 3.49510542 0 0 Z " fill="#F7F7F7" transform="translate(97,477)"/>
<path d="M0 0 C2.5 0.125 2.5 0.125 3.5 1.125 C3.59860131 2.52848735 3.63078937 3.93680477 3.6328125 5.34375 C3.63410156 6.19324219 3.63539062 7.04273438 3.63671875 7.91796875 C3.63285156 8.81128906 3.62898438 9.70460938 3.625 10.625 C3.62886719 11.51832031 3.63273437 12.41164063 3.63671875 13.33203125 C3.63542969 14.18152344 3.63414063 15.03101563 3.6328125 15.90625 C3.63168457 16.69064453 3.63055664 17.47503906 3.62939453 18.28320312 C3.5 20.125 3.5 20.125 2.5 21.125 C0 21.25 0 21.25 -2.5 21.125 C-4.05606751 19.56893249 -3.62970769 18.06542629 -3.6328125 15.90625 C-3.63410156 15.05675781 -3.63539062 14.20726562 -3.63671875 13.33203125 C-3.63285156 12.43871094 -3.62898438 11.54539062 -3.625 10.625 C-3.62886719 9.73167969 -3.63273437 8.83835937 -3.63671875 7.91796875 C-3.63542969 7.06847656 -3.63414063 6.21898437 -3.6328125 5.34375 C-3.63168457 4.55935547 -3.63055664 3.77496094 -3.62939453 2.96679688 C-3.42562955 0.06641384 -2.91395956 0.14569798 0 0 Z " fill="#232323" transform="translate(107.5,518.875)"/>
<path d="M0 0 C1.98 0 3.96 0 6 0 C6 6.93 6 13.86 6 21 C4.02 21 2.04 21 0 21 C0 14.07 0 7.14 0 0 Z " fill="#171717" transform="translate(95,519)"/>
<path d="M0 0 C1.98 0 3.96 0 6 0 C6 6.93 6 13.86 6 21 C4.35 21 2.7 21 1 21 C0 20 0 20 -0.11352539 18.05053711 C-0.10567017 16.8015564 -0.10567017 16.8015564 -0.09765625 15.52734375 C-0.09443359 14.62822266 -0.09121094 13.72910156 -0.08789062 12.80273438 C-0.07951172 11.85720703 -0.07113281 10.91167969 -0.0625 9.9375 C-0.05798828 8.98810547 -0.05347656 8.03871094 -0.04882812 7.06054688 C-0.0370011 4.70696935 -0.02052025 2.35351523 0 0 Z " fill="#171717" transform="translate(114,519)"/>
<path d="M0 0 C1.65 0 3.3 0 5 0 C5 6.93 5 13.86 5 21 C3.35 21 1.7 21 0 21 C-1.55606751 19.44393249 -1.12970769 17.94042629 -1.1328125 15.78125 C-1.13410156 14.93175781 -1.13539062 14.08226562 -1.13671875 13.20703125 C-1.13285156 12.31371094 -1.12898438 11.42039062 -1.125 10.5 C-1.12886719 9.60667969 -1.13273437 8.71335937 -1.13671875 7.79296875 C-1.13542969 6.94347656 -1.13414063 6.09398437 -1.1328125 5.21875 C-1.13168457 4.43435547 -1.13055664 3.64996094 -1.12939453 2.84179688 C-1 1 -1 1 0 0 Z " fill="#131313" transform="translate(86,519)"/>
<path d="M0 0 C1.65 0 3.3 0 5 0 C5 6.93 5 13.86 5 21 C3.35 21 1.7 21 0 21 C-1.55606751 19.44393249 -1.12970769 17.94042629 -1.1328125 15.78125 C-1.13410156 14.93175781 -1.13539062 14.08226562 -1.13671875 13.20703125 C-1.13285156 12.31371094 -1.12898438 11.42039062 -1.125 10.5 C-1.12886719 9.60667969 -1.13273437 8.71335937 -1.13671875 7.79296875 C-1.13542969 6.94347656 -1.13414063 6.09398437 -1.1328125 5.21875 C-1.13168457 4.43435547 -1.13055664 3.64996094 -1.12939453 2.84179688 C-1 1 -1 1 0 0 Z " fill="#1C1C1C" transform="translate(76,519)"/>
</svg>
